<svg width="37" height="17" viewBox="0 0 37 17" fill="none" xmlns="http://www.w3.org/2000/svg">
<path d="M9.463 4.29958H1.8454L9.463 11.9071V4.29958Z" fill="white"/>
<path d="M30.3358 4.29958C29.2263 4.29958 28.1623 4.73317 27.3778 5.50496C26.5933 6.27675 26.1526 7.32352 26.1526 8.415V14.1667C26.1526 14.4334 26.2603 14.6893 26.452 14.8779C26.6438 15.0665 26.9038 15.1725 27.175 15.1725C27.4462 15.1725 27.7062 15.0665 27.8979 14.8779C28.0897 14.6893 28.1974 14.4334 28.1974 14.1667V11.9354C28.8464 12.3301 29.5945 12.5386 30.3574 12.5375C30.9218 12.5605 31.4852 12.4711 32.0135 12.2744C32.5419 12.0778 33.0244 11.7781 33.4321 11.3934C33.8397 11.0086 34.1641 10.5468 34.3857 10.0355C34.6072 9.52432 34.7215 8.9743 34.7215 8.41854C34.7215 7.86279 34.6072 7.31277 34.3857 6.80154C34.1641 6.29032 33.8397 5.82846 33.4321 5.44371C33.0244 5.05895 32.5419 4.75926 32.0135 4.56265C31.4852 4.36603 30.9218 4.27655 30.3574 4.29958M30.3574 10.5188C29.9302 10.5188 29.5126 10.3941 29.1574 10.1606C28.8022 9.92713 28.5253 9.59525 28.3618 9.20695C28.1983 8.81866 28.1556 8.39139 28.2389 7.97918C28.3222 7.56698 28.528 7.18834 28.83 6.89115C29.1321 6.59396 29.517 6.39158 29.936 6.30958C30.355 6.22759 30.7893 6.26967 31.184 6.43051C31.5787 6.59134 31.916 6.86371 32.1534 7.21316C32.3907 7.56262 32.5174 7.97347 32.5174 8.39375C32.5174 8.95734 32.2898 9.49784 31.8847 9.89635C31.4797 10.2949 30.9303 10.5188 30.3574 10.5188ZM16.6774 4.29958C15.9148 4.30073 15.1673 4.50908 14.5174 4.90167V2.4225C14.5174 2.15574 14.4097 1.8999 14.2179 1.71127C14.0262 1.52264 13.7662 1.41667 13.495 1.41667C13.2238 1.41667 12.9638 1.52264 12.772 1.71127C12.5803 1.8999 12.4726 2.15574 12.4726 2.4225V8.42208C12.4754 9.23543 12.7232 10.0297 13.1846 10.7046C13.646 11.3795 14.3003 11.9048 15.0649 12.2141C15.8295 12.5234 16.6702 12.6029 17.4807 12.4425C18.2912 12.2821 19.0352 11.8891 19.6188 11.313C20.2024 10.7368 20.5994 10.0035 20.7596 9.2056C20.9199 8.40768 20.8362 7.58093 20.5192 6.82976C20.2021 6.07859 19.666 5.43669 18.9784 4.9851C18.2907 4.53352 17.4825 4.29251 16.6558 4.2925M16.6558 10.5188C16.2286 10.5188 15.811 10.3941 15.4558 10.1606C15.1006 9.92713 14.8237 9.59525 14.6602 9.20695C14.4967 8.81866 14.454 8.39139 14.5373 7.97918C14.6206 7.56698 14.8264 7.18834 15.1284 6.89115C15.4305 6.59396 15.8154 6.39158 16.2344 6.30958C16.6534 6.22759 17.0877 6.26967 17.4824 6.43051C17.8771 6.59134 18.2144 6.86371 18.4518 7.21316C18.6891 7.56262 18.8158 7.97347 18.8158 8.39375C18.8158 8.95734 18.5882 9.49784 18.1831 9.89635C17.7781 10.2949 17.2287 10.5188 16.6558 10.5188ZM24.5038 10.625C24.3598 10.5542 23.9422 10.3488 23.9422 8.74792V5.3125C23.9541 5.1738 23.9365 5.03418 23.8907 4.90248C23.8449 4.77078 23.7718 4.64987 23.676 4.54741C23.5803 4.44494 23.4639 4.36314 23.3344 4.30718C23.2048 4.25123 23.0649 4.22233 22.9234 4.22233C22.7819 4.22233 22.642 4.25123 22.5124 4.30718C22.3829 4.36314 22.2665 4.44494 22.1708 4.54741C22.075 4.64987 22.0019 4.77078 21.9561 4.90248C21.9103 5.03418 21.8927 5.1738 21.9046 5.3125V8.755C21.9046 9.97333 22.0774 11.6804 23.5822 12.4313C23.8258 12.5495 24.1071 12.5681 24.3647 12.4832C24.6223 12.3983 24.8353 12.2167 24.9574 11.9779C25.018 11.8603 25.0543 11.7321 25.0642 11.6007C25.0742 11.4693 25.0576 11.3372 25.0155 11.2121C24.9733 11.087 24.9064 10.9713 24.8186 10.8718C24.7307 10.7722 24.6238 10.6908 24.5038 10.6321M22.927 3.63375C23.1509 3.63375 23.3697 3.56834 23.5558 3.44583C23.7418 3.32331 23.8867 3.14921 23.972 2.94559C24.0574 2.74197 24.0793 2.51801 24.0351 2.30209C23.9909 2.08618 23.8825 1.88804 23.7237 1.7328C23.5649 1.57756 23.3628 1.4722 23.1431 1.4301C22.9233 1.38799 22.6958 1.41103 22.4894 1.49628C22.283 1.58154 22.1069 1.72518 21.9836 1.90899C21.8603 2.0928 21.7952 2.30851 21.7966 2.52875C21.7966 2.67446 21.8259 2.81873 21.8828 2.95326C21.9397 3.08779 22.0231 3.20992 22.1281 3.31262C22.2332 3.41532 22.3578 3.49657 22.495 3.55168C22.6321 3.60679 22.7789 3.63469 22.927 3.63375Z" fill="white"/>
</svg>
