<svg width="86" height="55" viewBox="0 0 86 55" fill="none" xmlns="http://www.w3.org/2000/svg">
<path d="M72.768 51.8027C72.6062 51.7054 72.5253 51.5374 72.5253 51.281C72.5253 51.1572 72.5523 51.0511 72.6152 50.9627C72.6781 50.8831 72.75 50.8123 72.8489 50.7681C72.9478 50.7239 73.0557 50.6885 73.1725 50.6709C73.2984 50.6532 73.4152 50.6443 73.5321 50.6443C73.6669 50.6443 73.7928 50.6443 73.9006 50.6709C74.0085 50.6885 74.0984 50.7062 74.1613 50.7239V51.8911C73.9905 51.9265 73.7388 51.9441 73.4062 51.9441C73.1366 51.9441 72.9208 51.8999 72.759 51.8027M72.4893 48.089C72.2287 48.1332 72.0309 48.1862 71.8961 48.2304L72.0309 49.0793C72.1567 49.0351 72.3275 48.9909 72.5343 48.9555C72.741 48.9201 72.9658 48.9024 73.2175 48.9024C73.3973 48.9024 73.5501 48.9201 73.6759 48.9732C73.7928 49.0174 73.8917 49.0881 73.9636 49.1677C74.0355 49.2473 74.0894 49.3445 74.1164 49.4595C74.1434 49.5744 74.1613 49.6894 74.1613 49.8043V49.9812C74.0085 49.9458 73.8737 49.9193 73.7478 49.9104C73.622 49.8928 73.4961 49.8928 73.3793 49.8928C73.1276 49.8928 72.8849 49.9193 72.6512 49.9635C72.4174 50.0166 72.2107 50.0961 72.0399 50.2111C71.8601 50.326 71.7253 50.4763 71.6174 50.6532C71.5185 50.83 71.4646 51.0511 71.4646 51.3163C71.4646 51.5816 71.5095 51.8203 71.5994 52.006C71.6893 52.1917 71.8152 52.342 71.977 52.457C72.1388 52.5719 72.3365 52.6604 72.5613 52.7134C72.795 52.7665 73.0467 52.793 73.3253 52.793C73.4602 52.793 73.595 52.793 73.7209 52.7841C73.8467 52.7841 73.9726 52.7665 74.0894 52.7576C73.9726 52.846 73.8737 52.9345 73.7928 53.0406C73.6939 53.1467 73.613 53.2528 73.5501 53.3766C73.4871 53.5004 73.4512 53.6242 73.4512 53.7568C73.4512 53.9778 73.5321 54.1547 73.6939 54.2873C73.8557 54.4199 74.1164 54.4818 74.4849 54.4818C74.6198 54.4818 74.7456 54.473 74.8805 54.4465C75.0153 54.4288 75.1232 54.4023 75.2221 54.3669L75.1322 53.6595C75.0513 53.686 74.9704 53.7037 74.8984 53.7126C74.8265 53.7214 74.7726 53.7303 74.7187 53.7303C74.5119 53.7303 74.413 53.6507 74.413 53.4915C74.413 53.4208 74.44 53.3412 74.4849 53.2705C74.5299 53.1997 74.6018 53.129 74.6827 53.0406C74.7726 52.9433 74.8715 52.8549 74.9704 52.7753C75.0692 52.7046 75.1501 52.6338 75.2131 52.5808V49.822C75.2131 49.5568 75.1771 49.3092 75.1232 49.0881C75.0602 48.8671 74.9614 48.6725 74.8175 48.5222C74.6737 48.3631 74.476 48.2393 74.2332 48.1597C73.9905 48.0713 73.6939 48.0271 73.3433 48.0271C73.0467 48.0271 72.768 48.0536 72.5073 48.0978M68.0757 45.9315L67.006 46.1083V52.6869H68.0757V50.6001C68.2375 50.7151 68.3993 50.8566 68.5611 51.0246C68.7229 51.1926 68.8847 51.3694 69.0465 51.5551C69.2083 51.7408 69.3521 51.9353 69.496 52.1298C69.6308 52.3243 69.7567 52.5189 69.8645 52.6957H71.105C70.9972 52.5012 70.8623 52.2801 70.7095 52.0502C70.5477 51.8204 70.3769 51.5905 70.1971 51.3517C70.0173 51.1218 69.8286 50.9008 69.6308 50.6974C69.433 50.494 69.2533 50.3172 69.0735 50.1669C69.4061 49.8397 69.7297 49.4949 70.0533 49.15C70.3769 48.8052 70.6915 48.4692 70.9882 48.142H69.7207C69.6218 48.2481 69.5139 48.3807 69.3791 48.5311C69.2443 48.6814 69.1094 48.8317 68.9566 48.9909C68.8128 49.15 68.66 49.3092 68.5072 49.4683C68.3543 49.6275 68.2105 49.7778 68.0757 49.9193V45.9403V45.9315ZM63.4732 51.8469C63.2485 51.785 63.0597 51.7319 62.8979 51.6612L62.7092 52.5366C62.808 52.5808 62.9788 52.6338 63.2305 52.6957C63.4822 52.7665 63.8058 52.793 64.2104 52.793C64.8216 52.793 65.289 52.678 65.6127 52.457C65.9363 52.2359 66.1071 51.9088 66.1071 51.4667C66.1071 51.2633 66.0801 51.0865 66.0262 50.945C65.9722 50.8035 65.8913 50.6709 65.7745 50.5559C65.6576 50.441 65.5138 50.3437 65.334 50.2464C65.1542 50.158 64.9385 50.0608 64.6868 49.9723C64.534 49.9193 64.3991 49.8662 64.3002 49.822C64.1924 49.769 64.1115 49.7248 64.0396 49.6717C63.9766 49.6187 63.9317 49.5656 63.9047 49.5125C63.8777 49.4507 63.8688 49.3888 63.8688 49.3092C63.8688 49.1589 63.9407 49.0439 64.0755 48.9732C64.2103 48.9024 64.3901 48.8671 64.6059 48.8671C64.8486 48.8671 65.0643 48.8847 65.2441 48.929C65.4239 48.9732 65.5767 49.0174 65.6936 49.0704L65.8913 48.2216C65.7655 48.1774 65.5857 48.1243 65.334 48.0801C65.0823 48.0359 64.8306 48.0094 64.5519 48.0094C64.0126 48.0094 63.5901 48.1332 63.2755 48.3719C62.9609 48.6106 62.808 48.9378 62.808 49.3622C62.808 49.5744 62.844 49.7601 62.9069 49.9016C62.9788 50.0519 63.0687 50.1757 63.1856 50.2818C63.3024 50.3879 63.4463 50.4763 63.6081 50.5559C63.7699 50.6355 63.9497 50.7062 64.1384 50.777C64.4531 50.8919 64.6868 50.998 64.8216 51.0953C64.9564 51.1926 65.0284 51.3163 65.0284 51.4667C65.0284 51.6258 64.9654 51.7408 64.8306 51.8115C64.7047 51.8822 64.498 51.9088 64.2104 51.9088C63.9227 51.9088 63.671 51.8822 63.4553 51.8203M61.7383 46.3294C61.6125 46.2144 61.4507 46.1525 61.2799 46.1525C61.1091 46.1525 60.9383 46.2144 60.8125 46.3294C60.6866 46.4443 60.6147 46.6035 60.6147 46.8068C60.6147 47.0102 60.6776 47.1605 60.8125 47.2755C60.9383 47.3904 61.1001 47.4523 61.2799 47.4523C61.4597 47.4523 61.6125 47.3904 61.7383 47.2755C61.8642 47.1605 61.9361 47.0014 61.9361 46.8068C61.9361 46.6123 61.8732 46.4443 61.7383 46.3294ZM61.3878 53.8806C61.6754 53.5976 61.8192 53.1555 61.8192 52.5631V48.1332H60.7495V52.5454C60.7495 52.8284 60.6956 53.0406 60.5967 53.182C60.4978 53.3235 60.327 53.3943 60.0753 53.3943C59.8956 53.3943 59.7338 53.3766 59.6079 53.3324L59.4641 54.19C59.5719 54.2343 59.6888 54.2608 59.8326 54.2696C59.9675 54.2873 60.0753 54.2873 60.1562 54.2873C60.6956 54.2873 61.1001 54.1458 61.3878 53.8629M56.6235 49.9635C56.6415 49.8309 56.6685 49.6982 56.7224 49.5744C56.7673 49.4506 56.8392 49.3357 56.9202 49.2384C57.01 49.1412 57.1089 49.0616 57.2348 48.9997C57.3606 48.9378 57.5044 48.9113 57.6663 48.9113C57.8281 48.9113 57.9629 48.9378 58.0798 48.9909C58.1966 49.0439 58.2955 49.1235 58.3674 49.2208C58.4483 49.318 58.5022 49.4241 58.5472 49.5568C58.5921 49.6894 58.6101 49.822 58.6101 49.9723H56.6235V49.9635ZM55.6527 51.3782C55.7426 51.6612 55.8954 51.9176 56.0842 52.1298C56.2819 52.342 56.5246 52.5012 56.8303 52.625C57.1269 52.7399 57.4865 52.8018 57.891 52.8018C58.0528 52.8018 58.2056 52.8018 58.3584 52.7753C58.5112 52.7576 58.6551 52.7399 58.7899 52.7134C58.9247 52.6869 59.0416 52.6603 59.1405 52.625C59.2394 52.5896 59.3203 52.5631 59.3832 52.5366L59.2394 51.6789C59.1135 51.7319 58.9427 51.785 58.727 51.8292C58.5112 51.8734 58.2775 51.8999 58.0168 51.8999C57.5764 51.8999 57.2348 51.8027 57.001 51.5993C56.7673 51.3959 56.6415 51.113 56.6055 50.7504H59.6618C59.6618 50.6886 59.6708 50.6267 59.6708 50.5559C59.6708 50.4852 59.6708 50.4233 59.6708 50.3614C59.6708 49.5921 59.491 49.0085 59.1315 48.6195C58.7719 48.2304 58.2775 48.0359 57.6393 48.0359C57.3696 48.0359 57.0999 48.089 56.8392 48.1862C56.5786 48.2835 56.3538 48.4426 56.1471 48.6372C55.9493 48.8405 55.7875 49.0881 55.6617 49.3888C55.5358 49.6894 55.4819 50.0431 55.4819 50.441C55.4819 50.7858 55.5268 51.0953 55.6257 51.3871M54.6009 49.433C54.4931 49.1412 54.3403 48.8936 54.1335 48.6814C53.9268 48.478 53.6841 48.3189 53.3964 48.2039C53.1088 48.0978 52.7851 48.0359 52.4166 48.0359C52.048 48.0359 51.7244 48.0624 51.4098 48.1155C51.0952 48.1685 50.8255 48.2216 50.6098 48.2835V54.2962H51.6795V52.5277C51.7963 52.5896 51.9492 52.6515 52.1289 52.7046C52.3087 52.7576 52.5155 52.7841 52.7312 52.7841C53.0548 52.7841 53.3425 52.7222 53.6032 52.6073C53.8638 52.4924 54.0706 52.3243 54.2414 52.121C54.4122 51.9088 54.547 51.6612 54.6369 51.3694C54.7268 51.0776 54.7717 50.7593 54.7717 50.4144C54.7717 50.0519 54.7178 49.7159 54.6099 49.4241M53.3964 51.4843C53.2166 51.7496 52.929 51.8734 52.5424 51.8734C52.3627 51.8734 52.2008 51.8469 52.039 51.7938C51.8862 51.7408 51.7604 51.6789 51.6615 51.617V49.0174C51.7694 48.9909 51.8772 48.9732 51.9851 48.9643C52.093 48.9555 52.2009 48.9555 52.2997 48.9555C52.7762 48.9555 53.1267 49.0881 53.3425 49.3445C53.5582 49.601 53.6661 49.9723 53.6661 50.441C53.6661 50.8831 53.5762 51.2279 53.3964 51.4932M48.2187 51.4932C48.0209 51.7585 47.7422 51.8911 47.3917 51.8911C47.0411 51.8911 46.7624 51.7585 46.5647 51.4932C46.3669 51.2279 46.268 50.8654 46.268 50.4056C46.268 49.9458 46.3669 49.5921 46.5647 49.3269C46.7624 49.0616 47.0411 48.929 47.3917 48.929C47.7422 48.929 48.0209 49.0616 48.2187 49.3269C48.4164 49.5921 48.5153 49.9458 48.5153 50.4056C48.5153 50.8654 48.4164 51.2279 48.2187 51.4932ZM49.4502 49.433C49.3423 49.1412 49.1895 48.8936 48.9917 48.6814C48.794 48.4692 48.5602 48.31 48.2906 48.1951C48.0119 48.0801 47.7153 48.0271 47.3917 48.0271C47.068 48.0271 46.7714 48.0801 46.5017 48.1951C46.2321 48.31 45.9983 48.4692 45.8006 48.6814C45.6028 48.8936 45.45 49.1412 45.3421 49.433C45.2343 49.7248 45.1803 50.0519 45.1803 50.4144C45.1803 50.777 45.2343 51.1041 45.3421 51.3959C45.45 51.6877 45.6028 51.9441 45.8006 52.1563C45.9983 52.3686 46.2321 52.5277 46.5017 52.6427C46.7714 52.7576 47.077 52.8195 47.4006 52.8195C47.7243 52.8195 48.0299 52.7576 48.3085 52.6427C48.5782 52.5277 48.8209 52.3686 49.0097 52.1563C49.2075 51.9441 49.3513 51.6966 49.4592 51.3959C49.567 51.1041 49.621 50.777 49.621 50.4144C49.621 50.0519 49.567 49.7248 49.4592 49.433M44.8298 48.1951C44.7758 48.1774 44.7039 48.1597 44.614 48.142C44.5241 48.1243 44.4342 48.1066 44.3443 48.089C44.2455 48.0713 44.1556 48.0624 44.0567 48.0536C43.9578 48.0447 43.8769 48.0359 43.805 48.0359C43.4274 48.0359 43.0859 48.0713 42.7712 48.1332C42.4566 48.2039 42.2049 48.2746 41.9982 48.3454V52.678H43.0679V49.0351C43.1218 49.0174 43.2117 48.9997 43.3465 48.9732C43.4814 48.9466 43.6072 48.9378 43.7241 48.9378C43.9308 48.9378 44.1106 48.9555 44.2724 48.982C44.4252 49.0174 44.5511 49.0439 44.641 49.0704L44.8298 48.1862V48.1951ZM40.7936 48.1332H39.7239V51.8115C39.652 51.8292 39.5441 51.8469 39.4003 51.8557C39.2565 51.8646 39.1216 51.8734 38.9868 51.8734C38.6272 51.8734 38.3755 51.7673 38.2317 51.5639C38.0879 51.3517 38.016 51.0069 38.016 50.5206V48.1332H36.9463V50.6797C36.9463 50.9892 36.9822 51.2721 37.0451 51.5286C37.1081 51.785 37.2159 52.006 37.3688 52.1917C37.5216 52.3774 37.7193 52.5189 37.971 52.625C38.2227 52.7311 38.5284 52.7841 38.9059 52.7841C39.3014 52.7841 39.661 52.7576 39.9936 52.7046C40.3262 52.6515 40.5959 52.5985 40.8026 52.5454V48.1332H40.7936ZM36.1732 52.6869V51.7585H33.1349V49.99H35.6428V49.0793H33.1349V47.5938H35.9575V46.6654H32.0202V52.6957H36.1732V52.6869ZM25.4581 49.9635C25.4761 49.8309 25.5121 49.6982 25.557 49.5744C25.602 49.4506 25.6739 49.3357 25.7548 49.2384C25.8447 49.1412 25.9436 49.0616 26.0694 48.9997C26.1953 48.9378 26.3391 48.9113 26.5009 48.9113C26.6627 48.9113 26.7975 48.9378 26.9144 48.9909C27.0312 49.0439 27.1301 49.1235 27.202 49.2208C27.2829 49.318 27.3459 49.4241 27.3818 49.5568C27.4178 49.6894 27.4447 49.822 27.4447 49.9723H25.4581V49.9635ZM24.4873 51.3782C24.5862 51.6612 24.73 51.9176 24.9188 52.1298C25.1166 52.342 25.3593 52.5012 25.6649 52.625C25.9615 52.7399 26.3211 52.8018 26.7256 52.8018H26.8425C26.8425 52.8018 26.9234 52.8018 26.9593 52.8018C26.7885 52.9521 26.6447 53.1025 26.5368 53.2616C26.429 53.4208 26.375 53.5799 26.375 53.7479C26.375 53.9778 26.4649 54.1547 26.6357 54.2873C26.8065 54.4111 27.0762 54.473 27.4178 54.473C27.5256 54.473 27.6515 54.473 27.7953 54.4465C27.9391 54.4199 28.047 54.4023 28.1459 54.358L28.065 53.6507C27.9122 53.6949 27.7773 53.7214 27.6605 53.7214C27.4537 53.7214 27.3459 53.6418 27.3459 53.4827C27.3459 53.4119 27.3728 53.3412 27.4358 53.2528C27.4987 53.1644 27.5706 53.0848 27.6605 52.9964C27.7504 52.9079 27.8403 52.8284 27.9481 52.7488C28.047 52.6692 28.1459 52.5985 28.2358 52.5366L28.092 51.6789C27.9661 51.7319 27.7953 51.785 27.5796 51.8292C27.3638 51.8734 27.1301 51.8999 26.8694 51.8999C26.429 51.8999 26.0874 51.8027 25.8537 51.5993C25.6199 51.3959 25.4941 51.113 25.4581 50.7504H28.5144C28.5144 50.6886 28.5234 50.6267 28.5234 50.5559C28.5234 50.4852 28.5234 50.4233 28.5234 50.3614C28.5234 49.5921 28.3437 49.0085 27.9841 48.6195C27.6245 48.2304 27.1301 48.0359 26.4919 48.0359C26.2222 48.0359 25.9525 48.089 25.6919 48.1862C25.4312 48.2835 25.2064 48.4426 24.9997 48.6372C24.8019 48.8405 24.6401 49.0881 24.5143 49.3888C24.3974 49.6894 24.3345 50.0431 24.3345 50.441C24.3345 50.7858 24.3794 51.0953 24.4783 51.3871M23.2738 46.3294C23.1389 46.2144 22.9861 46.1525 22.8153 46.1525C22.6445 46.1525 22.4737 46.2144 22.3479 46.3294C22.2131 46.4443 22.1501 46.6035 22.1501 46.8068C22.1501 47.0102 22.2131 47.1605 22.3479 47.2755C22.4737 47.3904 22.6355 47.4523 22.8153 47.4523C22.9951 47.4523 23.1479 47.3904 23.2738 47.2755C23.3996 47.1605 23.4715 47.0014 23.4715 46.8068C23.4715 46.6123 23.4086 46.4443 23.2738 46.3294ZM23.3457 48.1332H22.276V52.6869H23.3457V48.1332ZM17.2421 52.6869H18.3118V49.0174C18.3837 49.0085 18.4916 48.9909 18.6354 48.9732C18.7792 48.9555 18.923 48.9466 19.0579 48.9466C19.2376 48.9466 19.3995 48.9732 19.5253 49.0174C19.6512 49.0704 19.75 49.15 19.8219 49.2561C19.8939 49.3622 19.9478 49.5037 19.9838 49.6717C20.0197 49.8397 20.0287 50.0519 20.0287 50.2907V52.6869H21.0984V50.1315C21.0984 49.822 21.0714 49.5391 21.0085 49.2826C20.9456 49.0262 20.8377 48.8052 20.6939 48.6195C20.5411 48.4338 20.3433 48.2923 20.0916 48.1951C19.8399 48.0978 19.5253 48.0447 19.1478 48.0447C18.7432 48.0447 18.3837 48.0713 18.0511 48.1243C17.7185 48.1774 17.4488 48.2304 17.251 48.2923V52.6957L17.2421 52.6869ZM14.6891 52.6427C14.9948 52.5277 15.2465 52.3597 15.4442 52.1387C15.642 51.9265 15.7858 51.67 15.8847 51.3782C15.9836 51.0864 16.0285 50.7681 16.0285 50.4233V46.6565H14.9049V50.3172C14.9049 50.5913 14.8779 50.8212 14.815 51.0157C14.7521 51.2102 14.6622 51.3694 14.5543 51.4932C14.4374 51.617 14.3026 51.7054 14.1408 51.7585C13.979 51.8203 13.8082 51.8469 13.6104 51.8469C13.4127 51.8469 13.2419 51.8203 13.0891 51.7585C12.9363 51.6966 12.7924 51.6081 12.6846 51.4932C12.5677 51.3694 12.4778 51.2102 12.4149 51.0157C12.352 50.8212 12.325 50.5913 12.325 50.3172V46.6565H11.2014V50.4233C11.2014 50.7681 11.2463 51.0864 11.3452 51.3782C11.4351 51.67 11.5879 51.9176 11.7856 52.1387C11.9834 52.3509 12.2351 52.5189 12.5317 52.6427C12.8284 52.7576 13.188 52.8195 13.6104 52.8195C14.0329 52.8195 14.3925 52.7576 14.6981 52.6427" fill="black"/>
<path d="M85.9551 38.115H82.4403V38.9904H84.5708C84.409 39.1761 84.2292 39.3971 84.0224 39.6447C83.8157 39.8923 83.6179 40.1575 83.4112 40.4317C83.2044 40.7058 83.0066 40.9799 82.8089 41.254C82.6111 41.5281 82.4493 41.7757 82.3235 42.0144V42.6687H86V41.7933H83.6089C83.7887 41.5281 83.9865 41.2451 84.2022 40.9533C84.4179 40.6616 84.6427 40.3786 84.8584 40.1045C85.0742 39.8392 85.2809 39.5916 85.4697 39.3706C85.6585 39.1495 85.8203 38.9815 85.9371 38.8578V38.115H85.9551ZM78.7278 39.9365C78.7458 39.8039 78.7818 39.6712 78.8267 39.5474C78.8716 39.4236 78.9436 39.3087 79.0245 39.2114C79.1054 39.1142 79.2132 39.0346 79.3391 38.9727C79.4649 38.9108 79.6088 38.8843 79.7706 38.8843C79.9324 38.8843 80.0672 38.9108 80.1841 38.9639C80.3009 39.0169 80.3998 39.0965 80.4807 39.1938C80.5616 39.291 80.6245 39.406 80.6605 39.5298C80.6964 39.6624 80.7234 39.795 80.7234 39.9453H78.7368L78.7278 39.9365ZM77.757 41.3512C77.8469 41.6342 77.9997 41.8906 78.1885 42.1028C78.3862 42.315 78.6289 42.483 78.9346 42.598C79.2312 42.7218 79.5908 42.7748 79.9953 42.7748C80.1571 42.7748 80.3099 42.7748 80.4627 42.7483C80.6155 42.7306 80.7594 42.7129 80.8942 42.6864C81.029 42.6599 81.1459 42.6334 81.2448 42.598C81.3437 42.5626 81.4246 42.5361 81.4875 42.5096L81.3437 41.6519C81.2178 41.7049 81.047 41.7491 80.8313 41.8022C80.6155 41.8464 80.3818 41.8729 80.1211 41.8729C79.6807 41.8729 79.3391 41.7757 79.1054 41.5723C78.8716 41.3689 78.7458 41.086 78.7098 40.7234H81.7572C81.7572 40.6616 81.7662 40.5997 81.7751 40.5289C81.7751 40.4582 81.7751 40.3963 81.7751 40.3344C81.7751 39.5651 81.5954 38.9815 81.2448 38.5925C80.8852 38.2034 80.3908 38.0089 79.7526 38.0089C79.4829 38.0089 79.2132 38.062 78.9615 38.1592C78.7009 38.2565 78.4761 38.4156 78.2694 38.6102C78.0716 38.8135 77.9098 39.0611 77.784 39.3618C77.6671 39.6624 77.6042 40.0161 77.6042 40.414C77.6042 40.7588 77.6491 41.0683 77.748 41.3601M77.0019 38.115H73.4872V38.9904H75.6176C75.4558 39.1761 75.276 39.3971 75.0692 39.6447C74.8625 39.8923 74.6647 40.1575 74.458 40.4317C74.2512 40.7058 74.0535 40.9799 73.8557 41.254C73.6579 41.5281 73.4961 41.7757 73.3703 42.0144V42.6687H77.0469V41.7933H74.6557C74.8355 41.5281 75.0333 41.2451 75.249 40.9533C75.4737 40.6616 75.6895 40.3786 75.9052 40.1045C76.121 39.8392 76.3277 39.5916 76.5165 39.3706C76.7053 39.1495 76.8581 38.9815 76.9839 38.8578V38.115H77.0019ZM72.9298 38.1681C72.8759 38.1504 72.804 38.1327 72.7141 38.115C72.6242 38.0973 72.5343 38.0796 72.4354 38.062C72.3455 38.0443 72.2467 38.0354 72.1478 38.0266C72.0579 38.0266 71.968 38.0089 71.8961 38.0089C71.5185 38.0089 71.1769 38.0443 70.8623 38.1062C70.5567 38.1769 70.296 38.2476 70.0893 38.3184V42.651H71.159V39.0081C71.2129 38.9904 71.3028 38.9727 71.4376 38.9462C71.5725 38.9196 71.6983 38.9108 71.8152 38.9108C72.0219 38.9108 72.2017 38.9285 72.3545 38.955C72.5073 38.9904 72.6332 39.0169 72.7231 39.0434L72.9118 38.1592L72.9298 38.1681ZM68.9746 39.406C68.8667 39.1142 68.7049 38.8666 68.5072 38.6544C68.3004 38.451 68.0577 38.2919 67.7701 38.1769C67.4824 38.0708 67.1498 38.0089 66.7902 38.0089C66.4307 38.0089 66.0981 38.0354 65.7835 38.0885C65.4688 38.1415 65.1992 38.1946 64.9744 38.2565V44.2691H66.0441V42.5007C66.161 42.5626 66.3138 42.6245 66.4936 42.6776C66.6734 42.7306 66.8801 42.7571 67.0959 42.7571C67.4195 42.7571 67.7071 42.6952 67.9678 42.5803C68.2285 42.4654 68.4352 42.2974 68.606 42.094C68.7768 41.8818 68.9117 41.6342 69.0016 41.3424C69.0915 41.0506 69.1364 40.7323 69.1364 40.3874C69.1364 40.0426 69.0825 39.6889 68.9746 39.3971M67.7701 41.4573C67.5903 41.7226 67.3026 41.8464 66.9161 41.8464C66.7363 41.8464 66.5745 41.8199 66.4127 41.7668C66.2599 41.7138 66.134 41.6519 66.0351 41.59V38.9904C66.143 38.9639 66.2509 38.9462 66.3588 38.9373C66.4666 38.9373 66.5745 38.9285 66.6734 38.9285C67.1498 38.9285 67.5004 39.0611 67.7161 39.3175C67.9319 39.5828 68.0397 39.9453 68.0397 40.414C68.0397 40.8561 67.9498 41.2098 67.7701 41.4662M58.6551 39.9365C58.673 39.8039 58.7 39.6712 58.7539 39.5474C58.7989 39.4236 58.8708 39.3087 58.9517 39.2114C59.0416 39.1142 59.1405 39.0346 59.2663 38.9727C59.3922 38.9108 59.536 38.8843 59.6978 38.8843C59.8596 38.8843 59.9944 38.9108 60.1113 38.9639C60.2282 39.0169 60.327 39.0965 60.3989 39.1938C60.4799 39.291 60.5428 39.406 60.5787 39.5298C60.6237 39.6624 60.6417 39.795 60.6417 39.9453H58.6551V39.9365ZM57.6842 41.3512C57.7741 41.6342 57.9179 41.8906 58.1157 42.1028C58.3135 42.315 58.5562 42.483 58.8618 42.598C59.1584 42.7218 59.518 42.7748 59.9225 42.7748C60.0843 42.7748 60.2371 42.7748 60.39 42.7483C60.5428 42.7306 60.6866 42.7129 60.8214 42.6864C60.9563 42.6599 61.0731 42.6334 61.172 42.598C61.2799 42.5626 61.3608 42.5361 61.4147 42.5096L61.2709 41.6519C61.1451 41.7049 60.9832 41.7491 60.7585 41.8022C60.5428 41.8464 60.3091 41.8729 60.0484 41.8729C59.6079 41.8729 59.2663 41.7757 59.0326 41.5723C58.7989 41.3689 58.673 41.086 58.6371 40.7234H61.6844C61.6844 40.6616 61.6934 40.5997 61.7024 40.5289C61.7024 40.4582 61.7024 40.3963 61.7024 40.3344C61.7024 39.5651 61.5226 38.9815 61.163 38.5925C60.8035 38.2034 60.3091 38.0089 59.6708 38.0089C59.4012 38.0089 59.1315 38.062 58.8708 38.1592C58.6101 38.2565 58.3854 38.4156 58.1786 38.6102C57.9809 38.8135 57.8191 39.0611 57.6932 39.3618C57.5764 39.6624 57.5134 40.0161 57.5134 40.414C57.5134 40.7588 57.5584 41.0683 57.6573 41.3601M52.7492 42.6599H53.8189V38.9904C53.8908 38.9815 53.9987 38.9639 54.1425 38.9462C54.2863 38.9285 54.4302 38.9196 54.565 38.9196C54.7448 38.9196 54.9066 38.9462 55.0324 38.9904C55.1583 39.0346 55.2572 39.1142 55.3291 39.2291C55.401 39.3352 55.4549 39.4767 55.4909 39.6447C55.5268 39.8127 55.5358 40.0249 55.5358 40.2637V42.6599H56.6055V40.1045C56.6055 39.795 56.5786 39.5121 56.5156 39.2556C56.4527 38.9992 56.3448 38.7782 56.192 38.5925C56.0392 38.4068 55.8415 38.2653 55.5898 38.1681C55.3381 38.0708 55.0234 38.0177 54.6459 38.0177C54.2414 38.0177 53.8818 38.0443 53.5492 38.0973C53.2166 38.1504 52.9469 38.2034 52.7402 38.2653V42.6687L52.7492 42.6599ZM48.8659 38.0708C48.6052 38.115 48.4074 38.1681 48.2726 38.2123L48.4074 39.0611C48.5333 39.0169 48.7041 38.9727 48.9108 38.9373C49.1176 38.902 49.3423 38.8843 49.594 38.8843C49.7738 38.8843 49.9266 38.9108 50.0524 38.955C50.1783 38.9992 50.2682 39.07 50.3401 39.1495C50.412 39.238 50.4659 39.3352 50.4929 39.4413C50.5199 39.5474 50.5379 39.6712 50.5379 39.7862V39.963C50.394 39.9277 50.2502 39.9011 50.1244 39.8923C49.9895 39.8746 49.8727 39.8746 49.7558 39.8746C49.5041 39.8746 49.2614 39.9011 49.0277 39.9453C48.794 39.9984 48.5872 40.078 48.4164 40.1929C48.2366 40.3079 48.1018 40.4493 47.9939 40.635C47.8951 40.8119 47.8411 41.0329 47.8411 41.2982C47.8411 41.5723 47.8861 41.8022 47.9759 41.9879C48.0658 42.1736 48.1917 42.3239 48.3535 42.4388C48.5153 42.5538 48.7131 42.6422 48.9378 42.6952C49.1715 42.7483 49.4232 42.7748 49.7019 42.7748C50.1244 42.7748 50.4929 42.7483 50.8345 42.7041C51.1671 42.6599 51.4188 42.6157 51.5806 42.5803V39.8215C51.5806 39.5563 51.5446 39.3087 51.4907 39.0876C51.4278 38.8666 51.3289 38.6721 51.1761 38.5217C51.0323 38.3626 50.8345 38.2388 50.6008 38.1592C50.3581 38.0708 50.0614 38.0266 49.7109 38.0266C49.4142 38.0266 49.1356 38.0531 48.8839 38.0973M49.1356 41.7757C48.9737 41.6784 48.8928 41.5104 48.8928 41.254C48.8928 41.1302 48.9198 41.0241 48.9827 40.9357C49.0457 40.8472 49.1176 40.7853 49.2165 40.7411C49.3153 40.6969 49.4232 40.6616 49.5401 40.6439C49.6569 40.6262 49.7828 40.6173 49.8996 40.6173C50.0345 40.6173 50.1603 40.6262 50.2682 40.6439C50.3761 40.6616 50.4659 40.6792 50.5289 40.6969V41.8641C50.3581 41.8995 50.1064 41.9171 49.7738 41.9171C49.5041 41.9171 49.2884 41.8729 49.1266 41.7757M44.605 41.2893C44.7668 41.7757 44.9196 42.2266 45.0814 42.6599H45.9534C46.0792 42.3946 46.2051 42.0851 46.3309 41.7491C46.4568 41.4043 46.5916 41.0418 46.7175 40.6527C46.8433 40.2637 46.9782 39.8569 47.104 39.4236C47.2299 38.9992 47.3647 38.5571 47.4816 38.1062H46.3759C46.3219 38.3537 46.259 38.6102 46.1871 38.8931C46.1152 39.1761 46.0433 39.459 45.9624 39.7508C45.8815 40.0426 45.8006 40.3255 45.7197 40.6085C45.6388 40.8826 45.5579 41.139 45.477 41.3778C45.3871 41.1125 45.2972 40.8384 45.2163 40.5554C45.1354 40.2725 45.0545 39.9895 44.9736 39.7066C44.9017 39.4236 44.8298 39.1495 44.7668 38.8754C44.7039 38.6102 44.641 38.3537 44.587 38.115H43.76C43.7061 38.3537 43.6432 38.6102 43.5803 38.8754C43.5173 39.1495 43.4364 39.4236 43.3645 39.7066C43.2836 39.9895 43.2027 40.2725 43.1218 40.5554C43.0319 40.8384 42.951 41.1125 42.8611 41.3778C42.7802 41.1479 42.6993 40.8914 42.6094 40.6085C42.5285 40.3255 42.4476 40.0426 42.3667 39.7508C42.2858 39.459 42.2139 39.1672 42.142 38.8931C42.0701 38.6102 42.0072 38.3537 41.9532 38.1062H40.8206C40.9464 38.5571 41.0723 38.9904 41.1981 39.4236C41.324 39.8569 41.4588 40.2637 41.5847 40.6527C41.7105 41.0418 41.8454 41.4043 41.9712 41.7491C42.106 42.094 42.2229 42.3946 42.3398 42.6599H43.2207C43.3735 42.2266 43.5263 41.7757 43.6881 41.2893C43.8409 40.803 43.9938 40.3079 44.1286 39.795C44.2634 40.3079 44.4162 40.803 44.5781 41.2893M39.0947 41.4662C38.8969 41.7315 38.6183 41.8641 38.2677 41.8641C37.9171 41.8641 37.6384 41.7315 37.4407 41.4662C37.2429 41.2009 37.144 40.8384 37.144 40.3786C37.144 39.9188 37.2429 39.5651 37.4407 39.3087C37.6384 39.0434 37.9171 38.9108 38.2677 38.9108C38.6183 38.9108 38.8969 39.0434 39.0947 39.3087C39.2924 39.574 39.3913 39.9277 39.3913 40.3786C39.3913 40.8296 39.2924 41.2009 39.0947 41.4662ZM40.3262 39.406C40.2183 39.1142 40.0655 38.8666 39.8677 38.6544C39.67 38.4422 39.4363 38.283 39.1666 38.1681C38.8969 38.0531 38.5913 38.0001 38.2677 38.0001C37.9441 38.0001 37.6474 38.0531 37.3777 38.1681C37.1081 38.283 36.8744 38.4422 36.6766 38.6544C36.4788 38.8666 36.326 39.1142 36.2181 39.406C36.1103 39.6978 36.0563 40.0249 36.0563 40.3874C36.0563 40.75 36.1103 41.0771 36.2181 41.3689C36.326 41.6696 36.4788 41.9171 36.6766 42.1294C36.8744 42.3416 37.1081 42.5007 37.3777 42.6157C37.6474 42.7306 37.9531 42.7925 38.2767 42.7925C38.6003 42.7925 38.9059 42.7306 39.1846 42.6157C39.4632 42.5007 39.6969 42.3327 39.8857 42.1294C40.0835 41.9171 40.2273 41.6696 40.3352 41.3689C40.443 41.0771 40.497 40.75 40.497 40.3874C40.497 40.0249 40.443 39.6978 40.3352 39.406M32.7573 41.8199C32.5326 41.758 32.3438 41.7049 32.191 41.6342L32.0022 42.5184C32.1011 42.5538 32.2809 42.6157 32.5236 42.6776C32.7663 42.7395 33.0989 42.7748 33.5034 42.7748C34.1147 42.7748 34.5821 42.6599 34.9057 42.4388C35.2293 42.2178 35.4001 41.8818 35.4001 41.4485C35.4001 41.2451 35.3732 41.0683 35.3192 40.9268C35.2653 40.7853 35.1844 40.6527 35.0675 40.5378C34.9507 40.4228 34.8069 40.3255 34.6271 40.2283C34.4473 40.1399 34.2315 40.0426 33.9799 39.9542C33.827 39.9011 33.6922 39.8481 33.5933 39.8039C33.4854 39.7597 33.4045 39.7066 33.3416 39.6535C33.2787 39.6005 33.2338 39.5474 33.2068 39.4944C33.1798 39.4325 33.1618 39.3706 33.1618 39.291C33.1618 39.1407 33.2338 39.0258 33.3686 38.955C33.5034 38.8843 33.6832 38.8489 33.899 38.8489C34.1417 38.8489 34.3574 38.8666 34.5372 38.9108C34.717 38.955 34.8698 38.9992 34.9866 39.0523L35.1844 38.2034C35.0586 38.1592 34.8788 38.1062 34.6271 38.062C34.3754 38.0177 34.1237 37.9912 33.845 37.9912C33.3057 37.9912 32.8832 38.115 32.5686 38.3537C32.2539 38.5925 32.1011 38.9196 32.1011 39.3441C32.1011 39.5563 32.1371 39.742 32.2 39.8834C32.2719 40.0338 32.3618 40.1575 32.4787 40.2637C32.5955 40.3698 32.7394 40.4582 32.9012 40.5378C33.063 40.6173 33.2427 40.6881 33.4405 40.7588C33.7551 40.8738 33.9888 40.9799 34.1237 41.0771C34.2585 41.1744 34.3304 41.2982 34.3304 41.4485C34.3304 41.6077 34.2675 41.7226 34.1327 41.7933C34.0068 41.8641 33.8001 41.8906 33.5124 41.8906C33.2248 41.8906 32.9731 41.8641 32.7573 41.8022M27.2829 42.6599H28.3526V38.9904C28.4246 38.9815 28.5324 38.9639 28.6763 38.9462C28.8201 38.9285 28.9639 38.9196 29.0987 38.9196C29.2785 38.9196 29.4403 38.9462 29.5662 38.9904C29.692 39.0346 29.7909 39.1142 29.8628 39.2291C29.9347 39.3352 29.9887 39.4767 30.0246 39.6447C30.0606 39.8127 30.0696 40.0249 30.0696 40.2637V42.6599H31.1393V40.1045C31.1393 39.795 31.1123 39.5121 31.0494 39.2556C30.9865 38.9992 30.8786 38.7782 30.7348 38.5925C30.582 38.4068 30.3842 38.2653 30.1325 38.1681C29.8808 38.0708 29.5662 38.0177 29.1886 38.0177C28.7841 38.0177 28.4246 38.0443 28.092 38.0973C27.7594 38.1504 27.4897 38.2034 27.2919 38.2653V42.6687L27.2829 42.6599ZM23.3996 38.0708C23.1389 38.115 22.9412 38.1681 22.8063 38.2123L22.9412 39.0611C23.067 39.0169 23.2378 38.9727 23.4446 38.9373C23.6513 38.902 23.8761 38.8843 24.1278 38.8843C24.3075 38.8843 24.4603 38.9108 24.5862 38.955C24.7031 38.9992 24.8019 39.07 24.8738 39.1495C24.9458 39.2291 24.9997 39.3352 25.0267 39.4413C25.0536 39.5474 25.0716 39.6712 25.0716 39.7862V39.963C24.9278 39.9277 24.784 39.9011 24.6581 39.8923C24.5323 39.8746 24.4064 39.8746 24.2896 39.8746C24.0379 39.8746 23.7952 39.9011 23.5614 39.9453C23.3277 39.9984 23.121 40.078 22.9502 40.1929C22.7704 40.3079 22.6355 40.4493 22.5277 40.635C22.4288 40.8119 22.3749 41.0329 22.3749 41.2982C22.3749 41.5723 22.4198 41.8022 22.5097 41.9879C22.5996 42.1736 22.7254 42.3239 22.8872 42.4388C23.0491 42.5538 23.2468 42.6422 23.4715 42.6952C23.7053 42.7483 23.957 42.7748 24.2356 42.7748C24.6491 42.7748 25.0267 42.7483 25.3593 42.7041C25.6919 42.6599 25.9436 42.6157 26.1054 42.5803V39.8215C26.1054 39.5563 26.0694 39.3087 26.0155 39.0876C25.9525 38.8666 25.8537 38.6721 25.7098 38.5217C25.566 38.3626 25.3683 38.2388 25.1345 38.1592C24.8918 38.0708 24.5952 38.0266 24.2446 38.0266C23.948 38.0266 23.6693 38.0531 23.4086 38.0973M23.6783 41.7757C23.5165 41.6784 23.4356 41.5104 23.4356 41.254C23.4356 41.1302 23.4626 41.0241 23.5255 40.9357C23.5884 40.8472 23.6603 40.7853 23.7592 40.7411C23.8581 40.6969 23.9659 40.6616 24.0828 40.6439C24.2087 40.6262 24.3255 40.6173 24.4424 40.6173C24.5772 40.6173 24.7031 40.6262 24.8109 40.6439C24.9188 40.6616 25.0087 40.6792 25.0716 40.6969V41.8641C24.9008 41.8995 24.6491 41.9171 24.3165 41.9171C24.0468 41.9171 23.8311 41.8729 23.6693 41.7757M17.6556 42.6599H18.7253V38.9904C18.7972 38.9815 18.9051 38.9639 19.0489 38.9462C19.1927 38.9285 19.3365 38.9196 19.4714 38.9196C19.6512 38.9196 19.813 38.9462 19.9388 38.9904C20.0647 39.0346 20.1635 39.1142 20.2354 39.2291C20.3074 39.3352 20.3613 39.4767 20.3973 39.6447C20.4332 39.8127 20.4422 40.0249 20.4422 40.2637V42.6599H21.5119V40.1045C21.5119 39.795 21.476 39.5121 21.422 39.2556C21.3591 38.9992 21.2512 38.7782 21.0984 38.5925C20.9456 38.4068 20.7478 38.2653 20.4961 38.1681C20.2444 38.0708 19.9298 38.0177 19.5523 38.0177C19.1478 38.0177 18.7882 38.0443 18.4556 38.0973C18.123 38.1504 17.8533 38.2034 17.6556 38.2653V42.6687V42.6599ZM12.2261 36.4085C11.9115 36.7356 11.7587 37.2043 11.7587 37.7879V42.6599H12.8284V38.9904H14.5273V38.115H12.8284V37.8055C12.8284 37.5137 12.8913 37.2662 13.0262 37.0805C13.161 36.8948 13.4037 36.7975 13.7543 36.7975C13.8891 36.7975 14.015 36.8064 14.1318 36.8329C14.2487 36.8594 14.3476 36.886 14.4285 36.9125L14.5993 36.0636C14.5094 36.0283 14.3925 35.9929 14.2307 35.9575C14.0779 35.9222 13.8801 35.9045 13.6644 35.9045C13.0172 35.9045 12.5407 36.0725 12.2351 36.3996M16.3342 36.3024C16.2083 36.1874 16.0465 36.1255 15.8757 36.1255C15.7049 36.1255 15.5341 36.1874 15.4083 36.3024C15.2734 36.4173 15.2105 36.5765 15.2105 36.7798C15.2105 36.9832 15.2734 37.1335 15.4083 37.2485C15.5341 37.3634 15.6959 37.4253 15.8757 37.4253C16.0555 37.4253 16.2083 37.3634 16.3342 37.2485C16.46 37.1335 16.5319 36.9744 16.5319 36.7798C16.5319 36.5853 16.469 36.4173 16.3342 36.3024ZM16.4061 38.115H15.3364V42.6687H16.4061V38.115ZM9.45746 41.4662C9.2597 41.7315 8.98104 41.8641 8.63046 41.8641C8.27989 41.8641 8.00122 41.7315 7.80346 41.4662C7.6057 41.2009 7.50682 40.8384 7.50682 40.3786C7.50682 39.9188 7.6057 39.5651 7.80346 39.3087C8.00122 39.0434 8.27989 38.9108 8.63046 38.9108C8.98104 38.9108 9.2597 39.0434 9.45746 39.3087C9.65523 39.574 9.75411 39.9277 9.75411 40.3786C9.75411 40.8296 9.65523 41.2009 9.45746 41.4662ZM10.689 39.406C10.5811 39.1142 10.4283 38.8666 10.2305 38.6544C10.0328 38.4422 9.79905 38.283 9.52938 38.1681C9.2597 38.0531 8.95407 38.0001 8.63046 38.0001C8.30685 38.0001 8.01021 38.0531 7.74054 38.1681C7.47086 38.283 7.23714 38.4422 7.03938 38.6544C6.84162 38.8666 6.68881 39.1142 6.58094 39.406C6.47307 39.6978 6.41913 40.0249 6.41913 40.3874C6.41913 40.75 6.47307 41.0771 6.58094 41.3689C6.68881 41.6696 6.84162 41.9171 7.03938 42.1294C7.23714 42.3416 7.47086 42.5007 7.74054 42.6157C8.01021 42.7306 8.31584 42.7925 8.63945 42.7925C8.96306 42.7925 9.26869 42.7306 9.54736 42.6157C9.82602 42.5007 10.0597 42.3327 10.2485 42.1294C10.4463 41.9171 10.5901 41.6696 10.698 41.3689C10.8058 41.0771 10.8598 40.75 10.8598 40.3874C10.8598 40.0249 10.8058 39.6978 10.698 39.406M5.34943 38.2653C5.18762 37.8763 4.9539 37.558 4.64827 37.3104C4.34264 37.054 3.98307 36.8683 3.56058 36.7533C3.13809 36.6384 2.67066 36.5765 2.14929 36.5765C1.90658 36.5765 1.61893 36.5853 1.30431 36.603C0.98969 36.6207 0.684059 36.6649 0.405396 36.7268V42.5803C0.693048 42.6422 0.98969 42.6864 1.29532 42.7041C1.60994 42.7218 1.8886 42.7395 2.13131 42.7395C2.65268 42.7395 3.12012 42.6776 3.5516 42.5538C3.98308 42.43 4.34264 42.2355 4.64827 41.979C4.9539 41.7226 5.18762 41.3954 5.34943 41.0152C5.51123 40.6262 5.60112 40.1752 5.60112 39.6535C5.60112 39.1319 5.52022 38.6632 5.34943 38.2742M1.51106 37.5491C1.65489 37.5314 1.8886 37.5226 2.2212 37.5226C2.97629 37.5226 3.53362 37.7083 3.89318 38.0708C4.25275 38.4333 4.43253 38.9639 4.43253 39.6447C4.43253 40.3255 4.25275 40.8384 3.88419 41.2186C3.51564 41.5988 2.95831 41.7845 2.21221 41.7845C2.03243 41.7845 1.8886 41.7845 1.78073 41.7845C1.67286 41.7845 1.59196 41.7845 1.52904 41.7757V37.5668L1.51106 37.5491Z" fill="black"/>
<path d="M66.134 0.518166H20.2714V30.5992H66.134V0.518166Z" fill="#164194"/>
<path d="M43.2027 4.09924L43.5803 5.23103H44.7848L43.805 5.92956L44.1825 7.06136L43.2027 6.36283L42.2229 7.06136L42.6004 5.92956L41.6206 5.23103H42.8252L43.2027 4.09924Z" fill="#FFED00"/>
<path d="M43.2027 23.941L43.5803 25.0728H44.7848L43.805 25.7802L44.1825 26.912L43.2027 26.2046L42.2229 26.912L42.6004 25.7802L41.6206 25.0728H42.8252L43.2027 23.941Z" fill="#FFED00"/>
<path d="M33.1978 13.9759L33.5664 15.1077H34.7799L33.8001 15.8063L34.1776 16.938L33.1978 16.2395L32.218 16.938L32.5865 15.8063L31.6067 15.1077H32.8203L33.1978 13.9759Z" fill="#FFED00"/>
<path d="M53.2166 13.9759L53.5852 15.1077H54.7987L53.8189 15.8063L54.1875 16.938L53.2166 16.2395L52.2368 16.938L52.6054 15.8063L51.6255 15.1077H52.8391L53.2166 13.9759Z" fill="#FFED00"/>
<path d="M48.1917 5.46093L48.5602 6.59272H49.7738L48.794 7.29126L49.1715 8.43189L48.1917 7.72452L47.2119 8.43189L47.5804 7.29126L46.6006 6.59272H47.8141L48.1917 5.46093Z" fill="#FFED00"/>
<path d="M38.2227 5.46093L38.5913 6.59272H39.8048L38.825 7.29126L39.2025 8.43189L38.2227 7.72452L37.2429 8.43189L37.6115 7.29126L36.6317 6.59272H37.8452L38.2227 5.46093Z" fill="#FFED00"/>
<path d="M48.1917 22.4998L48.5602 23.6316H49.7738L48.794 24.3301L49.1715 25.4619L48.1917 24.7634L47.2119 25.4619L47.5804 24.3301L46.6006 23.6316H47.8141L48.1917 22.4998Z" fill="#FFED00"/>
<path d="M38.2227 22.4998L38.5913 23.6316H39.8048L38.825 24.3301L39.2025 25.4619L38.2227 24.7634L37.2429 25.4619L37.6115 24.3301L36.6317 23.6316H37.8452L38.2227 22.4998Z" fill="#FFED00"/>
<path d="M51.8593 9.02432L52.2278 10.1561H53.4414L52.4615 10.8546L52.8391 11.9864L51.8593 11.2879L50.8795 11.9864L51.248 10.8546L50.2682 10.1561H51.4817L51.8593 9.02432Z" fill="#FFED00"/>
<path d="M34.5462 9.02432L34.9237 10.1561H36.1372L35.1574 10.8546L35.526 11.9864L34.5462 11.2879L33.5753 11.9864L33.9439 10.8546L32.9641 10.1561H34.1776L34.5462 9.02432Z" fill="#FFED00"/>
<path d="M51.8593 18.8745L52.2278 20.0151H53.4414L52.4615 20.7136L52.8391 21.8454L51.8593 21.1469L50.8795 21.8454L51.248 20.7136L50.2682 20.0151H51.4817L51.8593 18.8745Z" fill="#FFED00"/>
<path d="M34.5462 18.8745L34.9237 20.0151H36.1372L35.1574 20.7136L35.526 21.8454L34.5462 21.1469L33.5753 21.8454L33.9439 20.7136L32.9641 20.0151H34.1776L34.5462 18.8745Z" fill="#FFED00"/>
</svg>
