<svg width="47" height="31" viewBox="0 0 47 31" fill="none" xmlns="http://www.w3.org/2000/svg">
<path d="M46.134 0.518166H0.271408V30.5992H46.134V0.518166Z" fill="#164194"/>
<path d="M23.2027 4.09924L23.5803 5.23103H24.7848L23.805 5.92956L24.1825 7.06136L23.2027 6.36283L22.2229 7.06136L22.6004 5.92956L21.6206 5.23103H22.8252L23.2027 4.09924Z" fill="#FFED00"/>
<path d="M23.2027 23.941L23.5803 25.0728H24.7848L23.805 25.7802L24.1825 26.912L23.2027 26.2046L22.2229 26.912L22.6004 25.7802L21.6206 25.0728H22.8252L23.2027 23.941Z" fill="#FFED00"/>
<path d="M13.1978 13.9759L13.5664 15.1077H14.7799L13.8001 15.8063L14.1776 16.938L13.1978 16.2395L12.218 16.938L12.5865 15.8063L11.6067 15.1077H12.8203L13.1978 13.9759Z" fill="#FFED00"/>
<path d="M33.2166 13.9759L33.5852 15.1077H34.7987L33.8189 15.8063L34.1875 16.938L33.2166 16.2395L32.2368 16.938L32.6054 15.8063L31.6255 15.1077H32.8391L33.2166 13.9759Z" fill="#FFED00"/>
<path d="M28.1917 5.46093L28.5602 6.59272H29.7738L28.794 7.29126L29.1715 8.43189L28.1917 7.72452L27.2119 8.43189L27.5804 7.29126L26.6006 6.59272H27.8141L28.1917 5.46093Z" fill="#FFED00"/>
<path d="M18.2227 5.46093L18.5913 6.59272H19.8048L18.825 7.29126L19.2025 8.43189L18.2227 7.72452L17.2429 8.43189L17.6115 7.29126L16.6317 6.59272H17.8452L18.2227 5.46093Z" fill="#FFED00"/>
<path d="M28.1917 22.4998L28.5602 23.6316H29.7738L28.794 24.3301L29.1715 25.4619L28.1917 24.7634L27.2119 25.4619L27.5804 24.3301L26.6006 23.6316H27.8141L28.1917 22.4998Z" fill="#FFED00"/>
<path d="M18.2227 22.4998L18.5913 23.6316H19.8048L18.825 24.3301L19.2025 25.4619L18.2227 24.7634L17.2429 25.4619L17.6115 24.3301L16.6317 23.6316H17.8452L18.2227 22.4998Z" fill="#FFED00"/>
<path d="M31.8593 9.02432L32.2278 10.1561H33.4414L32.4615 10.8546L32.8391 11.9864L31.8593 11.2879L30.8795 11.9864L31.248 10.8546L30.2682 10.1561H31.4817L31.8593 9.02432Z" fill="#FFED00"/>
<path d="M14.5462 9.02432L14.9237 10.1561H16.1372L15.1574 10.8546L15.526 11.9864L14.5462 11.2879L13.5753 11.9864L13.9439 10.8546L12.9641 10.1561H14.1776L14.5462 9.02432Z" fill="#FFED00"/>
<path d="M31.8593 18.8745L32.2278 20.0151H33.4414L32.4615 20.7136L32.8391 21.8454L31.8593 21.1469L30.8795 21.8454L31.248 20.7136L30.2682 20.0151H31.4817L31.8593 18.8745Z" fill="#FFED00"/>
<path d="M14.5462 18.8745L14.9237 20.0151H16.1372L15.1574 20.7136L15.526 21.8454L14.5462 21.1469L13.5753 21.8454L13.9439 20.7136L12.9641 20.0151H14.1776L14.5462 18.8745Z" fill="#FFED00"/>
</svg>
