<svg width="61" height="60" viewBox="0 0 61 60" fill="none" xmlns="http://www.w3.org/2000/svg">
<path d="M21.9 6C17.464 6 15.8 5.285 14.4 3C14.4 3 12.4 5.244 12.4 7.782C12.4 9.506 13.484 11.347 15.4 12.314V18C15.4 20.649 16.873 22.954 19.043 24.143L18.4 27C18.4 27 20.4 28 22.4 28C24.4 28 26.4 27 26.4 27L25.757 24.143C27.927 22.954 29.4 20.649 29.4 18V13.5C29.4 9.357 26.043 6 21.9 6Z" fill="black"/>
<path d="M40.4 44.0001H44.4C44.4 41.5811 42.682 39.5641 40.4 39.1011V44.0001Z" fill="black"/>
<path d="M39.5131 46L36.4821 48.046C37.3051 48.64 38.3081 49 39.4001 49C41.4491 49 43.2061 47.765 43.9781 46H39.5131Z" fill="black"/>
<path d="M38.4 44.3381V39.1011C36.118 39.5651 34.4 41.5811 34.4 44.0001C34.4 44.9371 34.673 45.8021 35.121 46.5511L38.4 44.3381Z" fill="black"/>
<path d="M27.4 40C27.4 39.447 27.847 39 28.4 39H32.4C32.953 39 33.4 39.447 33.4 40C33.4 40.553 32.953 41 32.4 41H28.4C27.847 41 27.4 40.553 27.4 40Z" fill="black"/>
<path d="M27.4 44C27.4 43.447 27.847 43 28.4 43H31.4C31.953 43 32.4 43.447 32.4 44C32.4 44.553 31.953 45 31.4 45H28.4C27.847 45 27.4 44.553 27.4 44Z" fill="black"/>
<path d="M22.4 46.9999H14.4V40.9999C14.4 40.4469 14.847 39.9999 15.4 39.9999C15.953 39.9999 16.4 40.4469 16.4 40.9999V44.9999H20.4V36.9999C20.4 34.2429 22.643 31.9999 25.4 31.9999H34.74C34.184 31.2049 33.49 30.5059 32.666 29.9559C31.628 29.2639 30.018 28.6929 28.693 28.0959L27.295 28.7889C27.046 28.9129 24.802 29.9999 22.4 29.9999C19.998 29.9999 17.754 28.9129 17.505 28.7889L16.095 28.0989C14.775 28.6959 13.169 29.2659 12.134 29.9559C10.347 31.1489 9.13403 33.0189 8.74303 35.1339C8.16003 38.2829 7.39903 43.4559 7.40003 49.0089C7.40003 51.2129 9.19603 52.9999 11.4 52.9999H22.4C24.056 52.9999 25.4 51.6569 25.4 49.9999C25.4 48.3429 24.056 46.9999 22.4 46.9999Z" fill="black"/>
<path d="M49.4 53V37C49.4 35.343 48.056 34 46.4 34H25.4C23.744 34 22.4 35.343 22.4 37V45C23.53 45 24.562 45.391 25.4 46.025V37H46.4V53H26.375C25.461 54.207 24.027 55 22.4 55H20.4C20.4 56.657 21.744 58 23.4 58H48.4C50.056 58 51.4 56.657 51.4 55V53H49.4Z" fill="black"/>
<path d="M18.4 55H13.4V58H19.425C18.791 57.162 18.4 56.13 18.4 55Z" fill="black"/>
<path d="M52.4 6H35.4C34.296 6 33.4 6.896 33.4 8V25.465C33.4 26.313 34.088 27 34.935 27C35.238 27 35.535 26.91 35.787 26.742L41.4 23H52.4C53.504 23 54.4 22.104 54.4 21V8C54.4 6.896 53.504 6 52.4 6ZM37.4 11H46.4C46.953 11 47.4 11.447 47.4 12C47.4 12.553 46.953 13 46.4 13H37.4C36.847 13 36.4 12.553 36.4 12C36.4 11.447 36.847 11 37.4 11ZM50.4 18H37.4C36.847 18 36.4 17.553 36.4 17C36.4 16.447 36.847 16 37.4 16H50.4C50.953 16 51.4 16.447 51.4 17C51.4 17.553 50.953 18 50.4 18Z" fill="black"/>
</svg>
