<svg width="265" height="95" viewBox="0 0 265 95" fill="none" xmlns="http://www.w3.org/2000/svg">
<path d="M47.1003 94.9998L0 86.1225V15.256L47.1003 0.51123V94.9998Z" fill="#164194"/>
<path d="M0 69.0915V50.6891C2.35502 51.3368 5.0139 51.6416 6.76117 50.5748C10.5596 48.2888 16.3332 41.3164 16.3332 41.3164C16.3332 41.3164 13.2944 48.8222 14.434 51.6035C15.6495 54.5372 22.8285 54.6896 22.8285 54.6896C22.8285 54.6896 14.6999 59.6426 10.9014 62.9573C6.98908 66.3102 4.29221 78.6546 4.29221 78.6546C4.29221 78.6546 2.393 70.7679 0 69.0915Z" fill="#FFED00"/>
<path d="M47.1 36.6305C45.4667 37.6592 43.8713 38.4593 42.6558 38.6879C38.8574 39.4118 34.8311 35.0684 34.8311 35.0684C34.8311 35.0684 35.7807 41.4311 33.3877 45.3554C30.8808 49.5084 22.8281 54.69 22.8281 54.69C22.8281 54.69 31.7164 52.9755 33.4637 55.7187C35.2869 58.6905 35.5528 69.0538 35.5528 69.0538C35.5528 69.0538 40.0729 56.6331 44.2132 54.9186C45.0109 54.5757 46.0364 54.2709 47.1 53.9661V36.6305Z" fill="#E30613"/>
<path d="M16.3331 41.3543C16.3331 41.3543 20.8912 34.1915 20.6253 31.6387C20.3594 29.2384 15.6494 28.3621 15.6494 28.3621C15.6494 28.3621 21.8408 26.8381 24.5377 24.3997C27.1206 22.0375 29.3997 17.1606 29.3997 17.1606C29.3997 17.1606 29.9694 21.1993 32.2865 21.7708C34.6795 22.3804 41.0608 19.7896 41.0608 19.7896C41.0608 19.7896 36.0469 24.5521 34.0717 27.181C32.0206 29.8861 34.9074 35.0678 34.9074 35.0678C34.9074 35.0678 29.5516 33.2008 26.5888 33.7723C23.6641 34.3439 16.4091 41.3543 16.4091 41.3543" fill="white"/>
<path d="M64.7627 44.7837V30.5723H73.7269V32.7821H67.3456V36.4016H73.0052V38.6114H67.3456V44.7837H64.7627Z" fill="#1D1D1B"/>
<path d="M84.0591 44.4785C83.5653 44.5928 82.9575 44.7452 82.1979 44.8595C81.4382 44.9738 80.6025 45.05 79.6909 45.05C78.8173 45.05 78.0956 44.9357 77.5258 44.669C76.956 44.4404 76.5002 44.0975 76.1204 43.6403C75.7785 43.2212 75.5127 42.6878 75.3607 42.0782C75.2088 41.4686 75.1328 40.8209 75.1328 40.097V34.0772H77.6018V39.6779C77.6018 40.8209 77.7537 41.6591 78.0956 42.1544C78.4374 42.6497 79.0072 42.8783 79.8428 42.8783C80.1467 42.8783 80.4506 42.8783 80.7924 42.8402C81.1343 42.8402 81.3622 42.764 81.5521 42.7259V34.0391H84.0211V44.4404L84.0591 44.4785Z" fill="#1D1D1B"/>
<path d="M86.8691 34.4206C87.3629 34.2682 87.9707 34.1539 88.7304 34.0396C89.49 33.9253 90.3257 33.8491 91.2753 33.8491C92.1489 33.8491 92.8706 33.9634 93.4784 34.192C94.0481 34.4206 94.5419 34.7635 94.8838 35.1826C95.2256 35.6017 95.4915 36.1351 95.6055 36.7447C95.7574 37.3543 95.8334 38.002 95.8334 38.726V44.7458H93.3644V39.107C93.3644 38.5355 93.3644 38.0401 93.2505 37.6591C93.1745 37.24 93.0606 36.9352 92.8706 36.6685C92.7187 36.4018 92.4528 36.2494 92.1869 36.097C91.883 35.9827 91.5412 35.9065 91.1234 35.9065C90.8195 35.9065 90.4776 35.9065 90.1358 35.9827C89.7939 36.0208 89.528 36.0589 89.3761 36.097V44.7458H86.9071V34.3825L86.8691 34.4206Z" fill="#1D1D1B"/>
<path d="M107.571 44.479C107.077 44.6314 106.469 44.7838 105.709 44.8981C104.95 45.0124 104.19 45.0886 103.354 45.0886C102.519 45.0886 101.759 44.9743 101.075 44.7076C100.392 44.4409 99.822 44.0599 99.3661 43.6027C98.9103 43.1074 98.5305 42.5359 98.2646 41.8501C97.9987 41.1643 97.8848 40.4023 97.8848 39.5259C97.8848 38.6496 97.9987 37.9257 98.1886 37.2018C98.4165 36.516 98.7204 35.9064 99.1003 35.4111C99.5181 34.9158 100.012 34.5348 100.582 34.2681C101.151 34.0014 101.835 33.8871 102.595 33.8871C103.127 33.8871 103.582 33.9633 103.962 34.0776C104.342 34.1919 104.684 34.3443 104.988 34.4967V29.3532L107.457 28.9341V44.5171L107.571 44.479ZM100.506 39.4116C100.506 40.5166 100.772 41.3548 101.265 42.0025C101.797 42.6121 102.481 42.9169 103.392 42.9169C103.772 42.9169 104.114 42.9169 104.418 42.8788C104.684 42.8788 104.912 42.8026 105.102 42.7645V36.6303C104.874 36.4779 104.608 36.3255 104.228 36.2112C103.848 36.0969 103.468 36.0207 103.089 36.0207C102.177 36.0207 101.531 36.3255 101.113 36.9351C100.696 37.5447 100.506 38.3829 100.506 39.4497V39.4116Z" fill="#1D1D1B"/>
<path d="M119.157 44.4785C118.663 44.5928 118.055 44.7452 117.296 44.8595C116.536 44.9738 115.7 45.05 114.789 45.05C113.915 45.05 113.193 44.9357 112.623 44.669C112.054 44.4404 111.598 44.0975 111.218 43.6403C110.876 43.2212 110.61 42.6878 110.458 42.0782C110.306 41.4686 110.23 40.8209 110.23 40.097V34.0772H112.699V39.6779C112.699 40.8209 112.851 41.6591 113.193 42.1544C113.535 42.6497 114.105 42.8783 114.94 42.8783C115.244 42.8783 115.548 42.8783 115.89 42.8402C116.232 42.8402 116.46 42.764 116.65 42.7259V34.0391H119.119V44.4404L119.157 44.4785Z" fill="#1D1D1B"/>
<path d="M124.778 43.0313C125.423 43.0313 125.917 42.9551 126.221 42.8027C126.525 42.6503 126.677 42.3836 126.677 42.0026C126.677 41.6597 126.525 41.3549 126.183 41.1263C125.879 40.8977 125.347 40.631 124.588 40.3643C124.132 40.2119 123.714 40.0214 123.334 39.8309C122.954 39.6404 122.651 39.4499 122.347 39.1832C122.081 38.9546 121.853 38.6498 121.701 38.3068C121.549 37.9639 121.473 37.5448 121.473 37.0114C121.473 36.0208 121.853 35.2588 122.575 34.6873C123.296 34.1158 124.284 33.8491 125.499 33.8491C126.107 33.8491 126.715 33.9253 127.285 34.0396C127.854 34.1539 128.272 34.2682 128.576 34.3825L128.12 36.4018C127.854 36.2875 127.512 36.1732 127.095 36.0589C126.677 35.9446 126.183 35.9065 125.613 35.9065C125.119 35.9065 124.702 35.9827 124.398 36.1732C124.094 36.3256 123.942 36.5923 123.942 36.9733C123.942 37.1638 123.942 37.3162 124.018 37.4305C124.094 37.5448 124.17 37.6972 124.322 37.8115C124.474 37.9258 124.664 38.0401 124.93 38.1544C125.157 38.2687 125.461 38.3831 125.841 38.4974C126.411 38.726 126.943 38.9165 127.323 39.1451C127.74 39.3737 128.082 39.6023 128.348 39.869C128.614 40.1357 128.804 40.4405 128.918 40.7834C129.032 41.1263 129.108 41.5454 129.108 42.0026C129.108 43.0313 128.728 43.7933 127.968 44.3267C127.209 44.8601 126.145 45.1268 124.74 45.1268C123.79 45.1268 123.03 45.0506 122.461 44.8982C121.891 44.7458 121.473 44.6315 121.245 44.5172L121.663 42.4598C122.043 42.6122 122.461 42.7646 122.992 42.8789C123.486 43.0313 124.094 43.0694 124.74 43.0694L124.778 43.0313Z" fill="#1D1D1B"/>
<path d="M138.907 35.8302C138.641 36.135 138.262 36.5161 137.844 37.0495C137.388 37.5829 136.932 38.1544 136.438 38.764C135.945 39.3736 135.413 40.0594 134.919 40.7452C134.425 41.431 133.931 42.0787 133.552 42.7264H139.059V44.7838H130.551V43.2598C130.855 42.7264 131.234 42.1168 131.69 41.4691C132.146 40.8214 132.602 40.1737 133.096 39.526C133.59 38.8783 134.045 38.2687 134.501 37.6591C134.957 37.0495 135.375 36.5542 135.755 36.135H130.817V34.0776H138.945V35.8302H138.907Z" fill="#1D1D1B"/>
<path d="M140.313 39.4875C140.313 38.535 140.465 37.7349 140.731 37.011C140.997 36.2871 141.377 35.7156 141.833 35.2203C142.289 34.7631 142.82 34.3821 143.428 34.1534C144.036 33.9248 144.644 33.8105 145.251 33.8105C146.733 33.8105 147.872 34.2678 148.708 35.1822C149.544 36.0966 149.961 37.4682 149.961 39.297C149.961 39.4494 149.961 39.6018 149.961 39.7542C149.961 39.9066 149.961 40.0971 149.961 40.2114H142.896C142.972 41.0877 143.276 41.7354 143.808 42.1926C144.34 42.6498 145.137 42.9165 146.163 42.9165C146.771 42.9165 147.303 42.8784 147.796 42.7641C148.29 42.6498 148.67 42.5355 148.974 42.4212L149.316 44.4405C149.316 44.4405 148.974 44.5929 148.746 44.6691C148.518 44.7453 148.252 44.8215 147.91 44.8596C147.606 44.9358 147.265 44.9739 146.923 45.012C146.581 45.0501 146.201 45.0882 145.821 45.0882C144.872 45.0882 144.074 44.9358 143.352 44.6691C142.631 44.4024 142.099 43.9833 141.643 43.488C141.187 42.9927 140.845 42.3831 140.655 41.7354C140.427 41.0496 140.313 40.3257 140.313 39.5256V39.4875ZM147.454 38.3826C147.454 38.0397 147.417 37.7349 147.303 37.392C147.189 37.0872 147.075 36.8205 146.885 36.5919C146.695 36.3633 146.467 36.1728 146.201 36.0585C145.935 35.9442 145.631 35.868 145.251 35.868C144.872 35.868 144.53 35.9442 144.264 36.0966C143.96 36.249 143.732 36.4395 143.542 36.6681C143.352 36.8967 143.2 37.1634 143.086 37.4682C142.972 37.773 142.896 38.0778 142.858 38.3826H147.454Z" fill="#1D1D1B"/>
<path d="M158.963 44.7837V30.5723H168.041V32.7821H161.508V36.2873H167.319V38.4209H161.508V42.5738H168.535V44.7837H158.963Z" fill="#1D1D1B"/>
<path d="M179.209 44.4785C178.716 44.5928 178.108 44.7452 177.348 44.8595C176.589 44.9738 175.753 45.05 174.841 45.05C173.968 45.05 173.246 44.9357 172.676 44.669C172.106 44.4404 171.651 44.0975 171.271 43.6403C170.929 43.2212 170.663 42.6878 170.511 42.0782C170.359 41.4686 170.283 40.8209 170.283 40.097V34.0772H172.752V39.6779C172.752 40.8209 172.904 41.6591 173.246 42.1544C173.588 42.6497 174.158 42.8783 174.993 42.8783C175.297 42.8783 175.601 42.8783 175.943 42.8402C176.285 42.8402 176.513 42.764 176.703 42.7259V34.0391H179.171V44.4404L179.209 44.4785Z" fill="#1D1D1B"/>
<path d="M188.098 36.3256C187.908 36.2494 187.604 36.1732 187.262 36.097C186.882 36.0208 186.465 35.9827 186.009 35.9827C185.743 35.9827 185.439 35.9827 185.135 36.0589C184.831 36.097 184.603 36.1732 184.489 36.2113V44.7839H182.021V34.573C182.514 34.3825 183.084 34.2301 183.806 34.0777C184.527 33.9253 185.325 33.8491 186.199 33.8491C186.351 33.8491 186.541 33.8491 186.769 33.8491C186.996 33.8491 187.186 33.8872 187.414 33.9253C187.642 33.9253 187.832 34.0015 188.06 34.0396C188.25 34.0777 188.44 34.1158 188.554 34.192L188.136 36.2875L188.098 36.3256Z" fill="#1D1D1B"/>
<path d="M199.569 39.4118C199.569 40.25 199.455 41.012 199.189 41.7359C198.961 42.4217 198.582 43.0313 198.164 43.5266C197.708 44.0219 197.176 44.4029 196.53 44.6696C195.885 44.9363 195.201 45.0887 194.441 45.0887C193.682 45.0887 192.998 44.9363 192.352 44.6696C191.744 44.4029 191.175 44.0219 190.757 43.5266C190.301 43.0313 189.959 42.4217 189.693 41.7359C189.427 41.0501 189.313 40.25 189.313 39.4118C189.313 38.5736 189.427 37.8116 189.693 37.0877C189.959 36.4019 190.301 35.7923 190.757 35.297C191.213 34.8017 191.744 34.4207 192.39 34.154C193.036 33.8873 193.72 33.7729 194.441 33.7729C195.163 33.7729 195.885 33.8873 196.53 34.154C197.176 34.4207 197.708 34.8017 198.164 35.297C198.62 35.7923 198.961 36.3638 199.227 37.0877C199.493 37.7735 199.607 38.5355 199.607 39.4118H199.569ZM197.024 39.4118C197.024 38.345 196.796 37.5068 196.341 36.8972C195.885 36.2876 195.239 35.9828 194.441 35.9828C193.644 35.9828 192.998 36.2876 192.542 36.8972C192.086 37.5068 191.858 38.345 191.858 39.4118C191.858 40.4786 192.086 41.3549 192.542 41.9645C192.998 42.5741 193.644 42.917 194.441 42.917C195.239 42.917 195.885 42.6122 196.341 41.9645C196.796 41.3168 197.024 40.4786 197.024 39.4118Z" fill="#1D1D1B"/>
<path d="M211.495 39.4494C211.495 40.2876 211.381 41.0115 211.191 41.6973C210.963 42.3831 210.659 42.9546 210.279 43.4499C209.899 43.9452 209.406 44.3262 208.798 44.5929C208.19 44.8596 207.544 45.012 206.785 45.012C206.291 45.012 205.835 44.9358 205.379 44.8215C204.961 44.7072 204.62 44.5548 204.354 44.4024V48.5553H201.885V34.3821C202.379 34.2297 203.024 34.1153 203.746 34.001C204.468 33.8867 205.265 33.8105 206.063 33.8105C206.861 33.8105 207.658 33.9248 208.342 34.1916C209.026 34.4583 209.596 34.8393 210.051 35.2965C210.507 35.7918 210.887 36.3633 211.153 37.0491C211.419 37.7349 211.533 38.4969 211.533 39.3732L211.495 39.4494ZM208.95 39.4875C208.95 38.3826 208.684 37.5063 208.19 36.8967C207.696 36.2871 206.899 35.9823 205.797 35.9823C205.569 35.9823 205.341 35.9823 205.075 35.9823C204.81 35.9823 204.582 36.0585 204.316 36.0966V42.2307C204.544 42.3831 204.81 42.5355 205.189 42.6498C205.531 42.7641 205.949 42.8403 206.329 42.8403C207.241 42.8403 207.886 42.5355 208.304 41.9259C208.722 41.3163 208.912 40.4781 208.912 39.4494L208.95 39.4875Z" fill="#1D1D1B"/>
<path d="M213.205 39.4875C213.205 38.535 213.357 37.7349 213.623 37.011C213.889 36.2871 214.269 35.7156 214.724 35.2203C215.18 34.7631 215.712 34.3821 216.32 34.1534C216.928 33.9248 217.535 33.8105 218.143 33.8105C219.624 33.8105 220.764 34.2678 221.6 35.1822C222.435 36.0966 222.853 37.4682 222.853 39.297C222.853 39.4494 222.853 39.6018 222.853 39.7542C222.853 39.9066 222.853 40.0971 222.853 40.2114H215.788C215.864 41.0877 216.168 41.7354 216.7 42.1926C217.231 42.6498 218.029 42.9165 219.055 42.9165C219.662 42.9165 220.194 42.8784 220.688 42.7641C221.182 42.6498 221.562 42.5355 221.865 42.4212L222.207 44.4405C222.207 44.4405 221.865 44.5929 221.638 44.6691C221.41 44.7453 221.144 44.8215 220.802 44.8596C220.498 44.9358 220.156 44.9739 219.814 45.012C219.472 45.0501 219.093 45.0882 218.713 45.0882C217.763 45.0882 216.966 44.9358 216.244 44.6691C215.522 44.4024 214.99 43.9833 214.535 43.488C214.079 42.9927 213.737 42.3831 213.547 41.7354C213.319 41.0496 213.205 40.3257 213.205 39.5256V39.4875ZM220.384 38.3826C220.384 38.0397 220.346 37.7349 220.232 37.392C220.118 37.0872 220.004 36.8205 219.814 36.5919C219.624 36.3633 219.396 36.1728 219.131 36.0585C218.865 35.9442 218.561 35.868 218.181 35.868C217.801 35.868 217.459 35.9442 217.193 36.0966C216.89 36.249 216.662 36.4395 216.472 36.6681C216.282 36.8967 216.13 37.1634 216.016 37.4682C215.902 37.773 215.826 38.0778 215.788 38.3826H220.384Z" fill="#1D1D1B"/>
<path d="M223.879 48.5936C223.879 48.5936 223.461 48.5936 223.119 48.5555C222.815 48.5555 222.511 48.4412 222.283 48.365L222.625 46.3457C222.929 46.4219 223.271 46.4981 223.727 46.4981C224.296 46.4981 224.714 46.3457 224.942 46.0028C225.17 45.6599 225.284 45.1646 225.284 44.4788V34.0774H227.753V44.5169C227.753 45.9266 227.411 46.9553 226.765 47.603C226.12 48.2888 225.17 48.5936 223.917 48.5936H223.879ZM227.981 30.9532C227.981 31.4104 227.829 31.7914 227.525 32.0581C227.221 32.3248 226.879 32.4772 226.461 32.4772C226.044 32.4772 225.664 32.3248 225.36 32.0581C225.056 31.7914 224.904 31.4104 224.904 30.9532C224.904 30.496 225.056 30.115 225.36 29.8102C225.664 29.5435 226.006 29.3911 226.461 29.3911C226.917 29.3911 227.221 29.5435 227.525 29.8102C227.829 30.0769 227.981 30.4579 227.981 30.9532Z" fill="#1D1D1B"/>
<path d="M233.298 43.0313C233.944 43.0313 234.438 42.9551 234.742 42.8027C235.045 42.6503 235.197 42.3836 235.197 42.0026C235.197 41.6597 235.045 41.3549 234.704 41.1263C234.4 40.8977 233.868 40.631 233.108 40.3643C232.652 40.2119 232.235 40.0214 231.855 39.8309C231.475 39.6404 231.171 39.4499 230.867 39.1832C230.601 38.9546 230.373 38.6498 230.221 38.3068C230.069 37.9639 229.994 37.5448 229.994 37.0114C229.994 36.0208 230.373 35.2588 231.095 34.6873C231.817 34.1158 232.804 33.8491 234.02 33.8491C234.628 33.8491 235.235 33.9253 235.805 34.0396C236.375 34.1539 236.793 34.2682 237.097 34.3825L236.641 36.4018C236.375 36.2875 236.033 36.1732 235.615 36.0589C235.197 35.9446 234.704 35.9065 234.134 35.9065C233.64 35.9065 233.222 35.9827 232.918 36.1732C232.614 36.3256 232.462 36.5923 232.462 36.9733C232.462 37.1638 232.462 37.3162 232.538 37.4305C232.614 37.5448 232.69 37.6972 232.842 37.8115C232.994 37.9258 233.184 38.0401 233.45 38.1544C233.678 38.2687 233.982 38.3831 234.362 38.4974C234.931 38.726 235.463 38.9165 235.843 39.1451C236.261 39.3737 236.603 39.6023 236.869 39.869C237.135 40.1357 237.324 40.4405 237.438 40.7834C237.552 41.1263 237.628 41.5454 237.628 42.0026C237.628 43.0313 237.248 43.7933 236.489 44.3267C235.729 44.8601 234.666 45.1268 233.26 45.1268C232.311 45.1268 231.551 45.0506 230.981 44.8982C230.411 44.7458 229.994 44.6315 229.766 44.5172L230.183 42.4598C230.563 42.6122 230.981 42.7646 231.513 42.8789C232.007 43.0313 232.614 43.0694 233.26 43.0694L233.298 43.0313Z" fill="#1D1D1B"/>
<path d="M242.187 38.2687C242.491 37.9258 242.832 37.5829 243.174 37.2019C243.516 36.8209 243.858 36.4399 244.2 36.0589C244.542 35.6779 244.846 35.335 245.187 34.954C245.491 34.6111 245.757 34.3063 245.985 34.0396H248.91C248.226 34.8016 247.504 35.6017 246.745 36.4018C245.985 37.24 245.225 38.002 244.466 38.8021C244.884 39.145 245.301 39.5641 245.757 40.0594C246.213 40.5547 246.631 41.05 247.049 41.6215C247.466 42.1549 247.846 42.7264 248.226 43.2598C248.606 43.7932 248.91 44.3266 249.138 44.7838H246.289C246.061 44.3647 245.757 43.9075 245.453 43.4503C245.149 42.9931 244.808 42.5359 244.428 42.0787C244.048 41.6596 243.668 41.2405 243.288 40.8214C242.908 40.4023 242.529 40.0975 242.149 39.8308V44.7457H239.68V29.2389L242.149 28.8198V38.1925L242.187 38.2687Z" fill="#1D1D1B"/>
<path d="M253.544 30.9532C253.544 31.4104 253.393 31.7914 253.089 32.0581C252.785 32.3248 252.443 32.4772 252.025 32.4772C251.607 32.4772 251.227 32.3248 250.924 32.0581C250.62 31.7914 250.468 31.4104 250.468 30.9532C250.468 30.496 250.62 30.115 250.924 29.8102C251.227 29.5054 251.569 29.3911 252.025 29.3911C252.481 29.3911 252.785 29.5435 253.089 29.8102C253.393 30.0769 253.544 30.4579 253.544 30.9532ZM253.279 44.7836H250.81V34.0774H253.279V44.7836Z" fill="#1D1D1B"/>
<path d="M255.254 39.4875C255.254 38.535 255.406 37.7349 255.672 37.011C255.938 36.2871 256.317 35.7156 256.773 35.2203C257.229 34.7631 257.761 34.3821 258.369 34.1534C258.976 33.9248 259.584 33.8105 260.192 33.8105C261.673 33.8105 262.813 34.2678 263.648 35.1822C264.484 36.0966 264.902 37.4682 264.902 39.297C264.902 39.4494 264.902 39.6018 264.902 39.7542C264.902 39.9066 264.902 40.0971 264.902 40.2114H257.837C257.913 41.0877 258.217 41.7354 258.748 42.1926C259.28 42.6498 260.078 42.9165 261.103 42.9165C261.711 42.9165 262.243 42.8784 262.737 42.7641C263.231 42.6498 263.61 42.5355 263.914 42.4212L264.256 44.4405C264.256 44.4405 263.914 44.5929 263.686 44.6691C263.458 44.7453 263.193 44.8215 262.851 44.8596C262.547 44.9358 262.205 44.9739 261.863 45.012C261.521 45.0501 261.141 45.0882 260.762 45.0882C259.812 45.0882 259.014 44.9358 258.293 44.6691C257.571 44.4024 257.039 43.9833 256.583 43.488C256.128 42.9927 255.786 42.3831 255.596 41.7354C255.368 41.0496 255.254 40.3257 255.254 39.5256V39.4875ZM262.433 38.3826C262.433 38.0397 262.395 37.7349 262.281 37.392C262.167 37.0872 262.053 36.8205 261.863 36.5919C261.673 36.3633 261.445 36.1728 261.179 36.0585C260.914 35.9442 260.61 35.868 260.23 35.868C259.85 35.868 259.508 35.9442 259.242 36.0966C258.938 36.249 258.71 36.4395 258.521 36.6681C258.331 36.8967 258.179 37.1634 258.065 37.4682C257.951 37.773 257.875 38.0778 257.837 38.3826H262.433Z" fill="#1D1D1B"/>
<path d="M74.3734 68.1006C73.8797 68.253 73.2719 68.4054 72.5122 68.5197C71.7525 68.634 70.9929 68.7102 70.1572 68.7102C69.3216 68.7102 68.5619 68.5959 67.8782 68.3292C67.1945 68.0625 66.6247 67.6815 66.1689 67.2243C65.7131 66.729 65.3332 66.1574 65.0673 65.4716C64.8014 64.7858 64.6875 64.0238 64.6875 63.1475C64.6875 62.2712 64.8015 61.5473 64.9914 60.8234C65.2193 60.1376 65.5231 59.528 65.903 59.0327C66.3208 58.5374 66.8146 58.1564 67.3844 57.8897C67.9541 57.623 68.6378 57.5087 69.3975 57.5087C69.9293 57.5087 70.3851 57.5849 70.765 57.6992C71.1448 57.8135 71.4867 57.9659 71.7905 58.1183V52.9748L74.2595 52.5557V68.1387L74.3734 68.1006ZM67.2704 63.0332C67.2704 64.1381 67.5363 64.9763 68.0301 65.624C68.5239 66.2718 69.2456 66.5385 70.1572 66.5385C70.537 66.5385 70.8789 66.5385 71.1828 66.5004C71.4867 66.4623 71.6766 66.4242 71.8665 66.3861V60.2519C71.6386 60.0995 71.3727 59.9471 70.9929 59.8328C70.613 59.7185 70.2332 59.6423 69.8533 59.6423C68.9417 59.6423 68.296 59.9471 67.8782 60.5567C67.4603 61.1663 67.2704 62.0045 67.2704 63.0713V63.0332Z" fill="#1D1D1B"/>
<path d="M80.6032 68.634C79.8815 68.634 79.2738 68.5197 78.78 68.4054C78.2862 68.253 77.9063 68.0244 77.6404 67.7577C77.3366 67.491 77.1467 67.1481 77.0327 66.729C76.9187 66.3098 76.8428 65.8526 76.8428 65.3192V52.9748L79.3117 52.5557V64.8239C79.3117 65.1287 79.3117 65.3954 79.3877 65.5859C79.4257 65.7764 79.5017 65.9669 79.6536 66.1193C79.7675 66.2717 79.9575 66.3861 80.1474 66.4623C80.3753 66.5385 80.6412 66.6147 80.9451 66.6528L80.6032 68.7102V68.634Z" fill="#1D1D1B"/>
<path d="M86.2629 57.4326C87.0986 57.4326 87.7823 57.5469 88.3141 57.7374C88.8838 57.9279 89.3016 58.2327 89.6435 58.6137C89.9854 58.9947 90.2133 59.4138 90.3652 59.9472C90.5171 60.4806 90.5931 61.0521 90.5931 61.6617V68.1769C90.2133 68.2531 89.6435 68.3674 88.8838 68.4817C88.1241 68.596 87.2505 68.6722 86.2629 68.6722C85.6172 68.6722 85.0474 68.596 84.5156 68.4817C83.9839 68.3674 83.528 68.1769 83.1482 67.8721C82.7684 67.5673 82.4645 67.2625 82.2746 66.8053C82.0467 66.3862 81.9707 65.8147 81.9707 65.2051C81.9707 64.5955 82.0847 64.0621 82.3126 63.643C82.5405 63.2239 82.8823 62.881 83.3001 62.6142C83.718 62.3475 84.1738 62.157 84.7056 62.0427C85.2373 61.9284 85.8071 61.8522 86.3769 61.8522C86.6427 61.8522 86.9466 61.8522 87.2505 61.8903C87.5544 61.8903 87.8582 61.9665 88.2001 62.0808V61.6617C88.2001 61.3569 88.2001 61.0902 88.0861 60.8235C87.9722 60.5568 87.8962 60.3282 87.7443 60.1377C87.5924 59.9472 87.3644 59.7948 87.0606 59.6805C86.7947 59.5662 86.4148 59.5281 85.997 59.5281C85.4273 59.5281 84.8955 59.5662 84.4397 59.6424C83.9459 59.7186 83.566 59.8329 83.2622 59.9472L82.9583 57.9279C83.2622 57.8136 83.718 57.6993 84.3257 57.585C84.9335 57.4707 85.5792 57.4326 86.2629 57.4326ZM86.4908 66.691C87.2505 66.691 87.8203 66.6529 88.2381 66.5767V63.8335C88.2381 63.8335 87.8962 63.7573 87.6303 63.7192C87.3644 63.6811 87.0986 63.643 86.7567 63.643C86.4908 63.643 86.2249 63.643 85.9211 63.7192C85.6552 63.7573 85.3893 63.8335 85.1614 63.9478C84.9335 64.0621 84.7435 64.2145 84.6296 64.405C84.4777 64.5955 84.4397 64.8622 84.4397 65.167C84.4397 65.7385 84.6296 66.1576 85.0094 66.3862C85.3893 66.6148 85.8831 66.7291 86.4908 66.7291V66.691Z" fill="#1D1D1B"/>
<path d="M101.57 54.0796C103.621 54.0796 105.217 54.4606 106.318 55.2226C107.42 55.9846 107.951 57.1657 107.951 58.7659C107.951 59.6041 107.8 60.328 107.496 60.8995C107.192 61.5091 106.774 61.9663 106.204 62.3473C105.634 62.7283 104.951 62.995 104.153 63.1855C103.355 63.376 102.444 63.4522 101.38 63.4522H100.089V68.4434H97.5059V54.4606C98.1136 54.3082 98.7593 54.232 99.481 54.1939C100.203 54.1558 100.886 54.1177 101.494 54.1177L101.57 54.0796ZM101.76 56.2894C101.114 56.2894 100.583 56.2894 100.165 56.3656V61.2043H101.418C102.672 61.2043 103.621 61.0138 104.267 60.6709C104.913 60.328 105.255 59.6803 105.255 58.6897C105.255 58.2325 105.179 57.8515 104.989 57.5086C104.799 57.2038 104.571 56.9371 104.267 56.7847C103.963 56.5942 103.583 56.4799 103.165 56.4037C102.748 56.3275 102.292 56.2894 101.798 56.2894H101.76Z" fill="#1D1D1B"/>
<path d="M119.423 63.0334C119.423 63.8716 119.309 64.6336 119.043 65.3575C118.815 66.0433 118.435 66.6529 118.017 67.1482C117.561 67.6435 117.03 68.0245 116.384 68.2912C115.738 68.5579 115.054 68.7103 114.295 68.7103C113.535 68.7103 112.851 68.5579 112.206 68.2912C111.56 68.0245 111.028 67.6435 110.572 67.1482C110.116 66.6529 109.775 66.0433 109.509 65.3575C109.243 64.6717 109.129 63.8716 109.129 63.0334C109.129 62.1952 109.243 61.4332 109.509 60.7093C109.775 60.0234 110.116 59.4138 110.572 58.9185C111.028 58.4232 111.56 58.0422 112.206 57.7755C112.813 57.5088 113.535 57.3945 114.257 57.3945C114.978 57.3945 115.7 57.5469 116.346 57.7755C116.992 58.0422 117.523 58.4232 117.979 58.9185C118.435 59.4138 118.777 59.9853 119.043 60.7093C119.309 61.3951 119.423 62.1571 119.423 63.0334ZM116.878 63.0334C116.878 61.9666 116.65 61.1284 116.194 60.5187C115.738 59.9091 115.092 59.6043 114.295 59.6043C113.497 59.6043 112.851 59.9091 112.396 60.5187C111.94 61.1284 111.712 61.9666 111.712 63.0334C111.712 64.1002 111.94 64.9765 112.396 65.5861C112.851 66.2338 113.497 66.5386 114.295 66.5386C115.092 66.5386 115.738 66.2338 116.194 65.5861C116.65 64.9765 116.878 64.1002 116.878 63.0334Z" fill="#1D1D1B"/>
<path d="M127.627 62.7666C127.627 61.6617 127.475 60.8235 127.209 60.3282C126.944 59.8329 126.412 59.5662 125.652 59.5662C125.386 59.5662 125.082 59.5662 124.74 59.6424C124.399 59.7186 124.171 59.7186 124.019 59.7567V68.4055H121.55V58.0422C122.044 57.8898 122.651 57.7755 123.411 57.6612C124.171 57.5469 125.006 57.4707 125.842 57.4707C126.564 57.4707 127.171 57.5469 127.665 57.7755C128.121 57.966 128.539 58.2327 128.843 58.5375C128.995 58.4232 129.185 58.3089 129.413 58.1946C129.64 58.0803 129.906 57.966 130.172 57.8517C130.476 57.7374 130.78 57.6612 131.084 57.585C131.388 57.5088 131.73 57.4707 132.071 57.4707C132.907 57.4707 133.591 57.585 134.123 57.8136C134.654 58.0422 135.072 58.3851 135.376 58.8042C135.68 59.2233 135.908 59.7567 136.022 60.3663C136.136 60.9759 136.212 61.6236 136.212 62.3475V68.3674H133.743V62.7285C133.743 61.6236 133.591 60.7854 133.325 60.2901C133.059 59.7948 132.527 59.5281 131.768 59.5281C131.388 59.5281 131.008 59.6043 130.628 59.7186C130.286 59.8329 130.02 59.9853 129.83 60.0996C129.944 60.4425 130.02 60.7854 130.058 61.2045C130.096 61.5855 130.134 62.0046 130.134 62.4237V68.3293H127.665V62.6904L127.627 62.7666Z" fill="#1D1D1B"/>
<path d="M148.48 63.0334C148.48 63.8716 148.366 64.6336 148.1 65.3575C147.872 66.0433 147.493 66.6529 147.075 67.1482C146.619 67.6435 146.087 68.0245 145.441 68.2912C144.796 68.5579 144.112 68.7103 143.352 68.7103C142.593 68.7103 141.909 68.5579 141.263 68.2912C140.617 68.0245 140.086 67.6435 139.63 67.1482C139.174 66.6529 138.832 66.0433 138.566 65.3575C138.3 64.6717 138.187 63.8716 138.187 63.0334C138.187 62.1952 138.3 61.4332 138.566 60.7093C138.832 60.0234 139.174 59.4138 139.63 58.9185C140.086 58.4232 140.617 58.0422 141.263 57.7755C141.871 57.5088 142.593 57.3945 143.314 57.3945C144.036 57.3945 144.758 57.5469 145.403 57.7755C146.049 58.0422 146.581 58.4232 147.037 58.9185C147.493 59.4138 147.834 59.9853 148.1 60.7093C148.366 61.3951 148.48 62.1571 148.48 63.0334ZM145.935 63.0334C145.935 61.9666 145.707 61.1284 145.252 60.5187C144.796 59.9091 144.15 59.6043 143.352 59.6043C142.555 59.6043 141.909 59.9091 141.453 60.5187C140.997 61.1284 140.769 61.9666 140.769 63.0334C140.769 64.1002 140.997 64.9765 141.453 65.5861C141.909 66.2338 142.555 66.5386 143.352 66.5386C144.15 66.5386 144.796 66.2338 145.252 65.5861C145.707 64.9765 145.935 64.1002 145.935 63.0334Z" fill="#1D1D1B"/>
<path d="M156.723 59.9472C156.533 59.871 156.229 59.7948 155.887 59.7186C155.545 59.6424 155.09 59.6043 154.634 59.6043C154.368 59.6043 154.064 59.6043 153.76 59.6805C153.456 59.7567 153.228 59.7948 153.114 59.8329V68.4055H150.646V58.1946C151.139 58.0041 151.709 57.8517 152.431 57.6993C153.152 57.5469 153.95 57.4707 154.824 57.4707C154.976 57.4707 155.166 57.4707 155.394 57.4707C155.621 57.4707 155.811 57.5088 156.039 57.5469C156.267 57.5469 156.457 57.6231 156.685 57.6612C156.875 57.6993 157.065 57.7374 157.179 57.8136L156.761 59.9091L156.723 59.9472Z" fill="#1D1D1B"/>
<path d="M166.409 59.4518C166.143 59.7566 165.764 60.1376 165.346 60.671C164.89 61.2044 164.434 61.7759 163.94 62.3855C163.446 63.0333 162.915 63.681 162.421 64.3668C161.927 65.0526 161.433 65.7003 161.053 66.348H166.561V68.4054H158.053V66.8814C158.357 66.348 158.736 65.7384 159.192 65.0907C159.648 64.443 160.104 63.7953 160.598 63.1476C161.091 62.4999 161.547 61.8902 162.003 61.2806C162.459 60.7091 162.877 60.1757 163.257 59.7566H158.319V57.6992H166.447V59.4518H166.409Z" fill="#1D1D1B"/>
<path d="M172.221 57.4326C173.057 57.4326 173.74 57.5469 174.272 57.7374C174.842 57.9279 175.26 58.2327 175.602 58.6137C175.943 58.9947 176.171 59.4138 176.323 59.9472C176.475 60.4806 176.551 61.0521 176.551 61.6617V68.1769C176.171 68.2531 175.602 68.3674 174.842 68.4817C174.082 68.596 173.209 68.6722 172.221 68.6722C171.575 68.6722 171.005 68.596 170.474 68.4817C169.942 68.3674 169.486 68.1769 169.106 67.8721C168.726 67.5673 168.423 67.2625 168.233 66.8053C168.005 66.3862 167.929 65.8147 167.929 65.2051C167.929 64.5955 168.043 64.0621 168.271 63.643C168.498 63.2239 168.84 62.881 169.258 62.6142C169.676 62.3475 170.132 62.157 170.664 62.0427C171.195 61.9284 171.765 61.8522 172.335 61.8522C172.601 61.8522 172.905 61.8522 173.209 61.8903C173.512 61.8903 173.816 61.9665 174.158 62.0808V61.6617C174.158 61.3569 174.158 61.0902 174.044 60.8235C173.93 60.5568 173.854 60.3282 173.702 60.1377C173.55 59.9472 173.322 59.7948 173.019 59.6805C172.753 59.5662 172.373 59.5281 171.955 59.5281C171.385 59.5281 170.853 59.5662 170.398 59.6424C169.904 59.7186 169.524 59.8329 169.22 59.9472L168.916 57.9279C169.22 57.8136 169.676 57.6993 170.284 57.585C170.891 57.4707 171.537 57.4326 172.221 57.4326ZM172.411 66.691C173.171 66.691 173.74 66.6529 174.158 66.5767V63.8335C174.158 63.8335 173.816 63.7573 173.55 63.7192C173.284 63.6811 173.019 63.643 172.677 63.643C172.411 63.643 172.145 63.643 171.841 63.7192C171.575 63.7573 171.309 63.8335 171.081 63.9478C170.853 64.0621 170.664 64.2145 170.55 64.405C170.398 64.5955 170.36 64.8622 170.36 65.167C170.36 65.7385 170.55 66.1576 170.929 66.3862C171.309 66.6148 171.803 66.7291 172.411 66.7291V66.691Z" fill="#1D1D1B"/>
</svg>
