<svg width="265" height="72" viewBox="0 0 265 72" fill="none" xmlns="http://www.w3.org/2000/svg">
<path d="M177.615 42.7085C177.008 42.8228 176.552 42.9371 176.248 43.0514L176.552 45.0707C176.856 44.9564 177.236 44.8802 177.729 44.7659C178.223 44.6897 178.717 44.6516 179.325 44.6516C179.743 44.6516 180.084 44.6897 180.388 44.804C180.654 44.9183 180.882 45.0707 181.072 45.2612C181.262 45.4517 181.376 45.6803 181.414 45.947C181.49 46.2137 181.528 46.4804 181.528 46.7852V47.2043C181.186 47.1281 180.844 47.0519 180.578 47.0138C180.274 47.0138 179.97 46.9757 179.705 46.9757C179.097 46.9757 178.565 47.0519 177.995 47.1662C177.464 47.2805 176.97 47.471 176.552 47.7377C176.134 48.0044 175.83 48.3473 175.564 48.7664C175.336 49.1855 175.184 49.7189 175.184 50.3285C175.184 50.9381 175.298 51.5096 175.488 51.9668C175.716 52.424 175.982 52.7669 176.362 53.0336C176.742 53.3003 177.198 53.4908 177.729 53.6432C178.261 53.7575 178.831 53.8337 179.477 53.8337C180.464 53.8337 181.338 53.7575 182.098 53.6432C182.857 53.5289 183.465 53.4146 183.845 53.3384V46.7852C183.845 46.1375 183.769 45.566 183.617 45.0326C183.465 44.4992 183.237 44.042 182.895 43.661C182.553 43.28 182.098 43.0133 181.566 42.7847C180.996 42.5561 180.312 42.4799 179.477 42.4799C178.793 42.4799 178.147 42.5561 177.54 42.6323M178.261 51.4715C177.881 51.2429 177.691 50.8238 177.691 50.2523C177.691 49.9475 177.767 49.6808 177.881 49.4903C178.033 49.2998 178.185 49.1474 178.413 49.0331C178.641 48.9188 178.907 48.8426 179.173 48.8045C179.439 48.7664 179.743 48.7283 180.008 48.7283C180.312 48.7283 180.616 48.7283 180.882 48.8045C181.148 48.8426 181.338 48.8807 181.49 48.9188V51.7001C181.11 51.7763 180.502 51.8144 179.743 51.8144C179.097 51.8144 178.603 51.7001 178.261 51.4715ZM167.436 37.5649L164.967 37.984V53.567H167.436V48.614C167.816 48.8807 168.195 49.2236 168.575 49.6046C168.955 49.9856 169.335 50.4047 169.715 50.8619C170.095 51.281 170.436 51.7382 170.74 52.2335C171.044 52.6907 171.348 53.1479 171.576 53.567H174.463C174.197 53.1098 173.893 52.5764 173.551 52.043C173.171 51.5096 172.791 50.9381 172.374 50.4047C171.956 49.8713 171.5 49.3379 171.044 48.8426C170.588 48.3473 170.171 47.9282 169.753 47.5853C170.512 46.7852 171.272 45.9851 172.032 45.185C172.791 44.3468 173.513 43.5467 174.197 42.7847H171.272C171.044 43.0514 170.778 43.3562 170.474 43.6991C170.171 44.042 169.829 44.423 169.487 44.804C169.145 45.185 168.803 45.566 168.423 45.947C168.081 46.328 167.74 46.6709 167.436 47.0138V37.603V37.5649ZM156.724 51.5858C156.23 51.4334 155.775 51.3191 155.395 51.1667L154.977 53.2622C155.205 53.3384 155.623 53.4908 156.192 53.6432C156.762 53.7956 157.522 53.8718 158.471 53.8718C159.877 53.8718 160.978 53.6051 161.738 53.0717C162.498 52.5383 162.878 51.7763 162.878 50.7476C162.878 50.2523 162.802 49.8713 162.688 49.5284C162.574 49.1855 162.384 48.8807 162.118 48.614C161.852 48.3473 161.51 48.1187 161.092 47.8901C160.675 47.6615 160.181 47.471 159.573 47.2424C159.231 47.1281 158.927 47.0138 158.661 46.8995C158.396 46.7852 158.206 46.6709 158.054 46.5566C157.902 46.4423 157.788 46.328 157.75 46.1756C157.674 46.0232 157.674 45.8708 157.674 45.7184C157.674 45.3755 157.826 45.1088 158.13 44.9183C158.433 44.7278 158.851 44.6516 159.345 44.6516C159.915 44.6516 160.409 44.6897 160.826 44.804C161.244 44.9183 161.586 45.0326 161.89 45.1469L162.346 43.1276C162.042 43.0133 161.624 42.899 161.054 42.7847C160.485 42.6704 159.877 42.5942 159.231 42.5942C157.978 42.5942 156.99 42.899 156.268 43.4705C155.547 44.042 155.167 44.804 155.167 45.7946C155.167 46.2899 155.243 46.7471 155.395 47.09C155.547 47.4329 155.775 47.7377 156.04 47.9663C156.306 48.233 156.648 48.4235 157.028 48.614C157.408 48.8045 157.826 48.9569 158.282 49.1474C159.003 49.4141 159.535 49.6808 159.877 49.9094C160.181 50.138 160.371 50.4428 160.371 50.7857C160.371 51.1667 160.219 51.4334 159.915 51.5858C159.611 51.7382 159.117 51.8144 158.471 51.8144C157.826 51.8144 157.218 51.7382 156.724 51.6239M153.458 51.7382C153.116 51.7001 152.85 51.6239 152.66 51.5477C152.432 51.4715 152.28 51.3572 152.166 51.2048C152.052 51.0524 151.938 50.9 151.9 50.6714C151.862 50.4809 151.824 50.2142 151.824 49.9094V37.5649L149.355 37.984V50.4047C149.355 50.9381 149.393 51.4334 149.545 51.8525C149.659 52.2716 149.849 52.6145 150.153 52.9193C150.457 53.186 150.837 53.4146 151.33 53.567C151.824 53.7194 152.432 53.7956 153.154 53.7956L153.496 51.7382H153.458ZM143.924 50.7476C143.468 51.3953 142.822 51.7001 141.986 51.7001C141.151 51.7001 140.543 51.3953 140.049 50.7476C139.593 50.0999 139.365 49.2617 139.365 48.1568C139.365 47.0519 139.593 46.2137 140.049 45.6041C140.505 44.9945 141.151 44.6516 141.986 44.6516C142.822 44.6516 143.468 44.9564 143.924 45.6041C144.379 46.2137 144.607 47.09 144.607 48.1568C144.607 49.2236 144.379 50.0999 143.924 50.7476ZM146.772 45.8708C146.506 45.185 146.165 44.5754 145.709 44.0801C145.253 43.5848 144.721 43.2038 144.075 42.9371C143.43 42.6704 142.746 42.518 141.986 42.518C141.227 42.518 140.543 42.6704 139.897 42.9371C139.251 43.2038 138.72 43.5848 138.264 44.0801C137.808 44.5754 137.466 45.185 137.2 45.8708C136.934 46.5566 136.821 47.3567 136.821 48.1949C136.821 49.0331 136.934 49.8332 137.2 50.519C137.466 51.2048 137.808 51.8144 138.264 52.3097C138.72 52.805 139.251 53.186 139.897 53.4527C140.543 53.7194 141.227 53.8718 141.986 53.8718C142.746 53.8718 143.468 53.7194 144.113 53.4527C144.759 53.186 145.291 52.805 145.747 52.3097C146.203 51.8144 146.544 51.2048 146.81 50.519C147.076 49.8332 147.19 49.0331 147.19 48.1949C147.19 47.3567 147.076 46.5566 146.81 45.8708M130.819 41.5274C131.237 41.6036 131.617 41.7179 131.921 41.9084C132.224 42.0989 132.49 42.3275 132.642 42.6323C132.832 42.9371 132.908 43.3562 132.908 43.8134C132.908 44.804 132.566 45.4517 131.921 45.7946C131.275 46.1375 130.287 46.328 129.034 46.328H127.78V41.4512C128.198 41.4131 128.73 41.375 129.414 41.375C129.907 41.375 130.363 41.4131 130.819 41.4893M127.249 39.2033C126.527 39.2414 125.843 39.3557 125.235 39.47V53.567H127.818V48.5378H129.11C130.135 48.5378 131.085 48.4616 131.883 48.2711C132.68 48.0806 133.364 47.8139 133.934 47.4329C134.503 47.0519 134.921 46.5566 135.225 45.9851C135.529 45.3755 135.681 44.6516 135.681 43.8134C135.681 42.2132 135.111 41.0321 134.01 40.2701C132.908 39.5081 131.313 39.1271 129.262 39.1271C128.654 39.1271 127.97 39.1271 127.249 39.2033Z" fill="#1D1D1B"/>
<path d="M258.712 18.9341C258.104 19.0484 257.648 19.1627 257.344 19.277L257.648 21.2963C257.952 21.182 258.332 21.1058 258.825 20.9915C259.319 20.9153 259.813 20.8772 260.421 20.8772C260.839 20.8772 261.218 20.9153 261.484 21.0296C261.75 21.1439 261.978 21.2963 262.168 21.4868C262.358 21.6773 262.472 21.9059 262.548 22.1726C262.624 22.4393 262.662 22.706 262.662 23.0108V23.4299C262.32 23.3537 262.016 23.2775 261.712 23.2394C261.408 23.2394 261.105 23.2013 260.839 23.2013C260.269 23.2013 259.699 23.2775 259.129 23.3918C258.598 23.5061 258.104 23.6966 257.686 23.9633C257.268 24.23 256.964 24.5729 256.698 24.992C256.47 25.4111 256.319 25.9445 256.319 26.5541C256.319 27.2018 256.432 27.7352 256.622 28.1924C256.812 28.6496 257.116 28.9925 257.496 29.2592C257.876 29.5259 258.332 29.7164 258.864 29.8688C259.395 29.9831 259.965 30.0593 260.611 30.0593C261.598 30.0593 262.472 30.0212 263.232 29.8688C263.991 29.7545 264.599 29.6402 264.979 29.564V23.0108C264.979 22.3631 264.903 21.7916 264.751 21.2582C264.599 20.7248 264.371 20.2676 264.029 19.8866C263.687 19.5056 263.232 19.2389 262.7 19.0103C262.13 18.8198 261.446 18.7055 260.611 18.7055C259.927 18.7055 259.281 18.7436 258.674 18.8579M259.319 27.7352C258.939 27.5066 258.75 27.0875 258.75 26.516C258.75 26.2112 258.825 25.9445 258.939 25.754C259.091 25.5635 259.243 25.4111 259.471 25.2968C259.699 25.1825 259.965 25.1063 260.231 25.0682C260.497 25.0301 260.801 24.992 261.067 24.992C261.37 24.992 261.674 24.992 261.94 25.0682C262.206 25.1063 262.396 25.1444 262.548 25.1825V27.9638C262.168 28.04 261.56 28.0781 260.801 28.0781C260.155 28.0781 259.661 27.9638 259.281 27.7352M248.38 25.5254C248.38 26.2493 248.456 26.8589 248.57 27.4304C248.684 28.0019 248.912 28.4591 249.216 28.8401C249.519 29.2211 249.937 29.5259 250.431 29.7164C250.963 29.9069 251.571 30.0212 252.368 30.0212C253.014 30.0212 253.546 29.945 254.001 29.8307C254.457 29.7164 254.837 29.564 255.141 29.4497L254.723 27.4685C254.533 27.5447 254.229 27.659 253.888 27.7352C253.546 27.8114 253.128 27.8876 252.672 27.8876C252.026 27.8876 251.533 27.6971 251.267 27.3161C251.001 26.9351 250.849 26.3255 250.849 25.4492V21.0677H254.685V18.9722H250.849V15.7336L248.38 16.1527V25.4873V25.5254ZM245.455 14.743C245.151 14.4763 244.809 14.3239 244.392 14.3239C243.974 14.3239 243.594 14.4763 243.29 14.743C242.986 15.0097 242.834 15.3907 242.834 15.886C242.834 16.3813 242.986 16.7242 243.29 16.9909C243.594 17.2576 243.936 17.41 244.392 17.41C244.847 17.41 245.151 17.2576 245.455 16.9909C245.759 16.7242 245.911 16.3432 245.911 15.886C245.911 15.4288 245.759 15.0478 245.455 14.743ZM245.645 19.0484H243.138V29.8307H245.645V19.0484ZM241.125 27.9638C240.783 27.9257 240.517 27.8495 240.327 27.7733C240.099 27.6971 239.947 27.5828 239.833 27.4304C239.719 27.278 239.644 27.1256 239.568 26.897C239.53 26.7065 239.492 26.4398 239.492 26.135V13.7905L237.023 14.2096V26.6303C237.023 27.1637 237.061 27.659 237.213 28.0781C237.326 28.4972 237.516 28.8401 237.82 29.1449C238.124 29.4116 238.504 29.6402 238.998 29.7926C239.492 29.945 240.099 30.0212 240.821 30.0212L241.163 27.9638H241.125ZM231.515 27.0113C231.059 27.659 230.413 27.9638 229.578 27.9638C228.742 27.9638 228.096 27.659 227.641 27.0113C227.185 26.3636 226.957 25.5254 226.957 24.4205C226.957 23.3156 227.185 22.4774 227.641 21.8678C228.096 21.2582 228.742 20.9153 229.578 20.9153C230.413 20.9153 231.059 21.2201 231.515 21.8678C231.971 22.4774 232.199 23.3537 232.199 24.4205C232.199 25.4873 231.971 26.3636 231.515 27.0113ZM234.402 22.0964C234.136 21.4106 233.794 20.801 233.338 20.3057C232.882 19.8104 232.351 19.4294 231.705 19.1627C231.059 18.896 230.375 18.7817 229.616 18.7817C228.856 18.7817 228.172 18.896 227.527 19.1627C226.881 19.4294 226.349 19.8104 225.893 20.3057C225.437 20.801 225.058 21.4106 224.83 22.0964C224.564 22.7822 224.45 23.5823 224.45 24.4205C224.45 25.2587 224.564 26.0588 224.83 26.7446C225.096 27.4304 225.437 28.04 225.893 28.5353C226.349 29.0306 226.881 29.4116 227.527 29.6783C228.172 29.945 228.856 30.0974 229.616 30.0974C230.375 30.0974 231.097 29.945 231.705 29.6783C232.351 29.4116 232.882 29.0306 233.338 28.5353C233.794 28.04 234.136 27.4304 234.402 26.7446C234.63 26.0588 234.782 25.2587 234.782 24.4205C234.782 23.5823 234.668 22.7822 234.402 22.0964ZM222.323 22.0964C222.057 21.4106 221.715 20.801 221.221 20.3057C220.765 19.8104 220.196 19.4294 219.512 19.1627C218.828 18.896 218.069 18.7817 217.233 18.7817C216.397 18.7817 215.638 18.8579 214.878 18.9722C214.156 19.0865 213.51 19.2389 213.017 19.3532V33.6027H215.486V29.4116C215.751 29.564 216.093 29.7164 216.549 29.8307C216.967 29.945 217.423 30.0212 217.955 30.0212C218.714 30.0212 219.398 29.8688 219.968 29.6021C220.538 29.3354 221.069 28.9544 221.449 28.4591C221.829 27.9638 222.133 27.3923 222.361 26.6684C222.589 25.9826 222.665 25.2206 222.665 24.3824C222.665 23.5061 222.551 22.7441 222.285 22.0583M219.55 26.9732C219.132 27.5828 218.486 27.8876 217.575 27.8876C217.157 27.8876 216.777 27.8114 216.397 27.6971C216.017 27.5828 215.752 27.4304 215.524 27.278V21.1058C215.79 21.0296 216.017 20.9915 216.283 20.9534C216.549 20.9534 216.777 20.9534 217.005 20.9534C218.107 20.9534 218.904 21.2582 219.436 21.8678C219.93 22.4774 220.196 23.3537 220.196 24.4586C220.196 25.4873 219.968 26.3255 219.55 26.9732ZM204.812 27.8114C204.28 27.659 203.863 27.5447 203.483 27.3923L203.065 29.4878C203.293 29.6021 203.711 29.7164 204.28 29.8688C204.85 30.0212 205.61 30.0974 206.559 30.0974C207.965 30.0974 209.066 29.8307 209.826 29.2973C210.586 28.7639 210.966 28.0019 210.966 26.9732C210.966 26.4779 210.89 26.0969 210.776 25.754C210.662 25.4111 210.472 25.1063 210.206 24.8396C209.94 24.5729 209.598 24.3443 209.18 24.1157C208.762 23.8871 208.269 23.6966 207.661 23.468C207.319 23.3537 207.015 23.2394 206.749 23.1251C206.483 23.0108 206.293 22.8965 206.142 22.7822C205.99 22.6679 205.876 22.5536 205.838 22.4012C205.762 22.2488 205.762 22.0964 205.762 21.944C205.762 21.6011 205.914 21.3344 206.218 21.1439C206.521 20.9534 206.939 20.8772 207.433 20.8772C208.003 20.8772 208.497 20.9153 208.914 21.0296C209.332 21.1439 209.674 21.2582 209.978 21.3725L210.434 19.3532C210.13 19.2389 209.712 19.1246 209.142 19.0103C208.572 18.896 207.965 18.8198 207.319 18.8198C206.066 18.8198 205.078 19.0865 204.356 19.658C203.635 20.2295 203.255 20.9915 203.255 21.9821C203.255 22.4774 203.331 22.9346 203.483 23.2775C203.635 23.6204 203.862 23.9252 204.128 24.1538C204.394 24.4205 204.736 24.611 205.116 24.8015C205.496 24.992 205.914 25.1444 206.369 25.3349C207.091 25.6016 207.623 25.8683 207.965 26.0969C208.307 26.3255 208.459 26.6303 208.459 26.9732C208.459 27.3542 208.307 27.6209 208.003 27.7733C207.699 27.9257 207.205 28.0019 206.559 28.0019C205.914 28.0019 205.306 27.9257 204.812 27.8114ZM198.355 27.0113C197.899 27.659 197.253 27.9638 196.418 27.9638C195.582 27.9638 194.974 27.659 194.48 27.0113C194.025 26.3636 193.797 25.5254 193.797 24.4205C193.797 23.3156 194.025 22.4774 194.48 21.8678C194.936 21.2582 195.582 20.9153 196.418 20.9153C197.253 20.9153 197.899 21.2201 198.355 21.8678C198.811 22.4774 199.039 23.3537 199.039 24.4205C199.039 25.4873 198.811 26.3636 198.355 27.0113ZM201.204 22.0964C200.938 21.4106 200.596 20.801 200.14 20.3057C199.684 19.8104 199.152 19.4294 198.507 19.1627C197.861 18.896 197.177 18.7817 196.418 18.7817C195.658 18.7817 194.974 18.896 194.328 19.1627C193.683 19.4294 193.151 19.8104 192.695 20.3057C192.239 20.801 191.859 21.4106 191.632 22.0964C191.366 22.7822 191.252 23.5823 191.252 24.4205C191.252 25.2587 191.366 26.0588 191.632 26.7446C191.897 27.4304 192.239 28.04 192.695 28.5353C193.151 29.0306 193.683 29.4116 194.328 29.6783C194.974 29.945 195.658 30.0974 196.418 30.0974C197.177 30.0974 197.899 29.945 198.507 29.6783C199.152 29.4116 199.684 29.0306 200.14 28.5353C200.596 28.04 200.938 27.4304 201.204 26.7446C201.431 26.0588 201.583 25.2587 201.583 24.4205C201.583 23.5823 201.469 22.7822 201.204 22.0964ZM189.163 22.0964C188.897 21.4106 188.555 20.801 188.061 20.3057C187.605 19.8104 187.035 19.4294 186.352 19.1627C185.668 18.896 184.908 18.7817 184.073 18.7817C183.237 18.7817 182.477 18.8579 181.718 18.9722C180.958 19.0865 180.35 19.2389 179.857 19.3532V33.6027H182.325V29.4116C182.591 29.564 182.933 29.7164 183.389 29.8307C183.807 29.945 184.263 30.0212 184.794 30.0212C185.554 30.0212 186.238 29.8688 186.808 29.6021C187.377 29.3354 187.909 28.9544 188.289 28.4591C188.707 27.9638 189.011 27.3923 189.201 26.6684C189.428 25.9826 189.504 25.2206 189.504 24.3824C189.504 23.5061 189.391 22.7441 189.125 22.0583M186.39 26.9732C185.972 27.5828 185.326 27.8876 184.415 27.8876C183.997 27.8876 183.617 27.8114 183.237 27.6971C182.857 27.5828 182.591 27.4304 182.363 27.278V21.1058C182.629 21.0296 182.857 20.9915 183.123 20.9534C183.389 20.9534 183.617 20.9534 183.845 20.9534C184.946 20.9534 185.744 21.2582 186.276 21.8678C186.77 22.4774 187.036 23.3537 187.036 24.4586C187.036 25.4873 186.808 26.3255 186.39 26.9732ZM177.653 19.0484H169.487V21.1439H174.425C174.045 21.6011 173.627 22.0964 173.171 22.706C172.715 23.3156 172.222 23.9252 171.728 24.5729C171.272 25.2206 170.778 25.8683 170.323 26.516C169.867 27.1637 169.487 27.7733 169.183 28.3067V29.8688H177.729V27.7733H172.184C172.602 27.1256 173.057 26.4779 173.551 25.7921C174.083 25.1063 174.577 24.4205 175.07 23.8109C175.564 23.1632 176.058 22.5917 176.514 22.0583C176.97 21.5249 177.312 21.1439 177.577 20.8391V19.0865L177.653 19.0484ZM159.687 26.7065C159.915 27.3923 160.257 28.0019 160.675 28.4972C161.13 28.9925 161.662 29.4116 162.346 29.6783C163.03 29.945 163.827 30.0974 164.739 30.0974C165.309 30.0974 165.878 30.0593 166.448 29.945C167.018 29.8307 167.436 29.7164 167.702 29.564L167.36 27.5066C167.056 27.6209 166.714 27.7352 166.296 27.8114C165.878 27.8876 165.461 27.9257 165.043 27.9257C163.903 27.9257 163.106 27.6209 162.612 26.9732C162.118 26.3636 161.89 25.4873 161.89 24.4205C161.89 23.3537 162.156 22.4393 162.65 21.8297C163.143 21.2201 163.903 20.9153 164.891 20.9153C165.309 20.9153 165.688 20.9534 166.068 21.0296C166.448 21.1058 166.752 21.2201 167.056 21.3344L167.588 19.277C166.676 18.896 165.726 18.7055 164.701 18.7055C163.865 18.7055 163.144 18.8579 162.46 19.1246C161.814 19.4294 161.244 19.8104 160.788 20.3057C160.333 20.801 159.991 21.4106 159.725 22.0964C159.459 22.7822 159.345 23.5442 159.345 24.3443C159.345 25.1444 159.459 25.9064 159.687 26.5922M150.495 23.3537C150.533 23.0489 150.609 22.7441 150.723 22.4393C150.837 22.1345 150.989 21.8678 151.179 21.6392C151.368 21.4106 151.634 21.2201 151.9 21.0677C152.204 20.9153 152.546 20.8391 152.888 20.8391C153.23 20.8391 153.571 20.9153 153.837 21.0296C154.103 21.1439 154.331 21.3344 154.521 21.563C154.711 21.7916 154.863 22.0583 154.939 22.3631C155.053 22.6679 155.091 23.0108 155.091 23.3537H150.457H150.495ZM148.216 26.7065C148.444 27.3923 148.785 27.9638 149.203 28.4972C149.659 28.9925 150.229 29.4116 150.951 29.6783C151.634 29.945 152.47 30.0974 153.42 30.0974C153.799 30.0974 154.141 30.0974 154.521 30.0212C154.863 30.0212 155.205 29.945 155.509 29.8688C155.813 29.7926 156.078 29.7545 156.344 29.6783C156.572 29.6021 156.762 29.5259 156.914 29.4497L156.572 27.3923C156.268 27.5066 155.889 27.6209 155.395 27.7352C154.901 27.8495 154.331 27.8876 153.761 27.8876C152.736 27.8876 151.938 27.659 151.406 27.1637C150.875 26.7065 150.571 26.0207 150.495 25.1444H157.598C157.598 25.1444 157.598 24.8396 157.598 24.6872C157.598 24.4967 157.598 24.3443 157.598 24.23C157.598 22.4012 157.18 21.0296 156.344 20.1152C155.509 19.2008 154.369 18.7436 152.888 18.7436C152.242 18.7436 151.634 18.8579 151.027 19.0865C150.419 19.3151 149.887 19.6961 149.431 20.1533C148.975 20.6105 148.596 21.2201 148.33 21.944C148.064 22.6679 147.912 23.5061 147.912 24.4205C147.912 25.2206 148.026 25.9826 148.254 26.6684M146.468 19.0484H138.302V21.1439H143.24C142.86 21.6011 142.442 22.0964 141.986 22.706C141.531 23.3156 141.037 23.9252 140.543 24.5729C140.049 25.2206 139.593 25.8683 139.138 26.516C138.682 27.1637 138.302 27.7733 137.998 28.3067V29.8688H146.544V27.7733H140.999C141.417 27.1256 141.872 26.4779 142.366 25.7921C142.898 25.1063 143.392 24.4205 143.886 23.8109C144.379 23.1632 144.873 22.5917 145.329 22.0583C145.785 21.5249 146.127 21.1439 146.393 20.8391V19.0865L146.468 19.0484ZM130.743 17.753C131.161 17.8292 131.541 17.9435 131.845 18.134C132.148 18.3245 132.376 18.5531 132.566 18.8579C132.718 19.1627 132.794 19.5437 132.794 19.9628C132.794 20.42 132.718 20.801 132.566 21.1058C132.414 21.4106 132.148 21.6392 131.845 21.8297C131.541 22.0202 131.123 22.1345 130.629 22.2107C130.135 22.2869 129.604 22.325 128.958 22.325H127.818V17.7149C128.274 17.6768 128.806 17.6387 129.338 17.6387C129.831 17.6387 130.325 17.6768 130.743 17.753ZM127.249 15.4669C126.527 15.505 125.881 15.6193 125.235 15.7336V29.8307H127.818V24.4205H129.452C129.452 24.4205 129.755 24.4205 129.945 24.4205C130.211 24.7634 130.477 25.1063 130.781 25.5635C131.085 25.9826 131.389 26.4398 131.693 26.897C131.997 27.3542 132.3 27.8495 132.604 28.3448C132.908 28.8401 133.174 29.3354 133.44 29.8307H136.327C136.061 29.2973 135.795 28.7639 135.491 28.1924C135.187 27.6209 134.845 27.0875 134.503 26.5541C134.162 26.0207 133.82 25.5254 133.516 25.0682C133.174 24.611 132.908 24.23 132.642 23.9252C134.541 23.2394 135.491 21.944 135.491 20.0009C135.491 18.4388 134.959 17.2958 133.858 16.5337C132.756 15.7717 131.199 15.3907 129.148 15.3907C128.578 15.3907 127.932 15.3907 127.249 15.4669Z" fill="#1D1D1B"/>
<path d="M107.344 0.265137H1.02637V35.8889H107.344V0.265137Z" fill="white"/>
<path d="M107.344 35.7744H1.02637V71.2838H107.344V35.7744Z" fill="#B61F2B"/>
<path d="M107.458 0.112793H0.875V71.3983H107.458V0.112793ZM107.117 71.0554H1.17888V0.455696H107.117V71.0554Z" fill="#878787"/>
</svg>
