<svg width="325" height="72" viewBox="0 0 325 72" fill="none" xmlns="http://www.w3.org/2000/svg">
<path d="M194.216 51.4715C193.836 51.2429 193.646 50.8238 193.646 50.2523C193.646 49.9475 193.722 49.7189 193.836 49.4903C193.988 49.2998 194.14 49.1474 194.368 49.0331C194.596 48.9188 194.862 48.8426 195.128 48.8045C195.394 48.7664 195.697 48.7283 195.963 48.7283C196.267 48.7283 196.571 48.7283 196.837 48.8045C197.103 48.8426 197.293 48.8807 197.445 48.9188V51.7001C197.065 51.7763 196.457 51.8144 195.697 51.8144C195.052 51.8144 194.558 51.7001 194.216 51.4715ZM193.57 42.7085C192.963 42.8228 192.507 42.9371 192.203 43.0514L192.507 45.0707C192.811 44.9564 193.19 44.8802 193.684 44.7659C194.178 44.6897 194.672 44.6516 195.28 44.6516C195.697 44.6516 196.077 44.6897 196.343 44.804C196.609 44.9183 196.837 45.0707 197.027 45.2612C197.217 45.4517 197.331 45.6803 197.407 45.947C197.483 46.2137 197.521 46.4804 197.521 46.7852V47.2043C197.179 47.1281 196.837 47.0519 196.571 47.0138C196.267 47.0138 195.963 46.9757 195.697 46.9757C195.128 46.9757 194.558 47.0519 193.988 47.1662C193.456 47.2805 192.963 47.471 192.545 47.7377C192.127 48.0044 191.823 48.3473 191.557 48.7664C191.329 49.1855 191.177 49.7189 191.177 50.3285C191.177 50.9381 191.291 51.5096 191.481 51.9668C191.709 52.424 191.975 52.7669 192.355 53.0336C192.735 53.3003 193.19 53.4908 193.722 53.6432C194.254 53.7575 194.824 53.8337 195.507 53.8337C195.811 53.8337 196.115 53.8337 196.419 53.8337C196.723 53.8337 196.989 53.8337 197.255 53.7575C196.989 53.948 196.761 54.1766 196.571 54.4052C196.343 54.6719 196.153 54.9006 196.001 55.2054C195.849 55.4721 195.773 55.7769 195.773 56.0817C195.773 56.6151 195.963 57.0342 196.343 57.339C196.723 57.6438 197.331 57.7962 198.166 57.7962C198.47 57.7962 198.774 57.7962 199.078 57.72C199.382 57.6819 199.648 57.6057 199.876 57.5295L199.686 55.8531C199.496 55.9293 199.306 55.9674 199.154 56.0055C199.002 56.0436 198.85 56.0055 198.736 56.0055C198.242 56.0055 198.014 55.815 198.014 55.434C198.014 55.2435 198.052 55.0911 198.166 54.9006C198.28 54.7482 198.432 54.5576 198.622 54.3671C198.85 54.1385 199.078 53.948 199.306 53.7575C199.534 53.567 199.724 53.4146 199.876 53.3003V46.7471C199.876 46.0994 199.8 45.5279 199.648 44.9945C199.496 44.4611 199.268 44.0039 198.926 43.6229C198.584 43.2419 198.128 42.9752 197.597 42.7466C197.027 42.5561 196.343 42.4418 195.507 42.4418C194.824 42.4418 194.178 42.4799 193.57 42.5942M183.315 37.5649L180.846 37.984V53.567H183.315V48.614C183.694 48.8807 184.074 49.2236 184.454 49.6046C184.834 49.9856 185.214 50.4047 185.594 50.8619C185.973 51.3191 186.315 51.7382 186.619 52.2335C186.923 52.6907 187.227 53.1479 187.455 53.567H190.342C190.114 53.1098 189.772 52.5764 189.43 52.043C189.05 51.5096 188.67 50.9381 188.253 50.4047C187.835 49.8713 187.379 49.3379 186.923 48.8426C186.467 48.3473 186.049 47.9282 185.632 47.5853C186.391 46.7852 187.151 45.9851 187.911 45.185C188.67 44.3468 189.392 43.5467 190.076 42.7847H187.151C186.923 43.0514 186.657 43.3562 186.353 43.6991C186.049 44.042 185.708 44.423 185.366 44.804C185.024 45.185 184.682 45.566 184.302 45.947C183.96 46.328 183.618 46.6709 183.277 47.0138V37.603L183.315 37.5649ZM172.641 51.5858C172.109 51.4334 171.691 51.3191 171.312 51.1667L170.894 53.2622C171.122 53.3384 171.54 53.4908 172.109 53.6432C172.679 53.7956 173.439 53.8718 174.388 53.8718C175.794 53.8718 176.895 53.6051 177.655 53.0717C178.415 52.5383 178.795 51.7763 178.795 50.7476C178.795 50.2523 178.719 49.8713 178.605 49.5284C178.491 49.1855 178.301 48.8807 178.035 48.614C177.769 48.3473 177.427 48.1187 177.009 47.8901C176.591 47.6615 176.098 47.471 175.49 47.2424C175.148 47.1281 174.844 47.0138 174.578 46.8614C174.312 46.7471 174.122 46.6328 173.971 46.5185C173.819 46.4042 173.705 46.2899 173.667 46.1375C173.591 45.9851 173.591 45.8327 173.591 45.6803C173.591 45.3374 173.743 45.0707 174.046 44.8802C174.35 44.6897 174.768 44.6135 175.262 44.6135C175.832 44.6135 176.326 44.6516 176.743 44.7659C177.161 44.8802 177.503 44.9945 177.807 45.1088L178.263 43.0895C177.959 42.9752 177.541 42.8609 176.971 42.7466C176.402 42.6323 175.794 42.5561 175.148 42.5561C173.895 42.5561 172.907 42.8609 172.185 43.3943C171.464 43.9658 171.084 44.7278 171.084 45.7184C171.084 46.2137 171.16 46.6709 171.312 47.0138C171.464 47.3567 171.691 47.6615 171.957 47.8901C172.223 48.1187 172.565 48.3473 172.945 48.5378C173.325 48.7283 173.743 48.8807 174.198 49.0712C174.958 49.3379 175.49 49.6046 175.794 49.8332C176.098 50.0618 176.288 50.3666 176.288 50.7095C176.288 51.0905 176.136 51.3572 175.832 51.5096C175.528 51.662 175.034 51.7382 174.388 51.7382C173.743 51.7382 173.135 51.662 172.641 51.5477M168.577 38.5174C168.273 38.2507 167.931 38.0983 167.513 38.0983C167.095 38.0983 166.716 38.2507 166.412 38.5174C166.108 38.7841 165.956 39.1652 165.956 39.6605C165.956 40.1558 166.108 40.4987 166.412 40.7654C166.716 41.0321 167.057 41.1845 167.513 41.1845C167.969 41.1845 168.273 41.0321 168.577 40.7654C168.881 40.4987 169.033 40.1177 169.033 39.6605C169.033 39.2033 168.881 38.7841 168.577 38.5174ZM167.779 56.4246C168.425 55.7388 168.767 54.7101 168.767 53.3003V42.7847H166.26V53.2241C166.26 53.9099 166.146 54.4052 165.918 54.7481C165.69 55.0911 165.272 55.2435 164.702 55.2435C164.285 55.2435 163.905 55.2054 163.601 55.0911L163.259 57.1485C163.525 57.2247 163.791 57.3009 164.095 57.339C164.437 57.339 164.664 57.3771 164.854 57.3771C166.108 57.3771 167.057 57.0342 167.741 56.3865M156.688 47.1281C156.726 46.8233 156.802 46.5185 156.916 46.2137C157.03 45.9089 157.182 45.6422 157.371 45.4136C157.561 45.185 157.827 44.9945 158.093 44.8421C158.397 44.6897 158.701 44.6135 159.081 44.6135C159.461 44.6135 159.764 44.6897 160.03 44.804C160.296 44.9183 160.524 45.1088 160.714 45.3374C160.904 45.566 161.056 45.8327 161.132 46.1375C161.208 46.4423 161.284 46.7852 161.284 47.1281H156.65H156.688ZM154.447 50.4809C154.675 51.1667 155.016 51.7382 155.434 52.2716C155.89 52.7669 156.46 53.1479 157.182 53.4527C157.865 53.7194 158.701 53.8718 159.65 53.8718C160.03 53.8718 160.372 53.8718 160.752 53.7956C161.094 53.7575 161.436 53.6813 161.74 53.6432C162.043 53.567 162.309 53.5289 162.575 53.4527C162.803 53.3765 162.993 53.3003 163.145 53.2241L162.803 51.1667C162.537 51.281 162.119 51.3953 161.626 51.5096C161.132 51.6239 160.562 51.662 159.954 51.662C158.929 51.662 158.131 51.4334 157.599 50.9381C157.068 50.4809 156.764 49.7951 156.688 48.9188H163.791C163.791 48.9188 163.791 48.614 163.791 48.4616C163.791 48.3092 163.791 48.1187 163.791 48.0044C163.791 46.1756 163.373 44.804 162.537 43.8896C161.702 42.9752 160.562 42.518 159.081 42.518C158.435 42.518 157.827 42.6323 157.219 42.8609C156.612 43.0895 156.08 43.4705 155.624 43.9277C155.168 44.3849 154.789 44.9945 154.523 45.7184C154.219 46.4423 154.105 47.2805 154.105 48.1949C154.105 48.995 154.219 49.757 154.447 50.4428M152.016 45.8708C151.75 45.185 151.408 44.5754 150.914 44.0801C150.458 43.5848 149.851 43.2038 149.205 42.9371C148.521 42.6704 147.761 42.5561 146.926 42.5561C146.09 42.5561 145.331 42.6323 144.571 42.7466C143.849 42.8609 143.203 43.0133 142.71 43.1276V57.3771H145.179V53.186C145.444 53.3384 145.786 53.4908 146.242 53.6051C146.66 53.7194 147.154 53.7956 147.648 53.7956C148.407 53.7956 149.091 53.6432 149.661 53.3765C150.268 53.1098 150.762 52.7288 151.142 52.2335C151.522 51.7382 151.826 51.1667 152.054 50.4428C152.244 49.757 152.358 48.995 152.358 48.1568C152.358 47.2805 152.244 46.5185 151.978 45.8327M149.205 50.7476C148.787 51.3572 148.141 51.662 147.23 51.662C146.812 51.662 146.432 51.5858 146.052 51.4715C145.672 51.3572 145.406 51.2048 145.179 51.0524V44.8802C145.444 44.804 145.672 44.7659 145.938 44.7659C146.204 44.7659 146.432 44.7659 146.66 44.7659C147.761 44.7659 148.559 45.0707 149.091 45.6803C149.585 46.2899 149.851 47.1662 149.851 48.2711C149.851 49.2998 149.661 50.138 149.243 50.7476M137.164 50.7476C136.708 51.3953 136.062 51.7001 135.227 51.7001C134.391 51.7001 133.745 51.3953 133.29 50.7476C132.834 50.0999 132.606 49.2617 132.606 48.1568C132.606 47.0519 132.834 46.2137 133.29 45.6041C133.745 44.9945 134.391 44.6516 135.227 44.6516C136.062 44.6516 136.67 44.9564 137.164 45.6041C137.62 46.2137 137.848 47.09 137.848 48.1568C137.848 49.2236 137.62 50.0999 137.164 50.7476ZM140.051 45.8708C139.785 45.185 139.443 44.5754 138.987 44.0801C138.531 43.5848 138 43.2038 137.354 42.9371C136.708 42.6704 136.024 42.5561 135.265 42.5561C134.505 42.5561 133.821 42.6704 133.176 42.9371C132.53 43.2038 131.998 43.5848 131.542 44.0801C131.086 44.5754 130.745 45.185 130.479 45.8708C130.213 46.5566 130.099 47.3567 130.099 48.1949C130.099 49.0331 130.213 49.8332 130.479 50.519C130.745 51.2048 131.086 51.8144 131.542 52.3097C131.998 52.805 132.53 53.186 133.176 53.4527C133.821 53.7194 134.505 53.8718 135.265 53.8718C136.024 53.8718 136.746 53.7194 137.354 53.4527C138 53.186 138.531 52.805 138.987 52.3097C139.443 51.8144 139.785 51.2048 140.051 50.519C140.317 49.8332 140.431 49.0331 140.431 48.1949C140.431 47.3567 140.317 46.5566 140.051 45.8708ZM129.301 42.9371C129.301 42.9371 128.997 42.8609 128.807 42.8228C128.617 42.7847 128.39 42.7466 128.162 42.7085C127.934 42.7085 127.706 42.6323 127.516 42.6323C127.288 42.6323 127.098 42.6323 126.946 42.6323C126.073 42.6323 125.275 42.7085 124.553 42.8609C123.831 43.0133 123.224 43.2038 122.768 43.3562V53.6432H125.237V44.9945C125.237 44.9945 125.579 44.9183 125.883 44.8421C126.186 44.804 126.49 44.7659 126.756 44.7659C127.25 44.7659 127.668 44.7659 128.01 44.8802C128.39 44.9564 128.655 45.0326 128.845 45.1088L129.263 43.0133L129.301 42.9371ZM119.919 42.7847H117.45V51.5096C117.45 51.5096 117.032 51.5858 116.69 51.6239C116.349 51.6239 116.045 51.662 115.741 51.662C114.905 51.662 114.335 51.4334 113.994 50.9381C113.652 50.4428 113.5 49.6046 113.5 48.4616V42.8228H110.993V48.8807C110.993 49.6046 111.069 50.2904 111.221 50.9C111.373 51.5096 111.601 52.043 111.98 52.4621C112.322 52.8812 112.816 53.2241 113.386 53.4908C113.956 53.7194 114.677 53.8718 115.551 53.8718C116.463 53.8718 117.298 53.7956 118.096 53.6813C118.856 53.567 119.501 53.4146 119.957 53.3003V42.8609L119.919 42.7847ZM109.17 53.567V51.3572H102.105V47.1662H107.954V44.9945H102.105V41.4512H108.676V39.2414H99.5217V53.5289H109.17V53.567ZM84.29 47.1281C84.328 46.8233 84.4039 46.5185 84.5179 46.2137C84.6319 45.9089 84.7838 45.6422 84.9737 45.4136C85.1637 45.185 85.4296 44.9945 85.6955 44.8421C85.9993 44.6897 86.3032 44.6135 86.721 44.6135C87.1388 44.6135 87.4047 44.6897 87.6706 44.804C87.9365 44.9183 88.1644 45.1088 88.3543 45.3374C88.5443 45.566 88.6962 45.8327 88.7722 46.1375C88.8861 46.4423 88.9241 46.7852 88.9241 47.1281H84.29ZM82.011 50.4809C82.2389 51.1667 82.5807 51.7382 82.9986 52.2716C83.4544 52.7669 84.0242 53.1479 84.7458 53.4527C85.4296 53.7194 86.2652 53.8718 87.2148 53.8718H87.4807C87.4807 53.8718 87.6706 53.8718 87.7466 53.8718C87.3667 54.2147 87.0249 54.5957 86.759 54.9767C86.4931 55.3578 86.3791 55.7388 86.3791 56.1198C86.3791 56.6913 86.5691 57.1104 86.9869 57.3771C87.4047 57.6819 88.0125 57.7962 88.8101 57.7962C89.076 57.7962 89.3419 57.7962 89.6837 57.72C90.0256 57.6819 90.2915 57.6057 90.4814 57.5295L90.2915 55.8531C89.9496 55.9674 89.6078 56.0055 89.3419 56.0055C88.8481 56.0055 88.6202 55.815 88.6202 55.434C88.6202 55.2816 88.6962 55.0911 88.8101 54.9006C88.9621 54.7101 89.114 54.4815 89.3039 54.291C89.4939 54.1005 89.7218 53.8718 89.9497 53.7194C90.1776 53.5289 90.4055 53.3765 90.5954 53.2241L90.2535 51.1667C89.9497 51.281 89.5698 51.3953 89.076 51.5096C88.5822 51.6239 88.0125 51.662 87.4047 51.662C86.3792 51.662 85.5815 51.4334 85.0497 50.9381C84.5179 50.4809 84.2141 49.7951 84.1381 48.9188H91.2411C91.2411 48.9188 91.2411 48.614 91.2411 48.4616C91.2411 48.3092 91.2411 48.1187 91.2411 48.0044C91.2411 46.1756 90.8233 44.804 89.9876 43.8896C89.152 42.9752 88.0124 42.518 86.5311 42.518C85.8853 42.518 85.2776 42.6323 84.6699 42.8609C84.0621 43.0895 83.5303 43.4705 83.0745 43.9277C82.6187 44.3849 82.2389 44.9945 81.973 45.7184C81.7071 46.4423 81.5551 47.2805 81.5551 48.1949C81.5551 48.995 81.6691 49.757 81.897 50.4428M79.2001 38.5174C78.8963 38.2507 78.5544 38.0983 78.1366 38.0983C77.7188 38.0983 77.3389 38.2507 77.035 38.5174C76.7311 38.7841 76.5792 39.1652 76.5792 39.6605C76.5792 40.1558 76.7311 40.4987 77.035 40.7654C77.3389 41.0321 77.7188 41.1845 78.1366 41.1845C78.5544 41.1845 78.8963 41.0321 79.2001 40.7654C79.504 40.4987 79.6559 40.1177 79.6559 39.6605C79.6559 39.2033 79.504 38.7841 79.2001 38.5174ZM79.3901 42.7847H76.9211V53.567H79.3901V42.7847ZM65.184 53.567H67.653V44.8802C67.653 44.8802 68.0708 44.804 68.4127 44.7659C68.7545 44.7278 69.0964 44.6897 69.4002 44.6897C69.8181 44.6897 70.1979 44.7659 70.4638 44.8802C70.7677 44.9945 70.9956 45.185 71.1475 45.4517C71.2995 45.7184 71.4514 46.0232 71.5273 46.4423C71.6033 46.8614 71.6413 47.3567 71.6413 47.9282V53.6051H74.1103V47.5472C74.1103 46.8233 74.0343 46.1375 73.8824 45.5279C73.7305 44.9183 73.5025 44.3849 73.1227 43.9658C72.7808 43.5467 72.287 43.2038 71.7173 42.9371C71.1475 42.7085 70.3878 42.5942 69.5142 42.5942C68.5646 42.5942 67.7289 42.6704 66.9693 42.7847C66.2096 42.899 65.5638 43.0514 65.108 43.1657V53.6051L65.184 53.567ZM59.2585 53.4527C59.9802 53.186 60.55 52.7669 61.0058 52.2716C61.4616 51.7763 61.8034 51.1667 62.0313 50.4809C62.2592 49.7951 62.3732 49.0331 62.3732 48.233V39.3176H59.7523V48.0044C59.7523 48.6521 59.6763 49.2236 59.5244 49.6808C59.3725 50.138 59.1825 50.519 58.9166 50.8238C58.6507 51.1286 58.3469 51.3191 57.967 51.4715C57.5872 51.6239 57.2073 51.662 56.7515 51.662C56.2957 51.662 55.8779 51.5858 55.5361 51.4715C55.1562 51.3191 54.8523 51.1286 54.5865 50.8238C54.3206 50.519 54.1306 50.1761 53.9787 49.6808C53.8268 49.2236 53.7508 48.6521 53.7508 48.0044V39.3176H51.1299V48.233C51.1299 49.0712 51.2438 49.7951 51.4717 50.4809C51.6996 51.1667 52.0415 51.7763 52.4973 52.2716C52.9531 52.7669 53.5229 53.186 54.2446 53.4527C54.9283 53.7194 55.7639 53.8718 56.7515 53.8718C57.7391 53.8718 58.5747 53.7194 59.2964 53.4527" fill="#1D1D1B"/>
<path d="M199.838 19.0488H191.671V21.1443H196.609C196.23 21.6016 195.812 22.0969 195.356 22.7065C194.9 23.3161 194.406 23.9257 193.912 24.5734C193.419 25.2211 192.963 25.8688 192.507 26.5165C192.051 27.1642 191.671 27.7738 191.368 28.3072V29.8693H199.914V27.7738H194.368C194.786 27.1261 195.242 26.4784 195.774 25.7926C196.268 25.1068 196.799 24.421 197.293 23.8114C197.787 23.1637 198.281 22.5922 198.736 22.0588C199.192 21.5253 199.534 21.1443 199.8 20.8395V19.0869L199.838 19.0488ZM183.011 23.3923C183.011 23.0875 183.125 22.7827 183.239 22.4779C183.353 22.1731 183.505 21.9064 183.695 21.6777C183.885 21.4491 184.151 21.2586 184.416 21.1062C184.682 20.9538 185.024 20.8776 185.404 20.8776C185.784 20.8776 186.088 20.9538 186.354 21.0681C186.62 21.1824 186.847 21.3729 187.037 21.6016C187.227 21.8302 187.379 22.0969 187.455 22.4017C187.531 22.7065 187.607 23.0494 187.607 23.3923H182.973H183.011ZM180.77 26.707C180.998 27.3928 181.34 27.9643 181.758 28.4977C182.213 28.993 182.783 29.4121 183.505 29.6788C184.189 29.9455 185.024 30.0979 185.974 30.0979C186.354 30.0979 186.695 30.0979 187.075 30.0217C187.417 30.0217 187.759 29.9455 188.063 29.8693C188.367 29.7931 188.633 29.755 188.899 29.6788C189.126 29.6026 189.316 29.5264 189.468 29.4502L189.126 27.3928C188.861 27.5071 188.443 27.6214 187.949 27.7357C187.455 27.85 186.885 27.8881 186.278 27.8881C185.252 27.8881 184.454 27.6595 183.923 27.1642C183.391 26.707 183.087 26.0212 183.011 25.1449H190.114C190.114 25.1449 190.114 24.8401 190.114 24.6877C190.114 24.4972 190.114 24.3448 190.114 24.2305C190.114 22.4017 189.696 21.03 188.861 20.1156C188.025 19.2012 186.885 18.744 185.404 18.744C184.758 18.744 184.151 18.8583 183.543 19.125C182.935 19.3536 182.403 19.7346 181.947 20.1918C181.492 20.649 181.112 21.2586 180.808 21.9826C180.542 22.7065 180.39 23.5447 180.39 24.4591C180.39 25.2592 180.504 26.0212 180.732 26.707M179.023 19.0488H170.856V21.1443H175.794C175.414 21.6016 174.996 22.0969 174.541 22.7065C174.085 23.3161 173.591 23.9257 173.097 24.5734C172.603 25.2211 172.148 25.8688 171.692 26.5165C171.236 27.1642 170.856 27.7738 170.552 28.3072V29.8693H179.099V27.7738H173.553C173.971 27.1261 174.427 26.4784 174.92 25.7926C175.452 25.1068 175.946 24.421 176.44 23.8114C176.934 23.1637 177.427 22.5922 177.883 22.0588C178.339 21.5253 178.681 21.1443 178.947 20.8395V19.0869L179.023 19.0488ZM169.527 19.2012C169.527 19.2012 169.223 19.125 169.033 19.0488C168.805 19.0107 168.615 18.9726 168.387 18.9345C168.159 18.9345 167.931 18.8583 167.741 18.8583C167.514 18.8583 167.324 18.8583 167.172 18.8583C166.298 18.8583 165.5 18.9345 164.779 19.0869C164.057 19.2393 163.449 19.4298 162.993 19.5822V29.8693H165.462V21.2205C165.462 21.2205 165.804 21.1443 166.108 21.0681C166.412 21.03 166.716 20.9919 166.982 20.9919C167.476 20.9919 167.893 20.9919 168.235 21.1062C168.615 21.1824 168.881 21.2586 169.071 21.3348L169.489 19.2393L169.527 19.2012ZM160.335 22.0969C160.069 21.411 159.727 20.8014 159.233 20.3442C158.777 19.8489 158.169 19.4679 157.524 19.2012C156.84 18.9345 156.08 18.8202 155.245 18.8202C154.409 18.8202 153.649 18.8964 152.89 19.0107C152.168 19.125 151.522 19.2774 151.028 19.3917V33.6412H153.497V29.4502C153.763 29.6026 154.105 29.755 154.561 29.8693C154.979 29.9836 155.473 30.0598 155.966 30.0598C156.726 30.0598 157.41 29.9074 157.98 29.6407C158.549 29.374 159.081 28.993 159.461 28.4977C159.879 28.0024 160.145 27.3928 160.372 26.707C160.6 26.0212 160.676 25.2592 160.676 24.421C160.676 23.5447 160.562 22.7827 160.297 22.0969M157.562 26.9737C157.144 27.5833 156.498 27.8881 155.587 27.8881C155.169 27.8881 154.789 27.8119 154.409 27.6976C154.029 27.5833 153.763 27.4309 153.535 27.2785V21.1062C153.801 21.03 154.029 20.9919 154.295 20.9919C154.561 20.9919 154.789 20.9919 155.017 20.9919C156.118 20.9919 156.916 21.2967 157.448 21.9064C157.98 22.516 158.207 23.3923 158.207 24.4972C158.207 25.5259 157.98 26.3641 157.562 26.9737ZM136.367 23.3923C136.405 23.0875 136.48 22.7827 136.594 22.4779C136.708 22.1731 136.86 21.9064 137.05 21.6777C137.24 21.4491 137.506 21.2586 137.772 21.1062C138.076 20.9538 138.38 20.8776 138.76 20.8776C139.139 20.8776 139.443 20.9538 139.709 21.0681C139.975 21.1824 140.203 21.3729 140.393 21.6016C140.583 21.8302 140.735 22.0969 140.811 22.4017C140.925 22.7065 140.963 23.0494 140.963 23.3923H136.329H136.367ZM134.125 26.707C134.353 27.3928 134.695 27.9643 135.113 28.4977C135.569 28.993 136.139 29.4121 136.86 29.6788C137.544 29.9455 138.38 30.0979 139.329 30.0979C139.709 30.0979 140.051 30.0979 140.431 30.0217C140.773 30.0217 141.115 29.9455 141.418 29.8693C141.722 29.7931 141.988 29.755 142.254 29.6788C142.482 29.6026 142.672 29.5264 142.824 29.4502L142.482 27.3928C142.178 27.5071 141.798 27.6214 141.304 27.7357C140.811 27.85 140.241 27.8881 139.633 27.8881C138.608 27.8881 137.81 27.6595 137.278 27.1642C136.746 26.707 136.443 26.0212 136.367 25.1449H143.47C143.47 25.1449 143.47 24.8401 143.47 24.6877C143.47 24.4972 143.47 24.3448 143.47 24.2305C143.47 22.4017 143.052 21.03 142.216 20.1156C141.38 19.2012 140.241 18.744 138.76 18.744C138.114 18.744 137.506 18.8583 136.898 19.125C136.291 19.3536 135.759 19.7346 135.303 20.1918C134.847 20.649 134.467 21.2586 134.201 21.9826C133.936 22.7065 133.784 23.5447 133.784 24.4591C133.784 25.2592 133.898 26.0212 134.125 26.707ZM122.654 29.8312H125.123V21.1443C125.123 21.1443 125.541 21.1062 125.883 21.03C126.225 20.9919 126.567 20.9919 126.871 20.9919C127.288 20.9919 127.668 21.03 127.934 21.1824C128.238 21.2967 128.466 21.4872 128.618 21.754C128.77 22.0207 128.922 22.3255 128.998 22.7446C129.074 23.1637 129.112 23.659 129.112 24.2305V29.9074H131.581V23.8495C131.581 23.1256 131.505 22.4398 131.353 21.8302C131.201 21.2205 130.973 20.6871 130.631 20.268C130.289 19.8489 129.795 19.506 129.226 19.2774C128.656 19.0488 127.896 18.9345 127.022 18.9345C126.073 18.9345 125.237 19.0107 124.477 19.125C123.718 19.2393 123.072 19.3917 122.616 19.506V29.9455L122.654 29.8312ZM113.614 18.9345C113.006 19.0488 112.55 19.1631 112.247 19.2774L112.55 21.2967C112.854 21.1824 113.234 21.1062 113.728 20.9919C114.222 20.9157 114.716 20.8776 115.323 20.8776C115.741 20.8776 116.121 20.9157 116.387 21.03C116.653 21.1443 116.881 21.2967 117.071 21.4873C117.261 21.6778 117.374 21.9064 117.45 22.1731C117.526 22.4398 117.564 22.7065 117.564 23.0113V23.4304C117.223 23.3542 116.919 23.278 116.615 23.2399C116.311 23.2399 116.045 23.2018 115.741 23.2018C115.171 23.2018 114.602 23.278 114.032 23.3923C113.5 23.5066 113.006 23.6971 112.588 23.9638C112.171 24.2305 111.867 24.5734 111.601 24.9925C111.373 25.4116 111.259 25.945 111.259 26.5546C111.259 27.2023 111.373 27.7357 111.563 28.1929C111.791 28.612 112.057 28.993 112.437 29.2597C112.816 29.5264 113.272 29.7169 113.804 29.8693C114.336 29.9836 114.944 30.0598 115.551 30.0598C116.539 30.0598 117.412 30.0217 118.172 29.8693C118.932 29.755 119.54 29.6407 119.919 29.5645V23.0113C119.919 22.3636 119.843 21.7921 119.692 21.2586C119.54 20.7252 119.312 20.268 118.97 19.9251C118.628 19.5441 118.172 19.2774 117.64 19.0488C117.071 18.8202 116.387 18.744 115.551 18.744C114.868 18.744 114.222 18.8202 113.614 18.8964M114.26 27.7357C113.88 27.5071 113.69 27.088 113.69 26.5165C113.69 26.2117 113.766 25.945 113.88 25.7545C114.032 25.564 114.184 25.4116 114.412 25.2973C114.64 25.183 114.906 25.1068 115.171 25.0687C115.437 25.0306 115.741 24.9925 116.007 24.9925C116.311 24.9925 116.615 24.9925 116.881 25.0687C117.147 25.1068 117.336 25.1449 117.488 25.183V27.9643C117.109 28.0405 116.501 28.0786 115.741 28.0786C115.095 28.0786 114.602 27.9643 114.222 27.7357M103.7 26.5927C104.08 27.7357 104.46 28.8406 104.802 29.8312H106.815C107.119 29.1835 107.385 28.4596 107.689 27.6595C107.992 26.8594 108.296 25.9831 108.6 25.0687C108.904 24.1543 109.208 23.1637 109.512 22.1731C109.816 21.1443 110.12 20.1156 110.385 19.0488H107.802C107.689 19.6203 107.537 20.268 107.385 20.9157C107.233 21.5634 107.043 22.2493 106.853 22.9732C106.663 23.659 106.473 24.3448 106.283 24.9925C106.093 25.6402 105.903 26.2498 105.713 26.8213C105.523 26.1736 105.296 25.5259 105.106 24.8782C104.916 24.1924 104.726 23.5447 104.536 22.8589C104.384 22.1731 104.194 21.5254 104.042 20.8776C103.89 20.2299 103.738 19.6203 103.624 19.0869H101.725C101.611 19.6584 101.459 20.268 101.307 20.8776C101.155 21.5254 100.965 22.1731 100.813 22.8589C100.623 23.5447 100.434 24.1924 100.244 24.8782C100.054 25.564 99.8638 26.2117 99.6359 26.8213C99.446 26.2498 99.256 25.6783 99.0661 24.9925C98.8762 24.3448 98.6863 23.659 98.4964 22.9732C98.3064 22.2874 98.1545 21.6015 97.9646 20.9157C97.8127 20.268 97.6607 19.6203 97.5468 19.0488H94.9259C95.2297 20.1156 95.4956 21.1443 95.7995 22.1731C96.1033 23.2018 96.4072 24.1543 96.7111 25.0687C97.015 25.9831 97.3189 26.8594 97.6227 27.6595C97.9266 28.4596 98.2305 29.1835 98.4964 29.8312H100.547C100.889 28.8025 101.269 27.7357 101.611 26.5927C101.991 25.4497 102.333 24.2686 102.637 23.0494C102.94 24.2686 103.282 25.4497 103.662 26.5927M90.8996 27.0118C90.4437 27.6595 89.798 27.9643 88.9624 27.9643C88.1267 27.9643 87.481 27.6595 87.0252 27.0118C86.5693 26.3641 86.3415 25.5259 86.3415 24.421C86.3415 23.3161 86.5693 22.4779 87.0252 21.8683C87.481 21.2586 88.1267 20.9157 88.9624 20.9157C89.798 20.9157 90.4437 21.2205 90.8996 21.8683C91.3554 22.4779 91.5832 23.3542 91.5832 24.421C91.5832 25.4878 91.3554 26.3641 90.8996 27.0118ZM93.7863 22.0969C93.5204 21.411 93.1786 20.8014 92.7228 20.3061C92.267 19.8108 91.7352 19.4298 91.0895 19.1631C90.4437 18.8964 89.76 18.744 89.0003 18.744C88.2407 18.744 87.5569 18.8964 86.9112 19.1631C86.2655 19.4298 85.7337 19.8108 85.2779 20.3061C84.8221 20.8014 84.4803 21.411 84.2144 22.0969C83.9485 22.7827 83.8345 23.5828 83.8345 24.421C83.8345 25.2592 83.9485 26.0593 84.2144 26.7451C84.4803 27.4309 84.8221 28.0405 85.2779 28.5358C85.7337 29.0311 86.2655 29.4121 86.9112 29.6788C87.5569 29.9455 88.2407 30.0979 89.0003 30.0979C89.76 30.0979 90.4817 29.9455 91.0895 29.6788C91.7352 29.4121 92.267 29.0311 92.7228 28.5358C93.1786 28.0405 93.5204 27.4309 93.7863 26.7451C94.0522 26.0593 94.1662 25.2592 94.1662 24.421C94.1662 23.5828 94.0522 22.7827 93.7863 22.0969ZM76.1617 27.8119C75.6299 27.6595 75.2121 27.5452 74.8323 27.3928L74.4145 29.4883C74.6424 29.5645 75.0602 29.7169 75.6299 29.8693C76.1997 30.0217 76.9594 30.0979 77.909 30.0979C79.3144 30.0979 80.4159 29.8312 81.1756 29.2978C81.9353 28.7644 82.3152 28.0024 82.3152 26.9737C82.3152 26.4784 82.2392 26.0974 82.1252 25.7545C82.0113 25.4116 81.8213 25.1068 81.5554 24.8401C81.2895 24.5734 80.9477 24.3448 80.5299 24.1162C80.1121 23.8876 79.6182 23.6971 79.0105 23.4685C78.6686 23.3542 78.3648 23.2399 78.0989 23.1256C77.833 23.0113 77.6431 22.897 77.4912 22.7827C77.3392 22.6684 77.2253 22.5541 77.1873 22.4017C77.1113 22.2493 77.1113 22.0969 77.1113 21.9445C77.1113 21.5635 77.2633 21.3348 77.5671 21.1443C77.871 20.9538 78.2888 20.8776 78.7826 20.8776C79.3524 20.8776 79.8462 20.9157 80.264 21.03C80.6818 21.1443 81.0237 21.2586 81.3275 21.3729L81.7833 19.3536C81.5174 19.2393 81.0616 19.125 80.4919 19.0107C79.9221 18.8964 79.3144 18.8202 78.6687 18.8202C77.4152 18.8202 76.4276 19.125 75.7059 19.6965C74.9842 20.268 74.6043 21.03 74.6043 22.0207C74.6043 22.516 74.6803 22.9732 74.8323 23.3161C74.9842 23.659 75.2121 23.9638 75.478 24.1924C75.7439 24.4591 76.0857 24.6496 76.4656 24.8401C76.8454 25.0306 77.2632 25.183 77.7191 25.3735C78.4408 25.6402 78.9725 25.9069 79.3144 26.1355C79.6562 26.3641 79.8082 26.6689 79.8082 27.0118C79.8082 27.3928 79.6562 27.6595 79.3523 27.8119C79.0485 27.9643 78.5547 28.0405 77.909 28.0405C77.2633 28.0405 76.6555 27.9643 76.1617 27.85M63.475 29.8312H65.944V21.1443C65.944 21.1443 66.3618 21.1062 66.7037 21.03C67.0455 20.9919 67.3874 20.9919 67.6912 20.9919C68.1091 20.9919 68.4889 21.03 68.7548 21.1824C69.0587 21.2967 69.2866 21.4872 69.4385 21.754C69.6284 22.0207 69.7424 22.3255 69.8184 22.7446C69.8943 23.1637 69.9323 23.659 69.9323 24.2305V29.9074H72.4013V23.8495C72.4013 23.1256 72.3253 22.4398 72.1733 21.8302C72.0214 21.2205 71.7936 20.6871 71.4517 20.268C71.1098 19.8489 70.616 19.506 70.0462 19.2774C69.4765 19.0488 68.7168 18.9345 67.8432 18.9345C66.8936 18.9345 66.0579 19.0107 65.2982 19.125C64.5385 19.2393 63.8929 19.3917 63.437 19.506V29.9455L63.475 29.8312ZM54.4348 18.9345C53.827 19.0488 53.3712 19.1631 53.0673 19.2774L53.3712 21.2967C53.6751 21.1824 54.0549 21.1062 54.5487 20.9919C55.0425 20.9157 55.5363 20.8776 56.144 20.8776C56.5619 20.8776 56.9418 20.9157 57.2077 21.03C57.4735 21.1443 57.7014 21.2967 57.8913 21.4873C58.0813 21.6778 58.1952 21.9064 58.2712 22.1731C58.3472 22.4398 58.3852 22.7065 58.3852 23.0113V23.4304C58.0433 23.3542 57.7014 23.278 57.4355 23.2399C57.1317 23.2399 56.8657 23.2018 56.5619 23.2018C55.9541 23.2018 55.3844 23.278 54.8526 23.3923C54.3208 23.5066 53.8271 23.6971 53.4092 23.9638C52.9914 24.2305 52.6875 24.5734 52.4216 24.9925C52.1937 25.4116 52.0418 25.945 52.0418 26.5546C52.0418 27.2023 52.1557 27.7357 52.3456 28.1929C52.5356 28.6501 52.8395 28.993 53.2193 29.2597C53.5992 29.5264 54.055 29.7169 54.5867 29.8693C55.1185 29.9836 55.7263 30.0598 56.372 30.0598C57.3596 30.0598 58.2332 30.0217 58.9929 29.8693C59.7525 29.755 60.3603 29.6407 60.7401 29.5645V23.0113C60.7401 22.3636 60.6642 21.7921 60.5123 21.2586C60.3603 20.7252 60.1324 20.268 59.7905 19.9251C59.4487 19.5441 58.9929 19.2774 58.4611 19.0488C57.8913 18.8202 57.2076 18.744 56.372 18.744C55.6883 18.744 55.0425 18.8202 54.4348 18.8964M55.0805 27.7357C54.7007 27.5071 54.5108 27.088 54.5108 26.5165C54.5108 26.2117 54.5867 25.945 54.7007 25.7545C54.8526 25.564 55.0046 25.4116 55.2325 25.2973C55.4604 25.183 55.7262 25.1068 55.9921 25.0687C56.258 25.0306 56.5619 24.9925 56.8278 24.9925C57.1317 24.9925 57.4355 24.9925 57.7014 25.0687C57.9673 25.1068 58.1572 25.1449 58.3092 25.183V27.9643C57.8913 28.0405 57.3216 28.0786 56.5619 28.0786C55.9161 28.0786 55.4224 27.9643 55.0425 27.7357M41.1024 29.8312H43.5713V21.1443C43.5713 21.1443 43.9892 21.1062 44.331 21.03C44.6729 20.9919 45.0147 20.9919 45.3186 20.9919C45.7364 20.9919 46.1162 21.03 46.4201 21.1824C46.724 21.2967 46.9519 21.4872 47.1039 21.754C47.2558 22.0207 47.4077 22.3255 47.4837 22.7446C47.5596 23.1637 47.5976 23.659 47.5976 24.2305V29.9074H50.0666V23.8495C50.0666 23.1256 49.9907 22.4398 49.8387 21.8302C49.6868 21.2205 49.4589 20.6871 49.0791 20.268C48.7372 19.8489 48.2434 19.506 47.6736 19.2774C47.1038 19.0488 46.3442 18.9345 45.4705 18.9345C44.5589 18.9345 43.6853 19.0107 42.9256 19.125C42.1659 19.2393 41.5202 19.3917 41.0644 19.506V29.9455L41.1024 29.8312ZM28.4536 15.0102C27.7319 15.8103 27.3521 16.8771 27.3521 18.2868V29.8312H29.8211V21.1443H33.7714V19.0488H29.8211V18.3249C29.8211 17.6391 29.973 17.0676 30.2769 16.6104C30.5807 16.1913 31.1506 15.9627 31.9862 15.9627C32.2901 15.9627 32.5939 15.9627 32.8598 16.0389C33.1257 16.077 33.3536 16.1532 33.5435 16.2294L33.9234 14.2101C33.7334 14.1339 33.4296 14.0577 33.0498 13.9434C32.6699 13.8672 32.2521 13.8291 31.7203 13.8291C30.2389 13.8291 29.1373 14.2101 28.3777 15.0102M37.9876 14.7435C37.6838 14.4768 37.3419 14.3244 36.9241 14.3244C36.5063 14.3244 36.1264 14.4768 35.8226 14.7435C35.5187 15.0102 35.3668 15.3912 35.3668 15.8865C35.3668 16.3818 35.5187 16.7247 35.8226 16.9914C36.1264 17.2581 36.4683 17.4105 36.9241 17.4105C37.3799 17.4105 37.6838 17.2581 37.9876 16.9914C38.2915 16.7247 38.4435 16.3437 38.4435 15.8865C38.4435 15.4293 38.2915 15.0102 37.9876 14.7435ZM38.1776 19.0488H35.7086V29.8312H38.1776V19.0488ZM22.0343 27.0118C21.5785 27.6595 20.9328 27.9643 20.0972 27.9643C19.2615 27.9643 18.6537 27.6595 18.1599 27.0118C17.7041 26.3641 17.4762 25.5259 17.4762 24.421C17.4762 23.3161 17.7041 22.4779 18.1599 21.8683C18.6157 21.2586 19.2615 20.9157 20.0972 20.9157C20.9328 20.9157 21.5785 21.2205 22.0343 21.8683C22.4901 22.4779 22.7181 23.3542 22.7181 24.421C22.7181 25.4878 22.4901 26.3641 22.0343 27.0118ZM24.8831 22.0969C24.6172 21.411 24.2754 20.8014 23.8196 20.3061C23.3638 19.8108 22.832 19.4298 22.1863 19.1631C21.5406 18.8964 20.8568 18.744 20.0972 18.744C19.3375 18.744 18.6537 18.8964 18.008 19.1631C17.3623 19.4298 16.8305 19.8108 16.3747 20.3061C15.9189 20.8014 15.539 21.411 15.3111 22.0969C15.0452 22.7827 14.9313 23.5828 14.9313 24.421C14.9313 25.2592 15.0452 26.0593 15.3111 26.7451C15.577 27.4309 15.9189 28.0405 16.3747 28.5358C16.8305 29.0311 17.3623 29.4121 18.008 29.6788C18.6537 29.9455 19.3375 30.0979 20.0972 30.0979C20.8568 30.0979 21.5785 29.9455 22.2243 29.6788C22.87 29.4121 23.4017 29.0311 23.8575 28.5358C24.3134 28.0405 24.6553 27.4309 24.9212 26.7451C25.187 26.0593 25.301 25.2592 25.301 24.421C25.301 23.5828 25.187 22.7827 24.9212 22.0969M12.4623 19.3917C12.0825 18.4773 11.5127 17.7153 10.829 17.1057C10.1073 16.4961 9.27168 16.077 8.28409 15.7722C7.2965 15.5055 6.19496 15.3531 5.01745 15.3531C4.44769 15.3531 3.76396 15.3531 3.04226 15.4293C2.28258 15.4674 1.59886 15.5817 0.953125 15.7341V29.6026C1.59886 29.755 2.32056 29.8312 3.04226 29.9074C3.76396 29.9455 4.40973 29.9836 4.97949 29.9836C6.19498 29.9836 7.2965 29.8312 8.28409 29.5264C9.27168 29.2216 10.1453 28.7644 10.829 28.1548C11.5127 27.5452 12.0825 26.7832 12.4623 25.8688C12.8421 24.9544 13.0321 23.8876 13.0321 22.6303C13.0321 21.3729 12.8421 20.268 12.4623 19.3536M3.57404 17.7153C3.9159 17.6772 4.4477 17.6391 5.20739 17.6391C6.95466 17.6391 8.24607 18.0582 9.08172 18.9345C9.91737 19.8108 10.3352 21.03 10.3352 22.6684C10.3352 24.3067 9.9174 25.4878 9.04376 26.4022C8.17013 27.2785 6.87867 27.7357 5.1314 27.7357C4.71358 27.7357 4.37174 27.7357 4.14384 27.7357C3.87795 27.7357 3.68801 27.7357 3.53608 27.7357V17.7534L3.57404 17.7153Z" fill="#1D1D1B"/>
<path d="M324.312 0.112793H217.729V71.3983H324.312V0.112793Z" fill="#164194"/>
<path d="M271.02 8.60889L271.894 11.314H274.705L272.426 12.9523L273.299 15.6574L271.02 13.981L268.741 15.6574L269.615 12.9523L267.336 11.314H270.147L271.02 8.60889Z" fill="#FFED00"/>
<path d="M271.02 55.6631L271.894 58.3301H274.705L272.426 60.0065L273.299 62.6735L271.02 60.9971L268.741 62.6735L269.615 60.0065L267.336 58.3301H270.147L271.02 55.6631Z" fill="#FFED00"/>
<path d="M247.736 32.041L248.61 34.708H251.421L249.142 36.3844L250.015 39.0515L247.736 37.3751L245.457 39.0515L246.331 36.3844L244.052 34.708H246.863L247.736 32.041Z" fill="#FFED00"/>
<path d="M294.266 32.041L295.14 34.708H297.951L295.672 36.3844L296.546 39.0515L294.266 37.3751L291.987 39.0515L292.861 36.3844L290.582 34.708H293.393L294.266 32.041Z" fill="#FFED00"/>
<path d="M282.605 11.8477L283.479 14.5147H286.29L284.011 16.1911L284.884 18.8581L282.605 17.2198L280.326 18.8581L281.2 16.1911L278.921 14.5147H281.732L282.605 11.8477Z" fill="#FFED00"/>
<path d="M259.434 11.8477L260.308 14.5147H263.119L260.84 16.1911L261.714 18.8581L259.434 17.2198L257.155 18.8581L258.029 16.1911L255.75 14.5147H258.561L259.434 11.8477Z" fill="#FFED00"/>
<path d="M282.605 52.2339L283.479 54.9009H286.29L284.011 56.5773L284.884 59.2443L282.605 57.5679L280.326 59.2443L281.2 56.5773L278.921 54.9009H281.732L282.605 52.2339Z" fill="#FFED00"/>
<path d="M259.434 52.2339L260.308 54.9009H263.119L260.84 56.5773L261.714 59.2443L259.434 57.5679L257.155 59.2443L258.029 56.5773L255.75 54.9009H258.561L259.434 52.2339Z" fill="#FFED00"/>
<path d="M291.113 20.2676L291.987 22.9727H294.798L292.519 24.611L293.392 27.3161L291.113 25.6397L288.834 27.3161L289.708 24.611L287.429 22.9727H290.239L291.113 20.2676Z" fill="#FFED00"/>
<path d="M250.889 20.2676L251.762 22.9727H254.573L252.294 24.611L253.168 27.3161L250.889 25.6397L248.61 27.3161L249.483 24.611L247.204 22.9727H250.015L250.889 20.2676Z" fill="#FFED00"/>
<path d="M291.113 43.6235L291.987 46.3287H294.798L292.519 47.967L293.392 50.6721L291.113 48.9957L288.834 50.6721L289.708 47.967L287.429 46.3287H290.239L291.113 43.6235Z" fill="#FFED00"/>
<path d="M250.889 43.6235L251.762 46.3287H254.573L252.294 47.967L253.168 50.6721L250.889 48.9957L248.61 50.6721L249.483 47.967L247.204 46.3287H250.015L250.889 43.6235Z" fill="#FFED00"/>
</svg>
