<svg width="61" height="60" viewBox="0 0 61 60" fill="none" xmlns="http://www.w3.org/2000/svg">
<path d="M33.5999 54.076C33.5999 53.8 33.6389 53.524 33.7159 53.259L34.6639 50H40.8939L39.4859 54.771C39.1549 56.016 38.0379 57 36.5629 57C34.8399 57 33.5999 55.636 33.5999 54.076Z" fill="black"/>
<path d="M16.8519 15.5341L15.0999 15.9721C14.9669 16.0051 14.8319 16.0001 14.6999 16.0001C14.1689 16.0001 13.6799 15.7691 13.3709 15.3301L6.58194 5.71411L2.72495 16.3271C2.64895 16.5381 2.59995 16.7631 2.59995 17.0001C2.59995 17.8551 3.13895 18.5801 3.89495 18.8651L14.6779 22.9141L16.8519 15.5341Z" fill="black"/>
<path d="M17.5059 13.309L19.1249 7.813L9.29294 4.131C9.07694 4.05 8.84395 4 8.59995 4C8.35695 4 8.12895 4.053 7.91395 4.133L14.8579 13.971L17.5059 13.309Z" fill="black"/>
<path d="M26.5009 3.111C26.2109 3.044 25.9119 3 25.5999 3C23.7909 3 22.2819 4.208 21.7869 5.855L11.6289 40.353L30.5999 44.791V34.273L20.7559 31.957C20.0939 31.801 19.5999 31.209 19.5999 30.5C19.5999 29.672 20.2719 29 21.0999 29C21.2189 29 21.3329 29.018 21.4439 29.043L30.5999 31.198V31C30.5999 29.378 31.5739 27.986 32.9629 27.358L22.7559 24.956C22.0939 24.801 21.5999 24.209 21.5999 23.5C21.5999 22.672 22.2719 22 23.0999 22C23.2189 22 23.3329 22.018 23.4439 22.043L40.4439 26.043C40.9419 26.161 41.3439 26.524 41.5129 27H46.5749L50.8159 12.591C51.2489 11.125 52.2889 10.003 53.6079 9.428L26.5009 3.111ZM42.0999 22C41.9809 22 41.8679 21.982 41.7559 21.957L24.7559 17.957C24.0939 17.801 23.5999 17.209 23.5999 16.5C23.5999 15.672 24.2719 15 25.0999 15C25.2189 15 25.3329 15.018 25.4439 15.043L42.4439 19.043C43.1059 19.199 43.5999 19.791 43.5999 20.5C43.5999 21.328 42.9279 22 42.0999 22ZM44.0999 15C43.9809 15 43.8679 14.982 43.7559 14.957L26.7559 10.957C26.0939 10.801 25.5999 10.209 25.5999 9.5C25.5999 8.672 26.2719 8 27.0999 8C27.2189 8 27.3329 8.018 27.4439 8.043L44.4439 12.043C45.1059 12.199 45.5999 12.791 45.5999 13.5C45.5999 14.328 44.9279 15 44.0999 15Z" fill="black"/>
<path d="M46.9829 39.575C46.5749 39.852 46.0929 40 45.5999 40C45.1069 40 44.6249 39.852 44.2169 39.575L32.5999 31.438V45.247L35.8409 46.003L35.2539 48H56.5999C57.7039 48 58.5999 47.104 58.5999 46V31.438L46.9829 39.575Z" fill="black"/>
<path d="M57.1919 19.181L58.4649 14.845C58.5439 14.574 58.5999 14.295 58.5999 14C58.5999 12.343 57.2559 11 55.5999 11C54.2389 11 53.1019 11.913 52.7349 13.156L51.3609 17.822L57.1919 19.181Z" fill="black"/>
<path d="M31.5999 54C31.5999 53.503 31.6829 53.002 31.8549 52.471L33.3259 47.47L5.59995 41L4.81495 43.679C4.67795 44.148 4.60195 44.634 4.59995 45.123C4.59595 47.526 6.25595 49.614 8.59695 50.16L31.8849 55.594C31.7129 55.091 31.5999 54.561 31.5999 54Z" fill="black"/>
<path d="M45.8589 37.92L58.5729 29H32.6249L45.3409 37.92C45.4959 38.025 45.7039 38.025 45.8589 37.92Z" fill="black"/>
</svg>
