<svg width="25" height="25" viewBox="0 0 25 25" fill="none" xmlns="http://www.w3.org/2000/svg">
<path d="M12.2454 9.55C10.699 9.55 9.44537 10.8036 9.44537 12.35C9.44537 13.8964 10.699 15.15 12.2454 15.15C13.7918 15.15 15.0454 13.8964 15.0454 12.35C15.048 11.6066 14.7539 10.8928 14.2282 10.3672C13.7025 9.84147 12.9888 9.54733 12.2454 9.55Z" fill="white"/>
<path d="M16.0958 2.5C19.4093 2.50023 22.0958 5.18644 22.0958 8.5V16.1904C22.0956 19.5038 19.4092 22.1902 16.0958 22.1904H8.4054C5.09183 22.1904 2.40563 19.5039 2.4054 16.1904V8.5C2.4054 5.18629 5.09169 2.5 8.4054 2.5H16.0958ZM15.296 9.2998C14.065 8.06882 12.2132 7.70121 10.6056 8.36914C8.99801 9.03721 7.95131 10.6088 7.9552 12.3496C7.9607 14.7166 9.87829 16.6341 12.2452 16.6396C13.9862 16.6437 15.5575 15.5978 16.2257 13.9902C16.8938 12.3826 16.5269 10.5309 15.296 9.2998ZM17.4073 5.98535C16.9991 5.81408 16.528 5.90671 16.215 6.21973C15.902 6.53275 15.8093 7.00394 15.9806 7.41211C16.1519 7.82004 16.5528 8.08406 16.9952 8.08008C17.5917 8.08008 18.0753 7.59647 18.0753 7C18.0794 6.55745 17.8154 6.15669 17.4073 5.98535Z" fill="white"/>
</svg>
