<svg width="61" height="60" viewBox="0 0 61 60" fill="none" xmlns="http://www.w3.org/2000/svg">
<path d="M40.978 46C41.73 46.898 41.8 47.949 41.8 49H54.8V32.054C54.8 28.908 53.185 25.984 50.524 24.307L43.8 20.071V33L39.14 27.82C38.683 27.319 38.031 27 37.3 27C35.823 27 34.784 28.214 34.8 29.529C34.806 29.979 34.939 30.396 35.152 30.759L38.802 37.172C38.795 40.092 39.107 43.762 40.978 46Z" fill="#252525"/>
<path d="M56.8 57H39.8C39.247 57 38.8 56.553 38.8 56V55C38.8 53.343 40.143 52 41.8 52H54.8C56.456 52 57.8 53.343 57.8 55V56C57.8 56.553 57.353 57 56.8 57Z" fill="#252525"/>
<path d="M40.092 12H32.8C32.247 12 31.8 11.553 31.8 11V3.708C31.8 3.281 32.147 3 32.513 3C32.687 3 32.864 3.063 33.007 3.208L40.593 10.792C40.739 10.939 40.8 11.121 40.8 11.298C40.8 11.658 40.515 12 40.092 12Z" fill="#252525"/>
<path d="M35.808 37.977L32.544 32.245C32.076 31.446 31.813 30.51 31.8 29.568C31.764 26.579 34.152 24 37.3 24C38.58 24 39.82 24.455 40.8 25.268V14H32.8C31.146 14 29.8 12.654 29.8 11V3H6.79996C6.24796 3 5.79996 3.447 5.79996 4V42C5.79996 42.553 6.24796 43 6.79996 43H36.363C35.956 41.264 35.833 39.5 35.808 37.977ZM30.791 18.595L29.782 24.586C29.74 24.819 29.546 25 29.3 25C29.162 25 29.037 24.944 28.946 24.854L27.507 23.415L22.361 28.561C22.089 28.832 21.714 29 21.3 29C20.886 29 20.511 28.832 20.239 28.561L16.3 24.621L12.361 28.56C12.089 28.832 11.714 29 11.3 29C10.471 29 9.79996 28.328 9.79996 27.5C9.79996 27.086 9.96796 26.711 10.239 26.439L15.239 21.439C15.511 21.168 15.886 21 16.3 21C16.714 21 17.089 21.168 17.361 21.439L21.3 25.378L25.386 21.292L23.947 19.853C23.856 19.763 23.8 19.638 23.8 19.5C23.8 19.254 23.981 19.06 24.214 19.018L30.208 18.009C30.234 18.005 30.274 18 30.3 18C30.576 18 30.8 18.224 30.8 18.5C30.8 18.526 30.794 18.569 30.791 18.595Z" fill="#252525"/>
</svg>
