<svg width="61" height="60" viewBox="0 0 61 60" fill="none" xmlns="http://www.w3.org/2000/svg">
<path d="M45.9361 39.336C46.0961 39.513 46.2001 39.742 46.2001 40C46.2001 40.553 45.7531 41 45.2001 41C44.9301 41 44.6861 40.891 44.5071 40.717L39.8171 35.507C39.5421 35.198 39.1451 35 38.7001 35C37.8721 35 37.2001 35.672 37.2001 36.5C37.2001 36.732 37.2581 36.95 37.3521 37.147C39.5141 41.644 40.3541 43.048 40.8461 45.927C41.5631 50.13 44.2001 50.008 44.2001 55H53.2001V37H43.8421L45.9361 39.336Z" fill="black"/>
<path d="M54.7001 30H34.2001L31.2001 32.5L34.2001 35H35.5521C36.1151 33.822 37.3101 33 38.7001 33C40.4091 33 41.1501 34 42.0511 35H54.7001C56.0811 35 57.2001 33.881 57.2001 32.5C57.2001 31.119 56.0811 30 54.7001 30Z" fill="black"/>
<path d="M51.2001 28C49.3891 26.878 45.6281 25 43.5891 25C42.0091 25 40.5321 25.668 38.2001 28H51.2001Z" fill="black"/>
<path d="M36.4241 39.816C35.5991 38.113 35.3821 37.843 35.2571 37H33.4771L28.0781 32.5L33.4771 28H35.3731C37.4821 25.891 39.4461 23.744 42.1411 23.16L36.1361 4.683C36.0031 4.288 35.6391 4 35.2001 4C35.0951 4 34.9971 4.029 34.9011 4.061L4.87607 14.065C4.48507 14.201 4.20007 14.563 4.20007 15C4.20007 15.103 4.22907 15.196 4.25907 15.29L17.2651 55.317C17.3971 55.712 17.7611 56 18.2001 56C18.3051 56 18.4031 55.971 18.4991 55.939L39.6791 48.881C39.3481 48.169 39.0561 47.325 38.8751 46.263C38.5041 44.09 37.9371 42.926 36.4241 39.816ZM10.2761 17.536L16.1131 15.592L18.0771 21.636L12.2171 23.588L10.2761 17.536ZM18.6341 35.368C17.4581 34.736 18.4981 35.295 12.6451 32.151L14.0641 29.508L17.3331 31.263L20.4121 25.105L23.0961 26.447C18.5111 35.615 19.2491 34.14 18.6341 35.368ZM23.7001 18C22.8721 18 22.2001 17.328 22.2001 16.5C22.2001 15.838 22.6321 15.282 23.2271 15.083L32.2271 12.083C32.3771 12.033 32.5341 12 32.7001 12C33.5281 12 34.2001 12.672 34.2001 13.5C34.2001 14.162 33.7681 14.718 33.1731 14.917L24.1731 17.917C24.0231 17.967 23.8661 18 23.7001 18ZM26.7001 25C25.8721 25 25.2001 24.328 25.2001 23.5C25.2001 22.838 25.6321 22.282 26.2271 22.083L35.2271 19.083C35.3771 19.033 35.5341 19 35.7001 19C36.5281 19 37.2001 19.672 37.2001 20.5C37.2001 21.162 36.7681 21.718 36.1731 21.917L27.1731 24.917C27.0231 24.967 26.8661 25 26.7001 25Z" fill="black"/>
</svg>
