<svg width="82" height="83" viewBox="0 0 82 83" fill="none" xmlns="http://www.w3.org/2000/svg">
<path d="M41 0.222656C63.6437 0.222656 82 18.579 82 41.2227C82 63.8663 63.6437 82.2227 41 82.2227C18.3563 82.2227 0 63.8663 0 41.2227C0 18.579 18.3563 0.222656 41 0.222656ZM40.9961 26.2227C39.3392 26.2227 37.9961 27.5658 37.9961 29.2227V38.2188H29C27.3431 38.2188 26 39.5619 26 41.2188C26 42.8756 27.3431 44.2188 29 44.2188H37.9961V53.2227C37.9961 54.8795 39.3392 56.2227 40.9961 56.2227C42.6529 56.2227 43.9961 54.8795 43.9961 53.2227V44.2188H53C54.6569 44.2188 56 42.8756 56 41.2188C56 39.5619 54.6569 38.2188 53 38.2188H43.9961V29.2227C43.9961 27.5658 42.6529 26.2227 40.9961 26.2227Z" fill="white"/>
</svg>
