<svg width="60" height="60" viewBox="0 0 60 60" fill="none" xmlns="http://www.w3.org/2000/svg">
<path d="M48 15H51V47H9V15H12V11H9C6.791 11 5 12.791 5 15V47H2V50C2 52.209 3.791 54 6 54H39V51C39 50.447 39.447 50 40 50H42C42.553 50 43 50.447 43 51V54H47V51C47 50.447 47.447 50 48 50H50C50.553 50 51 50.447 51 51V54H54C56.209 54 58 52.209 58 50V47H55V15C55 12.791 53.209 11 51 11H48V15Z" fill="black"/>
<path d="M37 7.71091V14.2899C37 14.6819 37.318 14.9999 37.71 14.9999H44.29C44.922 14.9999 45.237 14.2369 44.791 13.7909L38.212 7.20891C37.765 6.76191 37 7.07891 37 7.71091Z" fill="black"/>
<path d="M37.71 17C36.213 17 35 15.787 35 14.29V7H16C15.447 7 15 7.447 15 8V43C15 43.553 15.447 44 16 44H44C44.553 44 45 43.553 45 43V17H37.71ZM25 15C27.209 15 29 16.791 29 19C29 21.209 27.209 23 25 23C22.791 23 21 21.209 21 19C21 16.791 22.791 15 25 15ZM30.992 32H19.008C18.403 32 17.915 31.462 18.013 30.864C18.555 27.538 21.521 25 25 25C28.479 25 31.445 27.538 31.987 30.864C32.086 31.462 31.598 32 30.992 32ZM40.559 36.562L36.563 40.56C36.29 40.832 35.915 41 35.5 41C35.086 41 34.71 40.832 34.437 40.56L32.441 38.562C32.168 38.29 32 37.915 32 37.5C32 36.672 32.672 36 33.5 36C33.915 36 34.29 36.168 34.563 36.44L35.501 37.378L38.439 34.44C38.71 34.168 39.086 34 39.5 34C40.328 34 41 34.672 41 35.5C41 35.915 40.832 36.29 40.559 36.562ZM40.5 29H36.5C35.672 29 35 28.328 35 27.5C35 26.672 35.672 26 36.5 26H40.5C41.328 26 42 26.672 42 27.5C42 28.328 41.328 29 40.5 29ZM40.5 23H34.5C33.672 23 33 22.328 33 21.5C33 20.672 33.672 20 34.5 20H40.5C41.328 20 42 20.672 42 21.5C42 22.328 41.328 23 40.5 23Z" fill="black"/>
</svg>
