<svg width="810" height="763" viewBox="0 0 810 763" fill="none" xmlns="http://www.w3.org/2000/svg">
<g clip-path="url(#clip0_181_9394)">
<path d="M434.767 30.6203C394.557 30.2396 150.996 26.4716 143.837 94.3162C136.983 159.306 231.358 135.499 232.272 164.349C233.243 194.646 215.251 203.4 165.008 201.478C143.247 200.641 74.5365 208.348 73.4323 251.701C72.3281 294.805 149.054 289.362 145.265 325.14C143.057 365.79 84.7984 374.639 61.8377 385.392C36.8971 398.428 -9.00512 419.932 1.5423 466.082C15.4215 519.596 103.57 509.967 136.774 516.571C158.954 520.167 229.454 526.39 219.421 573.815C214.147 602.323 156.27 603.979 167.331 640.537C178.526 674.716 279.45 681.472 299.897 682.595C384.772 687.181 571.122 694.679 654.131 659.682C684.65 646.95 711.589 631.611 708.467 585.862C706.944 545.003 684.916 539.027 722.042 507.455C745.516 487.13 790.447 488.767 787.782 429.467C786.354 397.476 704.469 384.193 706.297 350.699C709.152 298.078 809.657 342.763 810.019 249.702C810.248 191.62 627.4 224.106 629.266 166.652C626.81 143.339 667.039 133.443 665.325 107.619C666.277 66.2839 618.909 35.7015 434.786 30.6203H434.767Z" fill="#DDDBD5"/>
<path d="M275.223 451.981C275.033 452.096 274.785 452.172 274.499 452.172H134.508C133.88 452.172 133.271 451.734 133.118 451.125C131.595 444.464 139.287 439.25 144.484 441.8C145.208 438.412 148.559 436.091 152.062 436.509C150.139 430.439 152.804 424.292 159.182 421.323C165.046 418.601 170.529 420.847 174.013 425.281C176.012 414.986 184.904 406.079 195.737 405.318C201.619 404.918 207.845 406.574 212.433 410.437C217.003 414.262 218.488 418.468 219.63 423.626C223.057 418.716 228.578 416.394 234.956 418.373C241.239 420.314 242.039 426.728 241.753 432.494C246.817 428.288 252.91 426.252 259.516 430.229C264.999 433.522 266.199 438.831 266.408 444.597C270.92 441.914 275.585 444.578 275.946 450.744C275.984 451.372 275.661 451.791 275.242 451.981H275.223Z" fill="#E7F3F3"/>
<path d="M665.725 161.989C665.725 188.803 738.529 193.751 742.299 161.989C746.087 130.208 665.725 121.72 665.725 161.989Z" fill="#D1EBEB"/>
<path d="M77.9443 574.557C77.9443 601.39 168.035 606.567 171.31 574.557C175.346 535.087 77.9443 527.589 77.9443 574.557Z" fill="#D1EBEB"/>
<path d="M603.031 725.871C603.031 757.69 709.876 763.837 713.76 725.871C718.538 679.074 603.031 670.168 603.031 725.871Z" fill="#D1EBEB"/>
<path d="M70.3286 163.873C70.3286 181.382 119.981 184.769 121.79 163.873C124.018 138.106 70.3286 133.215 70.3286 163.873Z" fill="#D1EBEB"/>
<path d="M354.9 475.788C356.385 468.347 345.361 461.496 336.87 464.236C338.26 459.136 336.68 454.492 329.141 452.209C325.999 451.257 322.229 451.276 318.917 452.171C324.857 440.333 319.336 426.86 300.982 424.081C281.03 421.055 258.888 430.837 254.928 446.595C238.707 430.647 204.323 449.754 214.471 468.099C208.207 467.11 201.734 470.649 201.353 475.921C195.013 473.771 190.006 480.241 193.928 485.798C194.214 486.198 194.804 486.464 195.375 486.464H364.743C365.181 486.464 365.523 486.35 365.771 486.198C366.037 486.045 366.247 485.817 366.361 485.493C368.284 480.013 361.183 474.798 354.9 475.807V475.788Z" fill="white"/>
<path d="M356.651 602.057C357.318 598.765 352.425 595.739 348.674 596.957C349.283 594.692 348.598 592.656 345.266 591.647C343.876 591.229 342.22 591.229 340.754 591.628C343.381 586.395 340.925 580.438 332.815 579.201C324 577.85 314.195 582.189 312.443 589.154C305.266 582.094 290.073 590.543 294.547 598.67C291.768 598.232 288.912 599.792 288.74 602.133C285.942 601.182 283.714 604.036 285.466 606.51C285.599 606.682 285.846 606.796 286.113 606.796H361.011C361.202 606.796 361.354 606.758 361.468 606.682C361.582 606.605 361.677 606.51 361.735 606.358C362.591 603.941 359.45 601.619 356.67 602.076L356.651 602.057Z" fill="white"/>
<path d="M658.985 296.823C659.138 296.918 659.309 296.975 659.538 296.975H763.679C764.136 296.975 764.612 296.651 764.707 296.195C765.849 291.247 760.119 287.364 756.254 289.248C755.702 286.736 753.208 285.004 750.619 285.328C752.046 280.818 750.066 276.231 745.326 274.043C740.966 272.025 736.892 273.681 734.302 276.993C732.817 269.323 726.192 262.7 718.139 262.149C713.76 261.844 709.133 263.081 705.725 265.955C702.317 268.809 701.213 271.93 700.375 275.756C697.824 272.102 693.712 270.389 688.971 271.854C684.288 273.301 683.698 278.077 683.926 282.359C680.156 279.238 675.625 277.716 670.713 280.665C666.639 283.12 665.744 287.06 665.573 291.342C662.222 289.343 658.757 291.342 658.471 295.909C658.452 296.385 658.681 296.689 659.004 296.842L658.985 296.823Z" fill="white"/>
<path d="M387.551 109.903C387.646 109.96 387.78 109.998 387.913 109.998H458.28C458.584 109.998 458.908 109.789 458.984 109.465C459.765 106.116 455.881 103.49 453.273 104.784C452.911 103.09 451.216 101.91 449.465 102.119C450.436 99.0745 449.103 95.9725 445.886 94.4881C442.935 93.1179 440.193 94.2407 438.442 96.4863C437.432 91.31 432.958 86.8377 427.513 86.4571C424.562 86.2478 421.421 87.0851 419.117 89.0263C416.814 90.9484 416.071 93.0608 415.5 95.649C413.786 93.175 411.007 92.0141 407.808 93.0037C404.648 93.9743 404.248 97.2095 404.4 100.102C401.849 97.9898 398.803 96.9621 395.471 98.9603C392.711 100.616 392.12 103.28 392.006 106.173C389.741 104.822 387.399 106.173 387.208 109.256C387.208 109.579 387.342 109.789 387.57 109.884L387.551 109.903Z" fill="white"/>
<path d="M554.253 720.239C554.253 719.972 554.158 719.744 554.044 719.573C553.854 719.173 553.473 718.869 552.883 718.888C535.158 719.173 517.452 719.459 499.727 719.744C499.003 719.744 498.337 720.353 498.356 721.114C498.775 731.353 497.918 741.915 499.612 752.058C501.193 761.516 511.569 762.24 519.584 762.696C529.865 763.286 544.525 763.648 550.427 758.224C557.261 751.925 554.596 730.287 554.253 720.258V720.239Z" fill="#569E9F"/>
<path d="M507.609 740.239C499.574 740.239 497.728 732.665 497.709 732.589C497.614 732.151 497.88 731.713 498.318 731.618C498.775 731.523 499.194 731.79 499.308 732.227C499.384 732.532 501.25 739.973 509.97 738.393C515.776 737.346 516.214 725.186 516.214 725.072C516.214 724.672 516.538 724.329 516.938 724.291C517.318 724.234 517.718 724.482 517.833 724.881C517.985 725.414 518.137 726.099 518.328 726.88C518.994 729.829 520.022 734.263 522.135 736.128C524.801 738.45 530.912 738.736 534.054 737.327C537.328 736.052 538.908 731.466 538.794 727.317C538.718 726.727 538.661 726.099 538.623 725.49C538.623 725.053 538.927 724.691 539.365 724.653C539.784 724.615 540.184 724.919 540.26 725.338C540.355 725.947 540.412 726.556 540.431 727.165C541.117 731.618 543.725 735.329 547.057 736.338C549.703 737.118 552.254 735.995 554.273 733.179C554.539 732.817 555.053 732.722 555.415 732.988C555.777 733.255 555.872 733.769 555.605 734.13C553.187 737.518 549.894 738.907 546.6 737.898C543.782 737.061 541.44 734.701 540.032 731.58C539.27 734.872 537.499 737.765 534.72 738.85C531.083 740.467 524.306 740.182 521.088 737.365C519.165 735.691 518.08 732.551 517.357 729.753C516.595 733.826 514.748 739.211 510.312 740.011C509.36 740.182 508.485 740.258 507.666 740.258L507.609 740.239Z" fill="#40898B"/>
<path d="M525.086 715.29C519.451 715.29 500.336 715.537 498.242 719.857C495.443 725.909 526.552 725.433 532.568 725.243C561.05 724.311 564.439 713.863 525.105 715.29H525.086Z" fill="#709DA0"/>
<path d="M525.086 714.205C521.83 714.205 494.529 713.729 497.023 721.113C498.242 724.71 504.01 725.033 507.075 725.471C513.834 726.404 520.726 726.442 527.542 726.423C533.577 726.385 539.594 726.08 545.553 725.014C548.218 724.539 553.987 723.625 555.167 720.523C558.213 712.53 527.237 714.129 525.086 714.205C523.677 714.243 523.677 716.432 525.086 716.393C531.312 716.203 537.499 716.203 543.706 716.793C544.791 716.907 555.624 718.354 552.083 720.656C545.534 724.938 535.062 724.177 527.561 724.234C519.184 724.31 510.236 724.463 502.106 722.293C498.165 721.246 500.831 718.963 503.439 718.201C506.181 717.402 509.113 717.155 511.93 716.888C516.29 716.47 520.707 716.393 525.105 716.374C526.514 716.374 526.514 714.186 525.105 714.186L525.086 714.205Z" fill="#40898B"/>
<path d="M554.634 655C554.273 676.524 553.511 698.047 553.226 719.552C553.226 720.599 554.844 720.599 554.863 719.552C555.149 698.047 555.929 676.505 556.272 655C556.291 653.953 554.654 653.953 554.634 655Z" fill="#569E9F"/>
<path d="M494.187 654.639C494.853 676.429 495.139 698.143 497.423 719.838C497.537 720.866 499.175 720.885 499.061 719.838C496.776 698.143 496.49 676.429 495.824 654.639C495.786 653.592 494.149 653.592 494.187 654.639Z" fill="#569E9F"/>
<path d="M523.677 658.293C525.505 680.254 523.22 702.292 525.124 724.253C525.219 725.3 526.857 725.3 526.762 724.253C524.839 702.292 527.142 680.254 525.315 658.293C525.219 657.246 523.582 657.246 523.677 658.293Z" fill="#569E9F"/>
<path d="M638.957 467.529C632.084 450.116 619.423 432.779 599.604 429.202C599.452 429.182 599.318 429.182 599.185 429.163C599.071 429.163 598.976 429.106 598.861 429.106C584.068 427.603 575.463 442.352 570.246 453.637C560.86 474.038 556.748 496.894 553.054 518.817C545.82 561.96 538.357 609.232 551.017 651.995C551.703 654.354 554.863 654.659 556.177 652.661C569.713 631.86 597.643 624.742 615.501 608.148C634.159 590.811 643.64 565.462 646.667 540.931C649.771 515.925 648.286 491.185 638.957 467.529Z" fill="#40898B"/>
<path d="M491.635 537.315C485.067 501.823 469.551 466.331 451.654 434.873C451.026 433.788 450.017 433.426 449.046 433.56C448.646 433.56 448.227 433.674 447.789 433.883C429.798 443.132 420.126 460.85 414.072 479.157C407.561 498.797 404.153 522.738 407.18 543.291C411.083 569.896 426.123 593.399 445.943 611.573C462.164 626.493 482.364 636.142 496.871 653.194C498.489 655.097 501.707 653.498 501.688 651.233C501.307 613.229 498.584 574.711 491.654 537.296L491.635 537.315Z" fill="#D4E4E4"/>
<path d="M577.214 408.63C561.317 399.952 542.735 398.486 525.181 401.969C524.096 402.178 523.487 402.825 523.258 403.605C512.635 418.754 511.074 439.935 509.532 457.653C507.076 485.514 507.742 513.66 508.979 541.559C510.655 579.164 513.815 616.864 518.613 654.221C518.803 655.706 519.755 656.981 521.431 656.981H553.777C554.729 656.981 555.757 656.467 556.214 655.611C586.067 600.802 594.425 534.88 599.432 473.772C600.574 459.841 601.488 445.854 601.717 431.885C601.869 422.655 583.973 412.321 577.252 408.649L577.214 408.63Z" fill="#D4E4E4"/>
<path d="M532.435 412.778C527.371 383.603 475.852 406.878 462.22 416.85C449.617 426.061 446.209 434.777 445.39 448.86C444.038 472.325 445.314 495.923 448.284 519.217C452.377 551.207 460.488 583.046 473.51 612.715C477.47 621.754 481.811 630.585 486.571 639.244C488.722 643.164 493.463 655.61 498.108 656.866C504.943 658.712 514.329 656.961 521.412 656.961C522.82 656.961 523.677 656.124 524.001 655.115C524.115 654.849 524.21 654.544 524.229 654.202C528.684 601.011 532.207 547.687 534.034 494.343C534.948 467.586 537.042 439.325 532.435 412.778Z" fill="#40898B"/>
<path d="M493.444 658.198C514.31 662.08 536.338 661.832 557.185 658.198C563.145 657.17 560.612 649.177 554.672 650.224C535.577 653.535 515.072 653.782 495.957 650.224C490.017 649.12 487.504 657.094 493.444 658.198Z" fill="#569E9F"/>
<path d="M300.907 139.344C300.907 139.23 300.868 139.135 300.811 139.058C300.716 138.887 300.564 138.754 300.316 138.754C292.644 138.887 284.971 139.001 277.28 139.135C276.975 139.135 276.67 139.401 276.689 139.724C276.88 144.159 276.499 148.726 277.241 153.122C277.927 157.214 282.42 157.537 285.885 157.728C290.34 157.994 296.699 158.146 299.25 155.786C302.22 153.065 301.059 143.683 300.907 139.344Z" fill="#8CA8AF"/>
<path d="M280.706 148.022C277.222 148.022 276.422 144.749 276.422 144.711C276.384 144.52 276.498 144.33 276.689 144.292C276.879 144.254 277.07 144.368 277.108 144.558C277.146 144.692 277.945 147.908 281.734 147.223C284.247 146.766 284.438 141.513 284.438 141.456C284.438 141.285 284.571 141.133 284.742 141.114C284.914 141.095 285.085 141.19 285.123 141.361C285.18 141.589 285.256 141.894 285.332 142.237C285.618 143.512 286.056 145.434 286.989 146.252C288.15 147.261 290.797 147.375 292.148 146.766C293.557 146.214 294.262 144.235 294.204 142.427C294.166 142.16 294.147 141.894 294.128 141.628C294.128 141.437 294.262 141.285 294.452 141.266C294.623 141.266 294.814 141.38 294.833 141.57C294.871 141.837 294.89 142.084 294.909 142.37C295.213 144.292 296.337 145.909 297.784 146.347C298.926 146.69 300.03 146.195 300.906 144.977C301.02 144.825 301.249 144.787 301.401 144.901C301.553 145.015 301.591 145.243 301.477 145.396C300.43 146.861 299.002 147.47 297.574 147.032C296.356 146.671 295.328 145.643 294.718 144.292C294.395 145.719 293.614 146.975 292.415 147.432C290.835 148.136 287.903 148.003 286.513 146.785C285.675 146.062 285.218 144.692 284.895 143.493C284.552 145.262 283.752 147.584 281.829 147.946C281.41 148.022 281.03 148.06 280.687 148.06L280.706 148.022Z" fill="#336566"/>
<path d="M288.265 137.212C285.828 137.212 277.546 137.327 276.632 139.192C275.413 141.818 288.893 141.609 291.501 141.532C303.838 141.133 305.304 136.604 288.265 137.232V137.212Z" fill="#336566"/>
<path d="M288.265 136.738C286.856 136.738 275.033 136.528 276.099 139.726C276.632 141.286 279.126 141.419 280.459 141.61C283.391 142.009 286.38 142.028 289.331 142.028C291.939 142.028 294.548 141.876 297.137 141.419C298.298 141.21 300.792 140.81 301.306 139.478C302.62 136.015 289.217 136.7 288.284 136.738C287.675 136.757 287.675 137.708 288.284 137.689C290.968 137.613 293.672 137.594 296.356 137.861C296.832 137.918 301.516 138.527 299.993 139.535C297.156 141.381 292.625 141.058 289.369 141.096C285.733 141.134 281.868 141.191 278.346 140.258C276.651 139.802 277.794 138.812 278.917 138.489C280.097 138.146 281.373 138.032 282.591 137.918C284.476 137.727 286.399 137.708 288.303 137.689C288.912 137.689 288.912 136.738 288.303 136.738H288.265Z" fill="#336566"/>
<path d="M301.077 111.083C300.925 120.408 300.582 129.733 300.468 139.058C300.468 139.515 301.173 139.515 301.173 139.058C301.306 129.733 301.63 120.408 301.801 111.083C301.801 110.626 301.097 110.626 301.097 111.083H301.077Z" fill="#8CA8AF"/>
<path d="M274.88 110.93C275.166 120.37 275.299 129.771 276.289 139.172C276.327 139.629 277.051 139.629 276.994 139.172C276.004 129.771 275.889 120.37 275.585 110.93C275.585 110.474 274.861 110.474 274.88 110.93Z" fill="#8CA8AF"/>
<path d="M287.655 112.511C288.455 122.026 287.446 131.579 288.284 141.095C288.322 141.551 289.026 141.551 288.988 141.095C288.15 131.579 289.159 122.026 288.36 112.511C288.322 112.054 287.617 112.054 287.655 112.511Z" fill="#8CA8AF"/>
<path d="M337.594 29.8791C334.624 22.343 329.14 14.8258 320.535 13.2653C320.478 13.2653 320.421 13.2653 320.345 13.2653C320.287 13.2653 320.249 13.2463 320.211 13.2272C313.795 12.5802 310.064 18.9555 307.817 23.8654C303.762 32.6957 301.972 42.5917 300.373 52.1071C297.251 70.7953 294.014 91.2723 299.497 109.808C299.802 110.817 301.154 110.969 301.725 110.094C307.589 101.092 319.697 97.9902 327.427 90.8156C335.518 83.2985 339.612 72.3177 340.925 61.6986C342.258 50.8701 341.63 40.1367 337.575 29.8982L337.594 29.8791Z" fill="#336566"/>
<path d="M273.776 60.1007C270.92 44.7239 264.219 29.347 256.451 15.721C256.184 15.2452 255.747 15.093 255.328 15.1501C255.156 15.1501 254.966 15.1881 254.776 15.3023C246.989 19.3178 242.781 26.9872 240.173 34.923C237.355 43.4298 235.889 53.8015 237.184 62.7079C238.878 74.2406 245.39 84.403 253.976 92.2817C261.001 98.7522 269.759 102.939 276.023 110.323C276.727 111.141 278.117 110.456 278.117 109.486C277.946 93.0239 276.765 76.334 273.757 60.1197L273.776 60.1007Z" fill="#9DC3C4"/>
<path d="M310.845 4.35927C303.953 0.610215 295.918 -0.0368303 288.303 1.4666C287.827 1.56175 287.56 1.84721 287.465 2.17074C282.858 8.73635 282.191 17.9092 281.525 25.5786C280.459 37.6441 280.744 49.8428 281.297 61.9273C282.02 78.2176 283.391 94.546 285.466 110.741C285.542 111.388 285.961 111.94 286.684 111.94H300.697C301.116 111.94 301.554 111.712 301.744 111.35C314.671 87.5998 318.308 59.0346 320.459 32.5629C320.954 26.5301 321.354 20.4783 321.449 14.4075C321.506 10.4111 313.757 5.9198 310.845 4.34024V4.35927Z" fill="#9DC3C4"/>
<path d="M291.444 6.14785C289.254 -6.48858 266.922 3.59772 261.02 7.91771C255.556 11.9142 254.071 15.6823 253.728 21.7911C253.138 31.9535 253.69 42.1731 254.985 52.2594C256.755 66.1138 260.278 79.911 265.913 92.7568C267.627 96.6771 269.511 100.502 271.568 104.251C272.5 105.945 274.557 111.35 276.556 111.883C279.526 112.682 283.581 111.921 286.665 111.921C287.274 111.921 287.655 111.559 287.788 111.121C287.846 111.007 287.884 110.874 287.884 110.722C289.807 87.6756 291.33 64.5723 292.129 41.4689C292.529 29.8792 293.424 17.6234 291.444 6.12881V6.14785Z" fill="#336566"/>
<path d="M274.557 112.473C283.6 114.167 293.139 114.053 302.163 112.473C304.752 112.035 303.648 108.572 301.078 109.01C292.815 110.456 283.924 110.551 275.642 109.01C273.072 108.534 271.987 111.997 274.557 112.473Z" fill="#8CA8AF"/>
<path d="M321.334 324.17C320.478 323.332 320.059 322.305 320.059 321.087V297.869H262.505C261.286 297.869 260.258 297.451 259.421 296.594C258.564 295.757 258.145 294.729 258.145 293.511V281.179C258.145 279.238 258.811 277.43 260.144 275.737L313.7 201.517C314.309 200.546 315.204 199.785 316.422 199.252C317.622 198.7 318.955 198.434 320.421 198.434H340.202C341.534 198.434 342.582 198.833 343.381 199.614C344.162 200.394 344.562 201.459 344.562 202.792V276.46H360.725C362.058 276.46 363.143 276.859 364 277.64C364.838 278.42 365.276 279.486 365.276 280.818V293.511C365.276 294.729 364.857 295.757 364 296.594C363.143 297.451 362.115 297.869 360.916 297.869H344.581V321.087C344.581 322.305 344.181 323.332 343.4 324.17C342.62 325.026 341.553 325.445 340.221 325.445H324.438C323.219 325.445 322.191 325.026 321.353 324.17H321.334ZM320.611 277.164V224.715L283.39 277.164H320.611Z" fill="white"/>
<path d="M394.576 313.837C386.656 304.892 382.315 293.15 381.592 278.63C381.478 275.357 381.401 269.8 381.401 261.94C381.401 254.08 381.458 248.276 381.592 244.888C382.201 230.615 386.561 219.007 394.671 210.043C402.782 201.099 414.757 196.607 430.616 196.607C446.476 196.607 458.641 201.08 466.733 210.043C474.843 218.988 479.146 230.615 479.622 244.888C479.85 248.276 479.984 253.966 479.984 261.94C479.984 269.914 479.869 275.376 479.622 278.63C479.013 293.15 474.748 304.873 466.828 313.837C458.908 322.8 446.818 327.273 430.616 327.273C414.414 327.273 402.515 322.8 394.576 313.837ZM447.675 298.86C451.426 293.836 453.425 286.794 453.672 277.716C453.92 270.694 454.034 265.385 454.034 261.75C454.034 257.753 453.92 252.501 453.672 245.954C453.425 237.01 451.426 229.987 447.675 224.906C443.924 219.825 438.232 217.294 430.616 217.294C423.001 217.294 417.461 219.825 413.653 224.906C409.845 229.987 407.808 237.01 407.561 245.954C407.446 249.227 407.389 254.48 407.389 261.75C407.389 269.019 407.446 274.215 407.561 277.716C407.808 286.794 409.826 293.836 413.653 298.86C417.461 303.884 423.115 306.396 430.616 306.396C438.118 306.396 443.924 303.884 447.675 298.86Z" fill="white"/>
<path d="M558.956 324.17C558.099 323.332 557.68 322.305 557.68 321.087V297.869H500.126C498.908 297.869 497.88 297.451 497.042 296.594C496.185 295.757 495.767 294.729 495.767 293.511V281.179C495.767 279.238 496.433 277.43 497.766 275.737L551.321 201.517C551.931 200.546 552.826 199.785 554.044 199.252C555.243 198.7 556.595 198.434 558.042 198.434H577.823C579.156 198.434 580.222 198.833 581.003 199.614C581.783 200.394 582.183 201.459 582.183 202.792V276.46H598.347C599.68 276.46 600.765 276.859 601.622 277.64C602.459 278.42 602.897 279.486 602.897 280.818V293.511C602.897 294.729 602.478 295.757 601.622 296.594C600.765 297.451 599.737 297.869 598.537 297.869H582.202V321.087C582.202 322.305 581.802 323.332 581.022 324.17C580.241 325.026 579.175 325.445 577.842 325.445H562.059C560.86 325.445 559.813 325.026 558.975 324.17H558.956ZM558.232 277.164V224.715L521.012 277.164H558.232Z" fill="white"/>
<path d="M363.543 170.859C360.954 168.518 359.602 165.016 359.45 160.392C359.412 159.402 359.393 157.956 359.393 156.053C359.393 154.15 359.393 152.646 359.45 151.657C359.583 147.127 360.973 143.664 363.639 141.247C366.285 138.83 369.864 137.631 374.357 137.631C378.851 137.631 382.43 138.83 385.095 141.247C387.761 143.664 389.17 147.127 389.303 151.657C389.379 153.636 389.398 155.101 389.398 156.053C389.398 157.004 389.36 158.412 389.303 160.392C389.131 165.016 387.761 168.499 385.171 170.859C382.582 173.199 378.984 174.379 374.338 174.379C369.693 174.379 366.095 173.199 363.505 170.859H363.543ZM379.841 166.443C381.192 165.073 381.935 162.961 382.03 160.144C382.106 158.108 382.125 156.719 382.125 156.015C382.125 155.234 382.087 153.845 382.03 151.885C381.935 149.068 381.192 146.956 379.841 145.586C378.489 144.216 376.661 143.511 374.376 143.511C372.092 143.511 370.321 144.196 368.97 145.586C367.618 146.975 366.875 149.068 366.78 151.885C366.742 152.874 366.723 154.245 366.723 156.015C366.723 157.784 366.723 159.136 366.78 160.144C366.875 162.961 367.599 165.073 368.95 166.443C370.302 167.814 372.111 168.518 374.396 168.518C376.68 168.518 378.489 167.833 379.86 166.443H379.841Z" fill="#336566"/>
<path d="M400.555 171.296C398.384 169.24 397.204 166.424 397.033 162.846L396.976 160.601L397.033 158.355C397.204 154.815 398.384 152.018 400.612 149.943C402.82 147.869 405.886 146.822 409.808 146.822C413.73 146.822 416.795 147.869 419.003 149.943C421.212 152.018 422.411 154.834 422.583 158.355C422.621 158.755 422.64 159.516 422.64 160.601C422.64 161.685 422.64 162.447 422.583 162.846C422.411 166.424 421.231 169.24 419.06 171.296C416.89 173.351 413.806 174.379 409.808 174.379C405.81 174.379 402.744 173.351 400.574 171.296H400.555ZM413.996 167.623C414.986 166.481 415.519 164.806 415.633 162.599C415.672 162.256 415.691 161.59 415.691 160.601C415.691 159.611 415.691 158.945 415.633 158.602C415.538 156.395 414.986 154.72 413.996 153.578C413.006 152.436 411.616 151.865 409.808 151.865C407.999 151.865 406.609 152.436 405.619 153.578C404.629 154.72 404.096 156.395 403.982 158.602L403.925 160.601L403.982 162.599C404.077 164.806 404.629 166.481 405.619 167.623C406.609 168.765 407.999 169.336 409.808 169.336C411.616 169.336 413.006 168.765 413.996 167.623Z" fill="#336566"/>
<path d="M431.245 183.228C431.017 183 430.883 182.714 430.883 182.334V148.554C430.883 148.173 430.998 147.888 431.245 147.66C431.493 147.431 431.778 147.336 432.121 147.336H436.157C436.538 147.336 436.823 147.45 437.052 147.66C437.28 147.888 437.375 148.173 437.375 148.554V150.59C439.279 148.078 442.002 146.822 445.543 146.822C449.084 146.822 451.616 147.907 453.463 150.057C455.291 152.227 456.281 155.139 456.414 158.812C456.452 159.211 456.471 159.82 456.471 160.601C456.471 161.381 456.471 162.028 456.414 162.447C456.281 166.024 455.291 168.898 453.463 171.106C451.635 173.294 448.989 174.398 445.543 174.398C442.097 174.398 439.489 173.199 437.68 170.782V182.372C437.68 182.752 437.566 183.038 437.356 183.266C437.128 183.495 436.842 183.59 436.462 183.59H432.121C431.778 183.59 431.493 183.475 431.245 183.266V183.228ZM449.522 162.123C449.56 161.78 449.579 161.267 449.579 160.601C449.579 159.934 449.579 159.402 449.522 159.078C449.294 154.549 447.333 152.284 443.658 152.284C441.678 152.284 440.212 152.912 439.26 154.168C438.308 155.424 437.775 156.985 437.68 158.812L437.623 160.753L437.68 162.751C437.756 164.445 438.289 165.91 439.298 167.109C440.307 168.308 441.754 168.917 443.658 168.917C447.333 168.917 449.294 166.652 449.522 162.123Z" fill="#336566"/>
<path d="M468.37 173.218C466.638 172.457 465.343 171.543 464.525 170.516C463.687 169.469 463.268 168.593 463.268 167.832C463.268 167.49 463.382 167.223 463.63 167.014C463.858 166.805 464.144 166.709 464.448 166.709H468.485C468.789 166.709 469.037 166.824 469.246 167.071C469.379 167.166 469.741 167.471 470.312 167.984C470.884 168.536 471.569 168.955 472.35 169.26C473.13 169.564 474.006 169.716 474.958 169.716C476.31 169.716 477.433 169.45 478.328 168.898C479.222 168.346 479.66 167.604 479.66 166.652C479.66 165.929 479.47 165.358 479.07 164.921C478.67 164.483 477.966 164.083 476.957 163.722C475.929 163.36 474.425 162.979 472.407 162.58C469.513 161.971 467.38 161.038 465.991 159.782C464.62 158.526 463.915 156.851 463.915 154.777C463.915 153.426 464.315 152.132 465.134 150.933C465.953 149.734 467.171 148.744 468.789 147.964C470.408 147.203 472.33 146.822 474.577 146.822C476.824 146.822 478.842 147.184 480.498 147.926C482.173 148.649 483.43 149.525 484.306 150.533C485.182 151.542 485.6 152.436 485.6 153.217C485.6 153.521 485.486 153.788 485.277 154.016C485.048 154.244 484.782 154.339 484.477 154.339H480.707C480.441 154.339 480.155 154.225 479.832 153.978C479.584 153.807 479.222 153.483 478.708 153.007C478.194 152.531 477.604 152.151 476.919 151.884C476.233 151.618 475.434 151.485 474.52 151.485C473.263 151.485 472.273 151.751 471.588 152.303C470.884 152.855 470.541 153.559 470.541 154.454C470.541 155.101 470.712 155.633 471.055 156.033C471.398 156.433 472.064 156.832 473.035 157.213C474.025 157.594 475.51 157.955 477.471 158.336C480.746 158.983 483.087 159.992 484.496 161.343C485.905 162.713 486.609 164.369 486.609 166.348C486.609 168.727 485.562 170.668 483.487 172.171C481.412 173.675 478.499 174.417 474.748 174.417C472.197 174.417 470.046 174.036 468.313 173.275L468.37 173.218Z" fill="#336566"/>
<path d="M494.663 173.503C494.435 173.275 494.301 172.97 494.301 172.628V167.889C494.301 167.508 494.416 167.204 494.663 166.976C494.911 166.747 495.196 166.614 495.539 166.614H500.279C500.66 166.614 500.965 166.728 501.193 166.976C501.422 167.223 501.555 167.528 501.555 167.889V172.628C501.555 172.97 501.441 173.256 501.193 173.503C500.946 173.751 500.641 173.865 500.279 173.865H495.539C495.196 173.865 494.911 173.751 494.663 173.503ZM494.968 163.607C494.739 163.379 494.606 163.074 494.606 162.732V139.362C494.606 139.019 494.72 138.734 494.968 138.487C495.215 138.239 495.501 138.125 495.843 138.125H499.975C500.356 138.125 500.641 138.239 500.87 138.449C501.098 138.677 501.193 138.962 501.193 139.343V162.713C501.193 163.055 501.079 163.341 500.87 163.588C500.641 163.817 500.356 163.95 499.975 163.95H495.843C495.501 163.95 495.215 163.836 494.968 163.588V163.607Z" fill="#336566"/>
</g>
<defs>
<clipPath id="clip0_181_9394">
<rect width="810" height="763" fill="white"/>
</clipPath>
</defs>
</svg>
