<svg width="26" height="25" viewBox="0 0 26 25" fill="none" xmlns="http://www.w3.org/2000/svg">
<path d="M13.2959 15.8055L10.8544 22.2202C10.7943 22.3809 10.7012 22.5287 10.5803 22.6547C10.4594 22.7808 10.3133 22.8826 10.1505 22.9543C9.90599 23.0633 9.63291 23.1008 9.36591 23.0621C9.09891 23.0234 8.85 22.9102 8.65073 22.7368C8.45147 22.5635 8.31082 22.3378 8.2466 22.0883C8.18238 21.8389 8.1975 21.5769 8.29002 21.3357L9.99231 16.8535C10.1274 16.5162 10.2341 16.1692 10.3115 15.8159C10.3803 15.4572 10.4295 15.0953 10.4588 14.7317C10.5243 14.0754 10.5706 13.3647 10.6061 12.6825C10.6416 12.0003 10.6661 11.3389 10.6852 10.7916C10.7098 10.1094 10.5161 10.0653 9.94047 9.93558L9.82044 9.90964L4.91 9.03031C4.7334 9.00069 4.56467 8.93825 4.41347 8.84657C4.26227 8.75488 4.13157 8.63574 4.02885 8.49597C3.87625 8.28424 3.79316 8.0342 3.7901 7.77754C3.78704 7.52087 3.86415 7.26912 4.01166 7.05415C4.15917 6.83917 4.37046 6.67066 4.61876 6.56993C4.86706 6.4692 5.14121 6.4408 5.4065 6.48831L10.6825 7.42989C10.8926 7.44804 11.0972 7.47139 11.3127 7.49473C11.9619 7.57932 12.6161 7.62524 13.2714 7.63221C14.0871 7.61706 14.9013 7.55905 15.7102 7.45842C15.9558 7.43248 16.1876 7.40395 16.4195 7.3832L21.3982 6.49609C21.7514 6.42645 22.1192 6.49267 22.4212 6.68025C22.5708 6.77655 22.6989 6.90015 22.7979 7.0439C22.8969 7.18764 22.9649 7.34866 22.9979 7.51759C23.0308 7.68653 23.0282 7.86001 22.9901 8.02797C22.952 8.19593 22.8791 8.35501 22.7758 8.49597C22.6745 8.63663 22.545 8.7569 22.3947 8.84993C22.2445 8.94295 22.0764 9.00689 21.9001 9.03809L17.1425 9.88889C16.9842 9.92261 16.8424 9.94595 16.7169 9.96411C16.2204 10.0445 15.9749 10.086 16.0049 10.7578C16.0267 11.2481 16.0894 11.8343 16.1713 12.4465C16.2668 13.165 16.3922 13.9276 16.5232 14.6253C16.6078 15.0844 16.6869 15.4528 16.796 15.8055C16.9051 16.1583 17.0115 16.5188 17.1752 16.952L18.842 21.3357C18.9345 21.5769 18.9496 21.8389 18.8854 22.0883C18.8212 22.3378 18.6806 22.5635 18.4813 22.7368C18.282 22.9102 18.0331 23.0234 17.7661 23.0621C17.4991 23.1008 17.226 23.0633 16.9815 22.9543C16.8187 22.8826 16.6726 22.7808 16.5517 22.6547C16.4309 22.5287 16.3377 22.3809 16.2777 22.2202L13.8279 15.8185L13.5551 15.3438L13.2823 15.8055H13.2959ZM13.4023 1.92308C13.9597 1.92263 14.4999 2.10594 14.931 2.44178C15.3621 2.77763 15.6574 3.24521 15.7666 3.76487C15.8757 4.28453 15.792 4.82409 15.5296 5.29163C15.2673 5.75917 14.8426 6.12574 14.3278 6.32889C13.8131 6.53203 13.2402 6.55918 12.7067 6.40571C12.1733 6.25223 11.7123 5.92763 11.4024 5.48721C11.0924 5.0468 10.9527 4.51782 11.007 3.99042C11.0613 3.46302 11.3062 2.96983 11.7 2.59489C11.9232 2.38169 12.1884 2.21257 12.4806 2.09727C12.7727 1.98197 13.086 1.92277 13.4023 1.92308Z" fill="#336566"/>
</svg>
