<svg width="20" height="20" viewBox="0 0 20 20" fill="none" xmlns="http://www.w3.org/2000/svg">
<g clip-path="url(#clip0_5_1408)">
<path d="M19.1547 9.30273C18.6891 9.30273 18.3052 9.64172 18.3052 10.1114C18.2643 13.1704 16.5 15.9354 13.8004 17.4179C9.73254 19.652 4.97859 17.6467 3.15706 14.9266L5.72599 15.4616C6.15074 15.5474 6.61634 15.2901 6.7021 14.8245C6.78787 14.3998 6.53057 13.9342 6.06498 13.8484L1.01288 12.7865C0.718823 12.7171 -0.0530816 12.9295 0.0367697 13.7218L0.673897 18.8188C0.714739 19.2436 1.05781 19.5417 1.48256 19.5417C2.1156 19.5417 2.3729 19.0761 2.33206 18.6064L2.03392 16.1192C6.163 21.0733 11.403 20.383 14.5641 18.9495C17.8355 17.2056 19.9184 13.8525 19.9593 10.1522C19.9633 9.68664 19.6203 9.30273 19.1547 9.30273Z" fill="black"/>
<path d="M0.841499 10.6953C1.30709 10.6953 1.691 10.3563 1.691 9.88666C1.73184 6.82763 3.4962 4.06266 6.19582 2.58012C10.2636 0.346088 15.0176 2.35141 16.8391 5.07145L14.2702 4.53643C13.8454 4.45066 13.3798 4.70796 13.2941 5.17355C13.2083 5.5983 13.4656 6.0639 13.9312 6.14966L18.9874 7.21154C19.2814 7.28097 20.0533 7.0686 19.9635 6.27627L19.3264 1.17925C19.2855 0.754503 18.9424 0.45636 18.5177 0.45636C17.8847 0.45636 17.6274 0.921953 17.6682 1.39163L17.9623 3.87888C13.8332 -1.07111 8.59321 -0.384975 5.43208 1.05265C2.16068 2.79249 0.0777626 6.14966 0.0328369 9.84582C0.0328369 10.3155 0.375906 10.6953 0.841499 10.6953Z" fill="black"/>
</g>
<defs>
<clipPath id="clip0_5_1408">
<rect width="20" height="20" fill="white"/>
</clipPath>
</defs>
</svg>
